<svg width="705" height="490" viewBox="0 0 705 490" fill="none" xmlns="http://www.w3.org/2000/svg">
<path d="M325.824 324.692L323.943 324.617C323.756 324.609 323.575 324.553 323.418 324.453C323.261 324.353 323.133 324.212 323.047 324.046L322.185 322.375C322.099 322.208 322.059 322.022 322.068 321.835C322.077 321.647 322.135 321.465 322.236 321.306L323.254 319.71C323.355 319.551 323.496 319.422 323.662 319.335C323.829 319.247 324.014 319.205 324.201 319.213L326.082 319.288C326.269 319.295 326.45 319.352 326.607 319.452C326.764 319.552 326.892 319.692 326.978 319.858L327.84 321.53C327.926 321.697 327.966 321.883 327.957 322.07C327.948 322.258 327.89 322.44 327.789 322.599L326.771 324.195C326.67 324.354 326.529 324.483 326.363 324.57C326.196 324.658 326.011 324.7 325.824 324.692Z" fill="#F279C5"/>
<path d="M369.243 318.311C369.252 318.466 369.301 318.617 369.387 318.749C369.473 318.882 369.593 318.99 369.733 319.064C369.874 319.138 370.031 319.174 370.189 319.17C370.347 319.166 370.5 319.121 370.632 319.039L373.463 317.302L376.295 315.565C376.427 315.483 376.534 315.369 376.605 315.232C376.677 315.096 376.71 314.943 376.702 314.788C376.693 314.633 376.644 314.482 376.558 314.35C376.472 314.218 376.353 314.109 376.212 314.035L370.198 310.88C370.057 310.806 369.9 310.77 369.743 310.774C369.585 310.778 369.433 310.823 369.301 310.905C369.168 310.986 369.061 311.1 368.989 311.236C368.917 311.372 368.883 311.526 368.891 311.681L369.068 314.996L369.243 318.311Z" fill="#9793AB"/>
<path d="M409.514 319.006L406.367 318.913C406.055 318.903 405.752 318.811 405.491 318.644C405.229 318.478 405.018 318.243 404.877 317.964L403.464 315.153C403.323 314.873 403.259 314.56 403.277 314.242C403.295 313.925 403.396 313.616 403.568 313.346L405.301 310.629C405.473 310.359 405.711 310.138 405.991 309.987C406.271 309.837 406.583 309.763 406.895 309.772L410.042 309.866C410.355 309.875 410.657 309.967 410.919 310.134C411.18 310.3 411.392 310.535 411.532 310.814L412.946 313.626C413.087 313.905 413.151 314.219 413.133 314.536C413.114 314.854 413.014 315.163 412.841 315.433L411.108 318.15C410.936 318.42 410.698 318.641 410.419 318.791C410.139 318.941 409.827 319.016 409.514 319.006Z" fill="#F279C5"/>
<path d="M344.175 309.175C344.254 309.05 344.298 308.906 344.304 308.757C344.309 308.608 344.276 308.459 344.208 308.325C344.14 308.192 344.038 308.078 343.914 307.995C343.79 307.912 343.647 307.864 343.5 307.854L340.364 307.652L337.228 307.45C337.081 307.441 336.936 307.471 336.806 307.537C336.676 307.604 336.567 307.704 336.489 307.828C336.411 307.952 336.366 308.096 336.361 308.245C336.355 308.394 336.388 308.543 336.456 308.676L339.378 314.395C339.447 314.529 339.548 314.642 339.672 314.725C339.796 314.807 339.939 314.856 340.085 314.865C340.232 314.875 340.377 314.845 340.507 314.779C340.637 314.713 340.747 314.613 340.825 314.489L342.5 311.831L344.175 309.175Z" fill="url(#paint0_linear_7831_45544)"/>
<path d="M441.339 308.05L439.459 307.975C439.272 307.968 439.091 307.911 438.933 307.811C438.776 307.711 438.648 307.571 438.563 307.405L437.7 305.733C437.615 305.567 437.574 305.381 437.583 305.193C437.592 305.006 437.65 304.823 437.751 304.665L438.77 303.068C438.871 302.91 439.012 302.78 439.178 302.693C439.344 302.606 439.53 302.564 439.717 302.571L441.598 302.646C441.784 302.654 441.965 302.71 442.123 302.811C442.28 302.911 442.408 303.051 442.493 303.217L443.356 304.889C443.442 305.055 443.482 305.241 443.473 305.429C443.464 305.616 443.406 305.799 443.305 305.957L442.286 307.554C442.185 307.712 442.044 307.842 441.878 307.929C441.712 308.016 441.526 308.058 441.339 308.05Z" fill="#F279C5"/>
<path d="M659.328 318.118L661.415 314.968C661.718 314.509 662.152 314.145 662.666 313.918L666.195 312.357C666.323 312.3 666.433 312.211 666.512 312.099C666.592 311.987 666.639 311.857 666.648 311.721C666.657 311.586 666.629 311.45 666.565 311.329C666.501 311.207 666.404 311.104 666.285 311.031L662.998 309.007C662.521 308.713 662.14 308.294 661.9 307.8L660.258 304.396C660.199 304.273 660.106 304.167 659.989 304.09C659.873 304.013 659.737 303.967 659.596 303.957C659.455 303.948 659.314 303.975 659.188 304.036C659.062 304.096 658.956 304.189 658.88 304.303L656.794 307.454C656.49 307.912 656.056 308.276 655.543 308.503L652.014 310.065C651.886 310.121 651.776 310.21 651.696 310.322C651.616 310.434 651.569 310.564 651.56 310.7C651.551 310.836 651.58 310.971 651.644 311.093C651.708 311.214 651.805 311.317 651.924 311.391L655.211 313.414C655.688 313.709 656.069 314.128 656.308 314.624L657.95 318.027C658.01 318.15 658.103 318.256 658.219 318.333C658.336 318.41 658.472 318.456 658.613 318.465C658.754 318.475 658.895 318.447 659.021 318.386C659.146 318.325 659.253 318.233 659.328 318.118Z" fill="url(#paint1_linear_7831_45544)"/>
<path d="M532.29 302.722C534.541 304.532 534.99 307.614 533.293 309.608C531.596 311.601 528.395 311.75 526.144 309.941C523.893 308.132 523.444 305.049 525.141 303.056C526.838 301.062 530.039 300.913 532.29 302.722Z" fill="url(#paint2_linear_7831_45544)"/>
<path d="M164.075 312.63L167.439 310.297C167.928 309.958 168.51 309.766 169.116 309.743L173.281 309.589C173.432 309.583 173.578 309.538 173.703 309.457C173.828 309.377 173.928 309.265 173.992 309.132C174.056 308.999 174.082 308.851 174.067 308.703C174.053 308.555 173.998 308.413 173.908 308.291L171.439 304.936C171.08 304.449 170.868 303.874 170.829 303.281L170.564 299.197C170.555 299.049 170.505 298.905 170.419 298.781C170.334 298.656 170.217 298.556 170.079 298.49C169.942 298.423 169.79 298.394 169.64 298.405C169.489 298.415 169.345 298.466 169.223 298.55L165.859 300.883C165.369 301.222 164.788 301.414 164.182 301.437L160.017 301.591C159.866 301.597 159.72 301.642 159.595 301.723C159.47 301.803 159.37 301.916 159.306 302.048C159.241 302.181 159.215 302.329 159.23 302.477C159.245 302.625 159.3 302.767 159.39 302.889L161.86 306.244C162.218 306.732 162.429 307.308 162.468 307.901L162.732 311.985C162.742 312.133 162.792 312.277 162.878 312.401C162.963 312.525 163.081 312.626 163.218 312.692C163.356 312.758 163.507 312.787 163.658 312.776C163.809 312.765 163.953 312.715 164.075 312.63Z" fill="url(#paint3_linear_7831_45544)"/>
<path d="M108.292 299.553C112.833 298.942 116.87 301.792 117.307 305.92C117.745 310.048 114.419 313.89 109.877 314.501C105.336 315.113 101.299 312.262 100.861 308.134C100.424 304.006 103.75 300.164 108.292 299.553Z" fill="#FFA800"/>
<path d="M220.909 298.16L218.078 296.662C217.797 296.513 217.561 296.293 217.393 296.024C217.226 295.754 217.132 295.445 217.123 295.127L217.031 291.928C217.022 291.61 217.097 291.295 217.248 291.013C217.4 290.732 217.623 290.495 217.895 290.326L220.633 288.625C220.905 288.456 221.216 288.36 221.536 288.349C221.855 288.337 222.172 288.409 222.453 288.558L225.284 290.056C225.565 290.205 225.801 290.425 225.969 290.694C226.136 290.963 226.229 291.272 226.239 291.59L226.331 294.79C226.34 295.108 226.265 295.424 226.113 295.705C225.962 295.986 225.738 296.223 225.466 296.392L222.728 298.094C222.456 298.262 222.145 298.357 221.826 298.369C221.506 298.381 221.19 298.308 220.909 298.16Z" fill="#1D62F6"/>
<path d="M20.2707 269.923L14.7563 269.765C14.2088 269.75 13.6796 269.588 13.2218 269.296C12.764 269.005 12.3938 268.594 12.1484 268.104L9.67766 263.176C9.43196 262.687 9.31984 262.136 9.35259 261.58C9.38534 261.024 9.5618 260.481 9.86422 260.007L12.9062 255.238C13.2083 254.764 13.6258 254.375 14.1166 254.11C14.6074 253.846 15.1543 253.715 15.7021 253.731L21.2158 253.888C21.7633 253.903 22.2925 254.065 22.7503 254.357C23.2081 254.648 23.5783 255.059 23.8237 255.549L26.2951 260.477C26.541 260.967 26.6531 261.518 26.6201 262.074C26.5872 262.631 26.4105 263.174 26.1076 263.648L23.0657 268.417C22.7634 268.891 22.346 269.279 21.8554 269.544C21.3648 269.808 20.8182 269.939 20.2707 269.923Z" fill="#F279C5"/>
<path d="M681.29 234.721C683.541 236.531 683.99 239.613 682.293 241.606C680.596 243.6 677.395 243.749 675.144 241.94C672.893 240.13 672.444 237.048 674.141 235.055C675.838 233.061 679.039 232.912 681.29 234.721Z" fill="url(#paint4_linear_7831_45544)"/>
<path d="M585.657 211.787C585.728 211.927 585.836 212.047 585.97 212.135C586.104 212.222 586.259 212.274 586.42 212.285C586.581 212.296 586.742 212.265 586.887 212.197C587.031 212.128 587.154 212.024 587.244 211.894L589.158 209.126L591.072 206.358C591.162 206.228 591.214 206.078 591.224 205.923C591.235 205.767 591.203 205.611 591.131 205.471C591.06 205.331 590.952 205.211 590.818 205.124C590.684 205.036 590.53 204.985 590.369 204.974L583.495 204.508C583.334 204.497 583.174 204.527 583.03 204.596C582.885 204.664 582.762 204.768 582.673 204.898C582.583 205.027 582.53 205.177 582.519 205.333C582.509 205.488 582.54 205.644 582.611 205.784L584.134 208.786L585.657 211.787Z" fill="url(#paint5_linear_7831_45544)"/>
<path d="M96.1783 218.185L96.1443 213.425C96.1392 212.732 96.3391 212.043 96.7202 211.438L99.3397 207.279C99.4346 207.128 99.4872 206.957 99.492 206.784C99.4969 206.611 99.4538 206.443 99.3672 206.296C99.2806 206.149 99.1538 206.03 99 205.951C98.8462 205.871 98.671 205.834 98.4929 205.844L93.5836 206.123C92.8699 206.164 92.1698 206.005 91.5659 205.667L87.4136 203.334C87.263 203.249 87.0895 203.207 86.9115 203.211C86.7335 203.215 86.5574 203.266 86.4017 203.357C86.2461 203.449 86.1166 203.579 86.0268 203.732C85.937 203.886 85.8902 204.058 85.8914 204.231L85.9254 208.991C85.9302 209.683 85.7306 210.372 85.3503 210.977L82.7307 215.136C82.6356 215.287 82.5827 215.458 82.5777 215.631C82.5728 215.804 82.6159 215.973 82.7025 216.12C82.7891 216.266 82.9161 216.386 83.07 216.465C83.224 216.545 83.3993 216.581 83.5776 216.571L88.4869 216.292C89.201 216.252 89.9013 216.411 90.5051 216.751L94.6573 219.084C94.8081 219.168 94.9817 219.211 95.1597 219.206C95.3377 219.202 95.5137 219.151 95.6693 219.059C95.8248 218.967 95.9541 218.837 96.0437 218.683C96.1332 218.53 96.1798 218.357 96.1783 218.185Z" fill="url(#paint6_linear_7831_45544)"/>
<path d="M638.33 202.119L640.416 198.969C640.72 198.51 641.154 198.146 641.667 197.919L645.197 196.357C645.325 196.301 645.435 196.212 645.514 196.1C645.594 195.988 645.641 195.858 645.65 195.722C645.659 195.587 645.631 195.451 645.567 195.33C645.503 195.208 645.406 195.105 645.287 195.032L642 193.008C641.523 192.714 641.141 192.295 640.902 191.801L639.26 188.397C639.201 188.274 639.108 188.168 638.991 188.091C638.875 188.013 638.739 187.968 638.598 187.958C638.457 187.948 638.316 187.976 638.19 188.036C638.064 188.097 637.958 188.19 637.882 188.304L635.796 191.455C635.492 191.913 635.058 192.277 634.545 192.504L631.016 194.066C630.888 194.122 630.778 194.211 630.698 194.323C630.618 194.435 630.571 194.565 630.562 194.701C630.553 194.836 630.582 194.972 630.646 195.094C630.71 195.215 630.806 195.318 630.926 195.391L634.213 197.415C634.69 197.71 635.071 198.129 635.31 198.624L636.952 202.028C637.012 202.151 637.105 202.257 637.221 202.334C637.338 202.411 637.474 202.457 637.615 202.466C637.756 202.475 637.897 202.448 638.022 202.387C638.148 202.326 638.255 202.234 638.33 202.119Z" fill="url(#paint7_linear_7831_45544)"/>
<path d="M40.2667 166.758C40.0002 166.802 39.7484 166.917 39.5367 167.091C39.325 167.265 39.1607 167.493 39.0605 167.75C38.9603 168.007 38.9276 168.285 38.9658 168.557C39.0039 168.828 39.1116 169.083 39.2779 169.296L42.8297 173.842L46.3822 178.388C46.5486 178.6 46.7676 178.763 47.0172 178.859C47.2667 178.956 47.5381 178.984 47.8041 178.939C48.0701 178.894 48.3214 178.78 48.5328 178.606C48.7442 178.432 48.9083 178.205 49.0086 177.948L53.2903 166.958C53.3901 166.701 53.4225 166.423 53.3844 166.153C53.3463 165.882 53.2389 165.627 53.0731 165.415C52.9072 165.202 52.6887 165.039 52.4394 164.942C52.1901 164.844 51.9188 164.816 51.6527 164.86L45.9591 165.809L40.2667 166.758Z" fill="#1D62F6"/>
<defs>
<linearGradient id="paint0_linear_7831_45544" x1="346.058" y1="311.946" x2="337.094" y2="308.408" gradientUnits="userSpaceOnUse">
<stop stop-color="#0AE799"/>
<stop offset="1" stop-color="#1D62F6"/>
</linearGradient>
<linearGradient id="paint1_linear_7831_45544" x1="654.283" y1="320.254" x2="664.301" y2="300.99" gradientUnits="userSpaceOnUse">
<stop stop-color="#F279C5"/>
<stop offset="1" stop-color="#FD9B41"/>
</linearGradient>
<linearGradient id="paint2_linear_7831_45544" x1="526.144" y1="309.941" x2="532.081" y2="302.554" gradientUnits="userSpaceOnUse">
<stop stop-color="#0AE799"/>
</linearGradient>
<linearGradient id="paint3_linear_7831_45544" x1="161.085" y1="307.672" x2="176.753" y2="304.361" gradientUnits="userSpaceOnUse">
<stop stop-color="#F279C5"/>
<stop offset="1" stop-color="#FD9B41"/>
</linearGradient>
<linearGradient id="paint4_linear_7831_45544" x1="675.144" y1="241.94" x2="681.081" y2="234.553" gradientUnits="userSpaceOnUse">
<stop stop-color="#0AE799"/>
</linearGradient>
<linearGradient id="paint5_linear_7831_45544" x1="582.101" y1="211.499" x2="590.279" y2="203.947" gradientUnits="userSpaceOnUse">
<stop offset="0.0104167" stop-color="#FD9B41"/>
<stop offset="0.354167" stop-color="#F279C5"/>
<stop offset="0.6875" stop-color="#1D62F6"/>
<stop offset="1" stop-color="#0AE799"/>
</linearGradient>
<linearGradient id="paint6_linear_7831_45544" x1="87.3358" y1="223.97" x2="95.5877" y2="201.747" gradientUnits="userSpaceOnUse">
<stop stop-color="#0AE799"/>
<stop offset="1" stop-color="#1D62F6"/>
</linearGradient>
<linearGradient id="paint7_linear_7831_45544" x1="629.896" y1="204.522" x2="645.692" y2="183.117" gradientUnits="userSpaceOnUse">
<stop stop-color="#0AE799"/>
<stop offset="1" stop-color="#1D62F6"/>
</linearGradient>
</defs>
</svg>
