<svg width="149" height="127" viewBox="0 0 149 127" fill="none" xmlns="http://www.w3.org/2000/svg">
<path d="M54.4377 12.9033C87.3661 0.287316 123.323 12.8559 134.749 40.9761C146.175 69.0963 128.745 102.119 95.8161 114.735C62.8878 127.351 26.9312 114.783 15.5048 86.6627C4.07849 58.5425 21.5093 25.5193 54.4377 12.9033Z" fill="white"/>
<path d="M0.00628156 73.8197C0.201099 68.03 1.11234 62.3942 2.72744 56.8768C3.48157 54.2898 4.63791 51.7975 5.76282 49.3289C7.15797 46.2624 8.4337 43.0952 10.275 40.2714C12.3489 37.0806 14.8752 34.1265 17.4267 31.2495C19.6514 28.7394 22.0709 26.3596 24.6224 24.1456C26.7717 22.2808 29.1912 20.6824 31.5604 19.0544C33.5526 17.6869 35.6013 16.3668 37.7129 15.1709C43.6768 11.7966 49.9235 8.95502 56.4656 6.72913C60.274 5.43267 64.0949 4.15988 67.9912 3.14758C72.1138 2.07607 76.2993 1.08744 80.5224 0.513211C84.2491 0.0040973 88.07 -0.00774258 91.8532 0.00409761C95.8564 0.0159378 99.9476 -0.12614 103.831 0.596091C108.004 1.3716 112.001 3.0351 116.048 4.38484C120.328 5.81154 124.08 8.0848 127.649 10.7192C130.49 12.8148 133.18 14.9638 135.26 17.8112C136.598 19.6464 138.521 21.0968 139.942 22.8905C142.104 25.6196 143.97 28.5263 144.9 31.8947C145.705 34.8014 146.911 37.6312 147.445 40.5793C148.105 44.2023 148.306 47.8963 148.608 51.5726C148.778 53.6505 148.759 55.7461 148.784 57.8359C148.834 61.6424 148.646 65.4607 148.947 69.2495C149.337 74.1808 147.483 78.6799 146.163 83.2383C144.548 88.8089 142.009 94.0362 137.334 98.0973C133.852 101.122 130.66 104.443 127.071 107.344C123.583 110.162 119.907 112.82 116.036 115.153C113.384 116.745 110.336 117.822 107.351 118.841C101.783 120.735 96.202 122.683 90.4832 124.109C85.9081 125.252 81.1508 125.88 76.4312 126.329C71.3974 126.815 66.3007 127.117 61.248 126.957C56.6039 126.809 51.9408 126.152 47.372 125.323C43.2243 124.565 39.0452 123.606 35.13 122.138C29.6751 120.09 24.4276 117.509 19.9153 113.868C17.1628 111.642 14.3285 109.434 11.9781 106.853C9.90426 104.574 8.47769 101.774 6.71177 99.2398C4.16029 95.5932 3.07937 91.4255 2.16813 87.2638C1.20032 82.8357 0.703847 78.3129 -9.00605e-06 73.8374L0.00628156 73.8197ZM92.9844 2.4431L92.9153 3.19494C89.5029 3.19494 86.0653 2.9463 82.6842 3.26006C79.0267 3.59749 75.3817 4.30789 71.8059 5.13075C67.5262 6.11346 63.2465 7.17313 59.1114 8.58207C54.9573 10.0029 50.929 11.7907 46.9447 13.6022C43.4191 15.2005 39.7993 16.7634 36.6131 18.865C32.2454 21.7421 28.0977 24.9684 24.1196 28.3191C19.8839 31.8947 16.0756 35.8788 13.3041 40.6444C9.89798 46.5051 6.95686 52.5612 5.19722 59.0435C4.21685 62.6606 3.26162 66.325 3.33703 70.1138C3.38102 72.3101 3.38102 74.5182 3.5884 76.7027C3.88377 79.8639 4.08487 83.0607 4.80129 86.145C5.54286 89.318 6.70548 92.4319 7.97493 95.4629C9.00558 97.9197 10.2876 100.329 11.7833 102.561C13.9451 105.793 16.9994 108.333 20.0913 110.76C22.0458 112.293 24.2516 113.548 26.3695 114.892C27.5572 115.644 28.7701 116.372 30.0207 117.017C32.4025 118.243 34.7717 119.527 37.2541 120.546C38.8629 121.209 40.6477 121.546 42.3885 121.866C48.6415 123.02 54.8065 124.66 61.2103 124.956C62.7689 125.027 64.34 124.909 65.9048 124.832C69.1539 124.672 72.4155 124.607 75.6457 124.269C78.5114 123.967 81.3771 123.506 84.1674 122.837C88.4785 121.801 92.7645 120.64 96.9813 119.314C99.6899 118.462 102.285 117.29 104.875 116.135C108.142 114.685 111.549 113.394 114.527 111.512C118.009 109.31 121.095 106.545 124.35 104.029C125.198 103.372 126.141 102.804 126.895 102.064C128.988 100.009 130.993 97.8723 133.048 95.7885C135.436 93.3673 137.667 90.8691 138.854 87.6664C139.294 86.4883 140.256 85.4819 140.646 84.2979C141.645 81.2788 142.518 78.2182 143.323 75.1457C143.725 73.5947 144.071 71.9845 144.071 70.4039C144.064 65.0937 143.788 59.7835 143.8 54.4734C143.813 48.9856 143.838 43.4978 142.355 38.1521C141.45 34.8843 140.639 31.504 139.068 28.5085C137.591 25.6966 135.14 23.3464 133.186 20.7475C129.66 16.0649 125.104 12.3472 119.806 9.7483C114.666 7.22641 109.393 4.71636 103.435 4.05333C99.935 3.66261 96.466 2.99366 92.9844 2.4431V2.4431Z" fill="url(#paint0_linear_10182_101408)"/>
<path d="M126.785 115.902L132.534 109.329C133.37 108.373 134.475 107.673 135.718 107.313L144.258 104.833C144.568 104.742 144.846 104.572 145.063 104.341C145.28 104.11 145.428 103.825 145.492 103.517C145.555 103.21 145.532 102.89 145.424 102.591C145.317 102.293 145.129 102.027 144.88 101.821L138.022 96.1596C137.025 95.3367 136.288 94.2575 135.898 93.0495L133.224 84.7367C133.127 84.4351 132.948 84.1634 132.707 83.9499C132.465 83.7365 132.17 83.5891 131.851 83.5234C131.533 83.4576 131.203 83.4758 130.897 83.5761C130.591 83.6764 130.319 83.8551 130.11 84.0934L124.361 90.6661C123.525 91.6215 122.421 92.3213 121.179 92.683L112.639 95.1633C112.329 95.2532 112.05 95.4227 111.833 95.6541C111.616 95.8854 111.467 96.17 111.404 96.478C111.34 96.786 111.363 97.1061 111.471 97.4045C111.579 97.703 111.767 97.969 112.017 98.1744L118.875 103.836C119.872 104.66 120.608 105.741 120.997 106.95L123.671 115.263C123.768 115.565 123.947 115.836 124.189 116.049C124.431 116.262 124.727 116.409 125.045 116.475C125.363 116.54 125.693 116.521 125.999 116.421C126.305 116.32 126.577 116.141 126.785 115.902Z" fill="#FFC736"/>
<defs>
<linearGradient id="paint0_linear_10182_101408" x1="149" y1="118.745" x2="20.6868" y2="-19.2372" gradientUnits="userSpaceOnUse">
<stop offset="0.0104167" stop-color="#FD9B41"/>
<stop offset="0.354167" stop-color="#F279C5"/>
<stop offset="0.6875" stop-color="#1D62F6"/>
<stop offset="1" stop-color="#0AE799"/>
</linearGradient>
</defs>
</svg>
