<svg width="49" height="70" viewBox="0 0 49 70" fill="none" xmlns="http://www.w3.org/2000/svg">
<g opacity="0.2" clip-path="url(#clip0_10281_86329)">
<path d="M32.6658 15.7413L35.5205 20.0525C35.6574 20.2653 35.7354 20.5101 35.7468 20.7624L35.7468 25.9566C35.751 26.1925 35.8189 26.423 35.9433 26.6239C36.0678 26.8247 36.2442 26.9886 36.4542 27.0984C36.6642 27.2081 36.9 27.2597 37.1369 27.2477C37.3738 27.2357 37.6031 27.1605 37.8008 27.0301L42.2221 24.1386C42.436 24.0047 42.6831 23.9327 42.9358 23.9309L48.1578 23.8443C48.3935 23.8371 48.623 23.7675 48.8226 23.6425C49.0221 23.5174 49.1844 23.3417 49.2927 23.1333C49.401 22.9249 49.4513 22.6916 49.4385 22.4574C49.4256 22.2232 49.3501 21.9967 49.2197 21.8012L46.3475 17.4901C46.2107 17.2773 46.1327 17.0325 46.1213 16.7802L46.1213 11.586C46.1171 11.3501 46.0492 11.1196 45.9248 10.9187C45.8003 10.7178 45.6239 10.554 45.4139 10.4442C45.2039 10.3345 44.9681 10.2829 44.7312 10.2949C44.4942 10.3069 44.2649 10.3821 44.0673 10.5125L39.6634 13.3174C39.4747 13.4748 39.2456 13.5768 39.0019 13.6117L33.7799 13.6117C33.5253 13.5971 33.2719 13.656 33.0502 13.7813C32.8284 13.9066 32.6479 14.093 32.5302 14.318C32.4125 14.543 32.3626 14.7971 32.3867 15.0496C32.4108 15.3021 32.5077 15.5423 32.6658 15.7413Z" fill="white"/>
<path d="M24.0006 49.1681L26.5246 53.2023C26.7926 53.6223 27.1668 53.9649 27.6097 54.1959C28.0527 54.4268 28.5489 54.5379 29.0486 54.5181L33.8354 54.3277C34.3245 54.2998 34.798 54.1464 35.2098 53.8824C35.6217 53.6184 35.9577 53.2529 36.1853 52.8214L38.4656 48.6141C38.6973 48.1755 38.8095 47.6842 38.7912 47.1891C38.7728 46.6941 38.6246 46.2124 38.3612 45.7919L35.8024 41.7577C35.5398 41.3327 35.1667 40.986 34.7224 40.7544C34.2782 40.5228 33.7793 40.4148 33.2784 40.4419L28.4916 40.615C27.9951 40.6408 27.5136 40.7928 27.093 41.0566C26.6724 41.3203 26.3269 41.6869 26.0894 42.1213L23.8614 46.3459C23.6349 46.7875 23.5286 47.2804 23.553 47.7755C23.5774 48.2706 23.7318 48.7507 24.0006 49.1681Z" fill="white"/>
<path d="M23.5346 65.7245L21.6721 67.8021L19.7922 69.8798C19.5623 70.1063 19.4004 70.3921 19.3248 70.7051C19.2492 71.018 19.2627 71.3458 19.364 71.6515C19.4652 71.9572 19.6501 72.2288 19.898 72.4358C20.1458 72.6427 20.4467 72.7769 20.7669 72.8232L23.5172 73.3946L26.2675 74.0005C26.5804 74.0854 26.9109 74.0816 27.2218 73.9896C27.5327 73.8976 27.8115 73.721 28.0269 73.4798C28.2423 73.2386 28.3856 72.9423 28.4407 72.6244C28.4959 72.3064 28.4606 71.9795 28.3389 71.6805L27.4511 69.0314L26.5808 66.3824C26.5014 66.07 26.336 65.7859 26.1031 65.562C25.8702 65.3381 25.5791 65.1832 25.2626 65.1149C24.9461 65.0465 24.6167 65.0673 24.3114 65.175C24.0061 65.2827 23.7371 65.473 23.5346 65.7245Z" fill="white"/>
<path d="M1.0844 50.7887C-0.628542 52.6255 -0.291672 55.7065 1.83682 57.6704C3.96532 59.6344 7.07942 59.7375 8.79236 57.9008C10.5053 56.064 10.1684 52.983 8.03994 51.019C5.91144 49.0551 2.79734 48.952 1.0844 50.7887Z" fill="white"/>
</g>
<defs>
<clipPath id="clip0_10281_86329">
<rect width="49" height="74" fill="white" transform="translate(49 74) rotate(-180)"/>
</clipPath>
</defs>
</svg>
