<svg width="36" height="37" viewBox="0 0 36 37" fill="none" xmlns="http://www.w3.org/2000/svg">
<path d="M1.27706 30.1889L6.01797 31.9409C6.24868 32.0299 6.45062 32.1779 6.60346 32.3699L9.56214 36.4689C9.69985 36.6529 9.88545 36.7949 10.0995 36.8819C10.3135 36.9689 10.5482 36.9959 10.7788 36.9609C11.0094 36.9259 11.2275 36.8309 11.4103 36.6839C11.5931 36.5379 11.7339 36.3459 11.8178 36.1289L13.7101 31.2919C13.805 31.0619 13.9619 30.8629 14.1631 30.7149L18.2941 27.6289C18.4787 27.4869 18.6227 27.2989 18.7112 27.0849C18.7997 26.8709 18.8295 26.6389 18.7975 26.4119C18.7655 26.1839 18.6729 25.9709 18.5292 25.7939C18.3855 25.6159 18.196 25.4809 17.9803 25.4029L13.2255 23.6609C12.9948 23.5719 12.7928 23.4239 12.64 23.2309L9.68129 19.1319C9.54358 18.9489 9.35798 18.8059 9.14393 18.7189C8.92988 18.6329 8.69527 18.6049 8.46465 18.6399C8.23403 18.6749 8.01589 18.7709 7.83309 18.9169C7.65029 19.0629 7.50954 19.2549 7.42559 19.4719L5.49791 24.2309C5.43657 24.4649 5.31125 24.6769 5.13606 24.8459L0.955791 27.8639C0.743676 27.9999 0.574377 28.1929 0.468268 28.4199C0.362159 28.6469 0.323765 28.8979 0.357709 29.1439C0.391653 29.3899 0.49649 29.6189 0.659596 29.8039C0.822702 29.9899 1.03713 30.1229 1.27706 30.1889Z" fill="#7B61FF"/>
<path d="M7.37696 2.14085L7.0322 5.33115L6.67117 8.53315C6.60853 8.89905 6.64927 9.27425 6.78882 9.61655C6.92838 9.95885 7.16121 10.2547 7.46119 10.4709C7.76116 10.6871 8.1164 10.8151 8.48702 10.8405C8.85764 10.8659 9.22897 10.7877 9.55931 10.6147L12.5132 9.29075L15.4903 7.99905C15.8397 7.86685 16.1461 7.64035 16.3748 7.34495C16.6034 7.04955 16.7454 6.69705 16.7846 6.32725C16.8238 5.95745 16.7587 5.58495 16.5967 5.25195C16.4346 4.91885 16.182 4.63845 15.8674 4.44225L13.2583 2.57585L10.6655 0.697849C10.3815 0.460749 10.036 0.307949 9.66797 0.256649C9.29993 0.205449 8.92391 0.25765 8.5822 0.40765C8.24049 0.55755 7.94665 0.79925 7.73373 1.10545C7.52081 1.41165 7.39725 1.77025 7.37696 2.14085Z" fill="#7B61FF"/>
<path d="M30.0869 34.887C32.8151 35.334 35.4222 33.142 35.91 29.991C36.3979 26.841 34.5817 23.925 31.8535 23.478C29.1253 23.032 26.5182 25.224 26.0304 28.375C25.5425 31.525 27.3587 34.441 30.0869 34.887Z" fill="url(#paint0_linear_13102_34874)"/>
<defs>
<linearGradient id="paint0_linear_13102_34874" x1="29.9493" y1="35.776" x2="31.9112" y2="23.786" gradientUnits="userSpaceOnUse">
<stop stop-color="#6596FF"/>
<stop offset="1" stop-color="#7B61FF"/>
</linearGradient>
</defs>
</svg>
