<svg width="18" height="19" viewBox="0 0 18 19" fill="none" xmlns="http://www.w3.org/2000/svg">
<path d="M9.8221 18.0117L12.0461 13.946C12.3694 13.3546 12.8557 12.8683 13.4472 12.5449L17.513 10.321C17.6605 10.2402 17.7835 10.1212 17.8691 9.9765C17.9548 9.83181 18 9.66676 18 9.49861C18 9.33046 17.9548 9.1654 17.8691 9.02071C17.7835 8.87602 17.6605 8.75702 17.513 8.67617L13.4472 6.45229C12.8561 6.12912 12.3699 5.6435 12.0461 5.05283L9.8221 0.987095C9.74136 0.839642 9.62244 0.716614 9.47781 0.630917C9.33317 0.545218 9.16815 0.5 9.00003 0.5C8.83192 0.5 8.66689 0.545218 8.52226 0.630917C8.37763 0.716614 8.2587 0.839642 8.17796 0.987095L5.954 5.05283C5.63047 5.64387 5.14459 6.13002 4.55371 6.45388L0.487838 8.67776C0.340185 8.75844 0.216971 8.87737 0.131134 9.02208C0.0452977 9.16679 0 9.33195 0 9.5002C0 9.66845 0.0452977 9.8336 0.131134 9.97832C0.216971 10.123 0.340185 10.242 0.487838 10.3226L4.55371 12.5465C5.14486 12.8704 5.63081 13.3569 5.954 13.9484L8.17796 18.0141C8.25892 18.1614 8.37802 18.2843 8.52277 18.3698C8.66753 18.4553 8.83262 18.5002 9.00074 18.5C9.16885 18.4998 9.33381 18.4543 9.47832 18.3684C9.62283 18.2825 9.74157 18.1593 9.8221 18.0117Z" fill="white"/>
</svg>
