<svg width="25" height="34" viewBox="0 0 25 34" fill="none" xmlns="http://www.w3.org/2000/svg">
<path d="M3.90932 15.8L10.0313 16.8849C10.3303 16.942 10.6073 17.0776 10.8333 17.278L15.2993 21.6106C15.5063 21.8037 15.7613 21.9363 16.0393 21.9944C16.3173 22.0525 16.6083 22.0339 16.8803 21.9408C17.1523 21.8476 17.3963 21.6832 17.5863 21.4648C17.7763 21.2463 17.9053 20.9819 17.9603 20.6993L19.2163 14.3983C19.2823 14.0984 19.4293 13.821 19.6413 13.5972L23.9863 8.9315C24.1793 8.7182 24.3133 8.4582 24.3753 8.17842C24.4363 7.89864 24.4223 7.60924 24.3353 7.34019C24.2473 7.07114 24.0893 6.83222 23.8773 6.64815C23.6653 6.46409 23.4063 6.34159 23.1283 6.29332L16.9903 5.22366C16.6923 5.16657 16.4153 5.03099 16.1893 4.83059L11.7233 0.497956C11.5163 0.304827 11.2613 0.172278 10.9833 0.114193C10.7053 0.056109 10.4143 0.0746279 10.1423 0.167804C9.87032 0.260981 9.62633 0.425392 9.43633 0.643815C9.24633 0.862238 9.11733 1.12664 9.06133 1.40932L7.74632 7.62279C7.72232 7.92005 7.61632 8.20659 7.44032 8.45015L3.02031 13.0436C2.79231 13.2554 2.6293 13.5274 2.5493 13.827C2.4693 14.1265 2.47633 14.4408 2.57033 14.7321C2.66433 15.0233 2.84032 15.279 3.07832 15.4685C3.31532 15.658 3.60432 15.7731 3.90932 15.8Z" fill="#7B61FF"/>
<path d="M8.56881 33.1765C10.8568 31.6285 11.2608 28.2323 9.47182 25.5909C7.68282 22.9494 4.3778 22.0631 2.0898 23.6111C-0.198199 25.1591 -0.602183 28.5554 1.18682 31.1968C2.97582 33.8382 6.28081 34.7246 8.56881 33.1765Z" fill="url(#paint0_linear_13102_34873)"/>
<defs>
<linearGradient id="paint0_linear_13102_34873" x1="9.07281" y1="33.9215" x2="2.25982" y2="23.8518" gradientUnits="userSpaceOnUse">
<stop stop-color="#6596FF"/>
<stop offset="1" stop-color="#7B61FF"/>
</linearGradient>
</defs>
</svg>
