<svg width="926" height="89" viewBox="0 0 926 89" fill="none" xmlns="http://www.w3.org/2000/svg">
<path d="M0 35.1121C5.25749 31.9809 11.7251 30.5948 18.0298 29.7833C31.0506 28.1075 43.5837 25.9495 56.7886 25.4566C78.1437 24.6593 98.9068 23.3054 120.271 24.9556C148.774 27.1571 177.323 29.1919 205.778 31.7873C227.605 33.7782 249.914 35.3415 270.988 40.8507C283.017 43.9956 294.472 48.0395 306.291 51.5082C317.027 54.6587 326.891 60.4882 337.439 64.2607C356.39 71.0388 376.389 76.6312 396.549 80.1103C422.986 84.6727 449.856 86.0802 476.765 87.2153C500.267 88.2068 523.741 86.5606 546.887 83.0252C586.365 76.9954 624.217 63.6663 662.678 54.1498C678.093 50.3356 692.398 45.3738 708.238 42.718C742.266 37.0129 776.276 29.0403 809.508 20.6288C837.524 13.5376 864.68 7.70321 893.719 4.32378C904.259 3.09722 915.325 1.5 926 1.5" stroke="#A9A9A9" stroke-width="3" stroke-dasharray="6 6"/>
</svg>
