<svg width="339" height="281" viewBox="0 0 339 281" fill="none" xmlns="http://www.w3.org/2000/svg">
<g clip-path="url(#clip0_10218_106869)">
<path d="M87.1197 47.3554C89.5418 46.6085 92.523 46.5151 94.293 45.0213C100.907 39.6064 109.012 41.5669 116.372 40.1665C120.564 39.3263 125.129 40.6333 129.228 39.7931C134.725 38.6727 137.985 41.7537 141.898 44.7412C139.29 50.623 139.569 56.7849 141.712 62.8534C142.923 66.2144 144.6 68.455 148.978 68.0816C158.853 67.2414 167.797 64.1604 175.622 58.1853C179.442 55.2911 183.355 55.7579 187.454 56.7849C188.385 56.9716 189.224 57.9986 189.783 58.9322C194.254 67.148 199.471 74.6169 206.738 80.592C209.067 82.4593 211.303 84.4199 213.632 86.3805C218.569 90.395 218.663 95.4365 213.632 99.9179C209.626 103.466 206.086 107.013 204.036 112.055C202.918 114.762 201.055 117.283 200.403 120.084C199.192 125.312 202.546 130.54 207.763 131.661C215.309 133.341 222.855 134.555 230.401 136.049C233.568 136.702 235.152 139.13 235.152 142.117C235.152 146.972 234.407 151.827 234.313 156.682C234.22 162.003 234.779 167.418 234.5 172.74C234.313 176.007 233.661 179.368 232.45 182.356C231.984 183.476 229.376 184.503 227.885 184.317C219.501 183.57 212.141 184.597 206.179 191.786C204.316 194.026 200.683 195.8 201.521 198.788C202.918 204.016 205.341 208.964 207.949 213.726C208.974 215.593 211.862 216.433 213.725 218.02C215.495 219.514 218.29 221.101 218.476 222.782C218.756 227.17 216.147 230.437 212.607 233.145C209.067 235.852 205.713 238.746 202.639 241.921C198.26 246.309 194.441 251.163 190.062 255.458C187.081 258.352 180.56 255.458 178.138 251.444C174.039 244.441 165.095 242.668 159.04 248.643C154.009 253.591 151.587 259.566 151.401 266.288C151.401 269.649 152.518 273.01 150.748 276.091C150.189 277.025 148.792 277.678 147.581 278.145C140.594 280.666 133.327 276.838 126.433 278.705C120.005 280.386 113.764 280.199 107.336 279.919C103.889 279.732 100.907 276.838 100.628 273.477C100.255 268.529 100.069 263.394 98.8579 258.632C98.2058 256.298 95.2246 254.711 93.5478 252.564C89.8213 248.083 84.6043 245.935 79.4805 244.068C77.431 243.321 74.4498 244.722 72.1208 245.749C63.2705 249.483 54.6998 254.338 44.8247 255.085C43.3342 255.178 41.2846 254.431 40.2599 253.311C38.1172 251.163 36.6266 248.456 34.6702 246.122C31.2233 242.201 27.59 238.373 24.0499 234.545C20.9756 231.277 17.5287 228.57 18.5534 222.875C19.2987 218.954 22.2799 218.487 24.5157 217.553C30.8506 214.846 34.8566 207.003 34.5771 200.001C34.1113 191.599 27.9627 187.958 22.8388 183.29C21.3483 181.983 19.7645 180.676 17.9945 179.742C16.5039 178.902 14.4544 177.875 13.057 178.155C8.67842 179.275 6.3494 175.541 2.99562 174.327C2.71614 174.234 2.62297 173.393 2.52981 172.833C1.87769 164.431 1.31873 155.935 0.573441 147.532C0.200798 143.051 4.48619 138.103 8.86474 137.916C11.3801 137.823 13.9886 137.636 16.3176 136.702C21.2551 134.742 26.2858 133.061 30.5712 129.233C34.2976 125.966 35.7882 122.605 35.5087 118.123C34.9497 110.935 33.5523 104.026 27.1242 99.3577C25.5405 98.2374 24.0499 96.6502 23.0252 95.0631C20.2303 90.1149 20.3235 88.9012 26.0063 84.4199C31.6891 79.8452 37.2787 75.4572 40.912 68.8285C41.6573 67.5214 44.6384 66.4945 46.2221 66.8679C50.6939 67.8949 54.7929 70.0422 59.2646 70.9758C63.6432 71.9094 68.2081 71.8161 72.6798 72.0028C73.7045 72.0028 74.9156 71.2559 75.8472 71.4426C80.0395 72.1895 82.8343 69.6687 84.418 66.6812C86.4675 62.8534 87.4923 58.4654 88.6102 54.2641C89.076 52.5836 88.6102 50.7164 88.6102 48.9425L87.2128 47.3554H87.1197ZM52.6502 155.188C53.116 187.958 71.8413 213.912 102.212 219.327C106.311 220.074 110.317 221.288 114.416 221.661C122.055 222.315 130.16 224.089 137.426 222.501C162.58 217.18 176.368 199.908 182.05 175.541C186.615 155.748 182.423 137.356 171.616 120.457C169.287 116.816 167.052 113.082 164.164 110.001C153.077 98.5174 139.383 91.7021 123.825 88.6211C110.224 85.9136 97.181 87.9676 85.8154 95.3432C63.4569 110.001 53.3955 131.661 52.7434 155.188H52.6502Z" fill="#89AFFF"/>
<path d="M114.228 130.821C130.158 130.167 142.269 142.118 143.853 157.522C144.971 167.979 133.419 183.01 124.755 184.037C105.657 186.371 88.7949 172.927 88.7949 158.829C88.7949 144.732 99.9742 130.448 114.228 130.821Z" fill="#89AFFF"/>
</g>
<g clip-path="url(#clip1_10218_106869)">
<path d="M254.784 5.12336C256.157 4.70395 257.847 4.65152 258.85 3.81271C262.6 0.771995 267.195 1.87294 271.368 1.08655C273.744 0.614717 276.332 1.34868 278.656 0.876847C281.772 0.247734 283.621 1.97779 285.839 3.65543C284.36 6.95827 284.519 10.4184 285.733 13.8261C286.42 15.7134 287.371 16.9716 289.853 16.7619C295.451 16.2901 300.522 14.56 304.958 11.2048C307.124 9.57957 309.342 9.8417 311.666 10.4184C312.194 10.5232 312.669 11.0999 312.986 11.6242C315.521 16.2377 318.479 20.4318 322.599 23.787C323.919 24.8356 325.187 25.9365 326.507 27.0375C329.306 29.2918 329.359 32.1228 326.507 34.6392C324.236 36.6314 322.229 38.6236 321.067 41.4546C320.433 42.975 319.377 44.3905 319.007 45.9633C318.321 48.8991 320.222 51.835 323.18 52.4641C327.458 53.4078 331.736 54.0893 336.014 54.9281C337.809 55.2951 338.707 56.6582 338.707 58.3358C338.707 61.062 338.285 63.7881 338.232 66.5143C338.179 69.5026 338.496 72.5433 338.338 75.5316C338.232 77.3665 337.862 79.2538 337.176 80.9314C336.912 81.5606 335.433 82.1372 334.588 82.0324C329.834 81.613 325.662 82.1897 322.282 86.2265C321.225 87.4847 319.166 88.4808 319.641 90.1584C320.433 93.0943 321.806 95.8729 323.285 98.5466C323.866 99.5951 325.503 100.067 326.56 100.958C327.563 101.797 329.148 102.688 329.253 103.632C329.412 106.096 327.933 107.931 325.926 109.451C323.919 110.972 322.018 112.597 320.275 114.379C317.792 116.843 315.627 119.569 313.145 121.981C311.455 123.606 307.757 121.981 306.384 119.727C304.06 115.795 298.99 114.799 295.557 118.154C292.705 120.933 291.332 124.288 291.226 128.062C291.226 129.95 291.86 131.837 290.856 133.567C290.54 134.091 289.747 134.458 289.061 134.721C285.1 136.136 280.98 133.987 277.072 135.035C273.427 135.979 269.889 135.874 266.244 135.717C264.29 135.612 262.6 133.987 262.442 132.099C262.23 129.321 262.125 126.437 261.438 123.764C261.069 122.453 259.378 121.562 258.428 120.356C256.315 117.839 253.357 116.634 250.453 115.585C249.291 115.166 247.601 115.952 246.28 116.529C241.263 118.626 236.404 121.352 230.805 121.771C229.96 121.824 228.798 121.404 228.217 120.775C227.003 119.569 226.158 118.049 225.048 116.738C223.094 114.537 221.034 112.387 219.027 110.238C217.285 108.403 215.33 106.882 215.911 103.684C216.334 101.482 218.024 101.22 219.292 100.696C222.883 99.1757 225.154 94.7719 224.996 90.84C224.731 86.1216 221.246 84.077 218.341 81.4557C217.496 80.7217 216.598 79.9878 215.594 79.4635C214.749 78.9917 213.587 78.415 212.795 78.5723C210.313 79.2014 208.992 77.1043 207.091 76.4228C206.933 76.3704 206.88 75.8985 206.827 75.584C206.457 70.8656 206.14 66.0949 205.718 61.3765C205.507 58.8601 207.936 56.0815 210.419 55.9766C211.845 55.9242 213.323 55.8194 214.644 55.2951C217.443 54.1942 220.295 53.2505 222.725 51.101C224.837 49.2661 225.682 47.3788 225.524 44.8623C225.207 40.8255 224.415 36.946 220.77 34.3247C219.872 33.6956 219.027 32.8043 218.446 31.9131C216.862 29.1345 216.915 28.453 220.137 25.9365C223.358 23.3676 226.527 20.9036 228.587 17.1814C229.01 16.4474 230.7 15.8707 231.598 16.0804C234.133 16.6571 236.457 17.8629 238.992 18.3872C241.474 18.9114 244.062 18.859 246.597 18.9638C247.178 18.9638 247.865 18.5444 248.393 18.6493C250.77 19.0687 252.354 17.6532 253.252 15.9756C254.414 13.8261 254.995 11.3621 255.629 9.00289C255.893 8.05922 255.629 7.0107 255.629 6.0146L254.836 5.12336H254.784ZM235.242 65.6755C235.506 84.077 246.122 98.6515 263.34 101.692C265.663 102.112 267.935 102.793 270.258 103.003C274.589 103.37 279.184 104.366 283.304 103.475C297.564 100.486 305.381 90.7875 308.602 77.1043C311.19 65.99 308.814 55.6621 302.687 46.173C301.367 44.1283 300.099 42.0313 298.462 40.3012C292.177 33.8528 284.413 30.0257 275.593 28.2957C267.882 26.7753 260.488 27.9287 254.044 32.0704C241.368 40.3012 235.664 52.4641 235.295 65.6755H235.242Z" fill="#6596FF"/>
</g>
<defs>
<clipPath id="clip0_10218_106869">
<rect width="234.858" height="240.406" fill="white" transform="translate(0.291016 39.6064)"/>
</clipPath>
<clipPath id="clip1_10218_106869">
<rect width="133.148" height="134.997" fill="white" transform="translate(205.561 0.771484)"/>
</clipPath>
</defs>
</svg>
