<svg width="686" height="235" viewBox="0 0 686 235" fill="none" xmlns="http://www.w3.org/2000/svg">
<rect x="333.426" y="22.0249" width="32.5598" height="139.044" rx="2.65794" fill="#F8F8F8"/>
<rect x="292.727" y="45.2819" width="32.5598" height="113.959" rx="2.65794" transform="rotate(-90 292.727 45.2819)" fill="#F8F8F8"/>
<path d="M664.842 32.517L670.413 42.4737C671.222 43.9216 672.439 45.1121 673.92 45.9027L684.094 51.3507C684.465 51.546 684.775 51.8361 684.992 52.1901C685.208 52.544 685.322 52.9487 685.322 53.361C685.322 53.7733 685.208 54.1781 684.992 54.532C684.775 54.8859 684.465 55.176 684.094 55.3714L673.92 60.8194C672.439 61.61 671.222 62.8 670.413 64.2479L664.842 74.2051C664.638 74.5654 664.34 74.8655 663.977 75.0747C663.615 75.2839 663.202 75.3944 662.781 75.3944C662.36 75.3944 661.947 75.2839 661.585 75.0747C661.222 74.8655 660.923 74.5654 660.72 74.2051L655.158 64.2479C654.349 62.8 653.132 61.61 651.651 60.8194L641.468 55.3714C641.099 55.1739 640.792 54.8829 640.577 54.5292C640.363 54.1756 640.25 53.7721 640.25 53.361C640.25 52.95 640.363 52.5465 640.577 52.1928C640.792 51.8391 641.099 51.5482 641.468 51.3507L651.651 45.9027C653.132 45.1121 654.349 43.9216 655.158 42.4737L660.72 32.517C660.923 32.1567 661.222 31.8561 661.585 31.6469C661.947 31.4377 662.36 31.3276 662.781 31.3276C663.202 31.3276 663.615 31.4377 663.977 31.6469C664.34 31.8561 664.638 32.1567 664.842 32.517Z" fill="url(#paint0_linear_11950_240814)"/>
<path d="M21.3777 193.408L15.8152 183.451C15.0032 182.002 13.7829 180.812 12.2992 180.022L2.12534 174.574C1.75426 174.377 1.44437 174.086 1.22844 173.731C1.01251 173.376 0.898438 172.971 0.898438 172.559C0.898438 172.146 1.01251 171.741 1.22844 171.386C1.44437 171.032 1.75426 170.74 2.12534 170.544L12.2992 165.105C13.7829 164.315 15.0032 163.125 15.8152 161.676L21.3777 151.719C21.581 151.359 21.8795 151.059 22.242 150.849C22.6044 150.64 23.0175 150.53 23.4384 150.53C23.8592 150.53 24.2724 150.64 24.6348 150.849C24.9972 151.059 25.2957 151.359 25.4991 151.719L31.0615 161.676C31.8727 163.122 33.0891 164.312 34.568 165.105L44.7514 170.544C45.1225 170.74 45.4324 171.032 45.6483 171.386C45.8643 171.741 45.9781 172.146 45.9781 172.559C45.9781 172.971 45.8643 173.376 45.6483 173.731C45.4324 174.086 45.1225 174.377 44.7514 174.574L34.5584 180.069C33.0795 180.862 31.8631 182.051 31.0519 183.497L25.4895 193.454C25.2811 193.81 24.9795 194.105 24.6156 194.309C24.2516 194.512 23.8386 194.617 23.4194 194.612C23.0002 194.607 22.5899 194.493 22.231 194.281C21.872 194.07 21.5775 193.768 21.3777 193.408V193.408Z" fill="url(#paint1_linear_11950_240814)"/>
<path d="M521.615 107.921C521.615 74.4242 496.522 64.0536 466.02 64.0536H418.11C417.678 64.0536 417.251 64.1371 416.853 64.2985C416.454 64.46 416.092 64.6965 415.787 64.9948C415.481 65.2931 415.24 65.6471 415.074 66.0369C414.909 66.4266 414.824 66.8447 414.824 67.2665V201.593C414.827 202.444 415.174 203.258 415.79 203.858C416.406 204.459 417.24 204.796 418.11 204.796H444.193C445.062 204.796 445.897 204.459 446.513 203.858C447.128 203.258 447.476 202.444 447.478 201.593V157.359C447.478 156.509 447.823 155.695 448.438 155.094C449.052 154.493 449.885 154.156 450.754 154.156H462.609C463.202 154.159 463.782 154.318 464.29 154.618C464.797 154.917 465.212 155.345 465.491 155.856L491.123 203.096C491.403 203.606 491.819 204.033 492.326 204.332C492.833 204.631 493.413 204.791 494.005 204.796H522.826C523.401 204.801 523.967 204.659 524.468 204.382C524.969 204.105 525.387 203.704 525.679 203.22C525.971 202.735 526.128 202.184 526.133 201.621C526.138 201.059 525.991 200.504 525.708 200.015L497.569 151.347C497.357 150.971 497.224 150.557 497.18 150.129C497.135 149.702 497.179 149.27 497.309 148.859C497.439 148.449 497.652 148.068 497.936 147.74C498.22 147.412 498.569 147.144 498.962 146.951C512.661 139.859 521.615 127.159 521.615 107.921ZM447.478 92.5537C447.477 92.1327 447.561 91.7155 447.725 91.3263C447.889 90.9371 448.13 90.5833 448.435 90.2856C448.739 89.9879 449.101 89.7522 449.499 89.5916C449.897 89.4311 450.324 89.3491 450.754 89.3504H463.368C480.478 89.3504 489.662 94.0471 489.662 107.921C489.662 121.795 480.478 128.906 463.368 128.906H450.754C449.885 128.906 449.052 128.569 448.438 127.968C447.823 127.367 447.478 126.553 447.478 125.703V92.5537Z" fill="#F8F8F8"/>
<path d="M262.024 112.63L244.415 105.332C230.61 100.259 220.955 97.1689 220.955 88.6959C220.955 80.4766 228.237 76.1276 238.968 76.1276C251.86 76.1276 260.478 79.3776 269.633 85.4082C270.314 85.8649 271.146 86.0556 271.964 85.9426C272.782 85.8296 273.527 85.4211 274.052 84.7977L286.541 69.4581C287.078 68.8031 287.338 67.972 287.268 67.1354C287.199 66.2989 286.805 65.5201 286.166 64.9586C273.49 54.385 257.369 48.5853 240.706 48.6044C209.417 48.6044 187.945 67.2412 187.945 90.5558C187.945 111.043 202.5 123.01 218.457 128.937L237.21 136.762C250.842 142.342 259.392 144.794 259.392 154.929C259.392 161.815 253.003 167.047 239.218 167.047C226.296 167.047 213.826 161.928 203.412 154.253C202.75 153.749 201.914 153.515 201.079 153.601C200.245 153.687 199.476 154.086 198.935 154.713L184.362 171.753C183.798 172.416 183.524 173.269 183.598 174.128C183.671 174.988 184.087 175.784 184.756 176.347C199.539 188.1 218.002 194.533 237.056 194.57C272.698 194.57 292.776 174.298 292.776 150.899C292.786 131.032 280.912 119.544 262.024 112.63Z" fill="#F8F8F8"/>
<path d="M596.487 88.1412C562.2 88.1412 538.586 113.438 538.586 160.471C538.586 208.631 562.2 234.097 596.487 234.097C630.774 234.097 654.398 208.631 654.398 160.471C654.427 113.447 630.784 88.1412 596.487 88.1412ZM596.487 206.593C581.471 206.593 571.989 190.849 571.989 160.48C571.989 131.229 581.471 115.664 596.487 115.664C611.503 115.664 620.994 131.229 620.994 160.48C620.994 190.849 611.512 206.593 596.487 206.593V206.593Z" fill="#F8F8F8"/>
<path d="M140.639 139.971C139.484 139.971 138.461 139.225 138.108 138.125L130.466 114.299C130.113 113.2 129.09 112.453 127.935 112.453H85.8574C84.7232 112.453 83.7139 113.173 83.3444 114.245L75.0977 138.179C74.7282 139.251 73.7189 139.971 72.5847 139.971H42.6452C40.3375 139.971 38.7327 137.676 39.5244 135.509L88.1863 2.27949C88.665 0.968812 89.9117 0.0969238 91.3071 0.0969238H123.396C124.794 0.0969238 126.042 0.972357 126.519 2.28687L174.825 135.516C175.61 137.683 174.005 139.971 171.701 139.971H140.639ZM118.165 83.3206C119.047 83.3206 119.684 82.477 119.443 81.6284L108.301 42.4034C107.937 41.1212 106.122 41.1137 105.747 42.3929L94.2544 81.6179C94.0051 82.4688 94.6431 83.3206 95.5297 83.3206H118.165Z" fill="#F8F8F8"/>
<defs>
<linearGradient id="paint0_linear_11950_240814" x1="643.841" y1="33.6066" x2="678.932" y2="71.8828" gradientUnits="userSpaceOnUse">
<stop stop-color="#68EA9C"/>
<stop offset="1" stop-color="#1E62F9"/>
</linearGradient>
<linearGradient id="paint1_linear_11950_240814" x1="9.89727" y1="156.097" x2="36.4311" y2="189.829" gradientUnits="userSpaceOnUse">
<stop stop-color="#E379C6"/>
<stop offset="1" stop-color="#E59E41"/>
</linearGradient>
</defs>
</svg>
