<svg width="27" height="26" viewBox="0 0 27 26" fill="none" xmlns="http://www.w3.org/2000/svg">
<path fill-rule="evenodd" clip-rule="evenodd" d="M8.10179 4.07812V22.2241L1.01962 13.731C0.739555 13.3952 0.739555 12.9071 1.01962 12.5713L8.10179 4.07812ZM8.36426 4.49609H24.5397C25.5398 4.49609 26.3505 5.30686 26.3505 6.30699V20.7221C26.3505 21.7222 25.5398 22.533 24.5397 22.533H8.36426V4.49609ZM20.2201 18.5822C20.5518 18.9148 21.1549 18.8494 21.5671 18.436C21.9793 18.0226 22.0446 17.4178 21.7129 17.0852L17.7879 13.1492L21.7134 9.21257C22.0452 8.87992 21.9799 8.27514 21.5677 7.86177C21.1555 7.44839 20.5524 7.38295 20.2207 7.7156L16.2951 11.6522L12.3693 7.71538C12.0376 7.38273 11.4345 7.44818 11.0223 7.86155C10.6101 8.27493 10.5448 8.8797 10.8766 9.21235L14.8023 13.1492L10.8771 17.0854C10.5454 17.418 10.6107 18.0228 11.0229 18.4362C11.4351 18.8496 12.0382 18.915 12.3699 18.5824L16.2951 14.6461L20.2201 18.5822Z" fill="white"/>
</svg>
