<svg width="60" height="60" viewBox="0 0 60 60" fill="none" xmlns="http://www.w3.org/2000/svg">
<g clip-path="url(#clip0_692_55473)">
<path d="M32.8125 18.75L32.8125 2.8125C32.8125 1.2592 31.5533 0 30 0C28.4467 0 27.1875 1.2592 27.1875 2.8125L27.1875 18.75H19.1383C18.3031 18.75 17.8848 19.7598 18.4754 20.3504L29.3371 31.2121C29.7032 31.5782 30.2968 31.5782 30.6629 31.2121L41.5246 20.3504C42.1152 19.7598 41.6969 18.75 40.8617 18.75H32.8125Z" fill="#A9A9A9"/>
<path fill-rule="evenodd" clip-rule="evenodd" d="M5.625 10.3125C5.625 9.79473 6.04473 9.375 6.5625 9.375H17.8125C19.3658 9.375 20.625 8.1158 20.625 6.5625C20.625 5.0092 19.3658 3.75 17.8125 3.75H6.5625C2.93813 3.75 0 6.68813 0 10.3125V38.4375C0 42.0619 2.93813 45 6.5625 45H20.5388C20.1672 48.9039 18.5881 52.0214 15.6935 55.3382C14.9683 56.1691 14.7957 57.3473 15.2521 58.3513C15.7085 59.3554 16.7096 60 17.8125 60H42.1875C43.2904 60 44.2915 59.3554 44.7479 58.3513C45.2043 57.3473 45.0317 56.1691 44.3065 55.3382C41.4119 52.0214 39.8328 48.9039 39.4612 45H53.4375C57.0619 45 60 42.0619 60 38.4375V10.3125C60 6.68813 57.0619 3.75 53.4375 3.75H42.1875C40.6342 3.75 39.375 5.0092 39.375 6.5625C39.375 8.1158 40.6342 9.375 42.1875 9.375H53.4375C53.9553 9.375 54.375 9.79473 54.375 10.3125V38.4375C54.375 38.9553 53.9553 39.375 53.4375 39.375H6.5625C6.04473 39.375 5.625 38.9553 5.625 38.4375V10.3125ZM33.8168 45H26.1831C25.9271 48.5163 24.9412 51.5525 23.3149 54.375H36.685C35.0588 51.5525 34.0728 48.5163 33.8168 45Z" fill="#A9A9A9"/>
</g>
<defs>
<clipPath id="clip0_692_55473">
<rect width="60" height="60" fill="white"/>
</clipPath>
</defs>
</svg>
