<svg viewBox="0 0 28 28" fill="none" xmlns="http://www.w3.org/2000/svg">
<g clip-path="url(#clip0_15556_52407)">
<path fill-rule="evenodd" clip-rule="evenodd" d="M2.6999 12.6875H7.48298C7.73537 9.05777 8.99773 6.11411 10.2495 4.02776C10.4564 3.68298 10.6634 3.36087 10.8661 3.06219C6.51443 4.3067 3.22948 8.07802 2.6999 12.6875ZM7.483 15.3125H2.6999C3.22948 19.922 6.51451 23.6934 10.8663 24.9379C10.6635 24.6391 10.4565 24.3169 10.2495 23.972C8.99775 21.8857 7.7354 18.9422 7.483 15.3125ZM10.1155 15.3125H17.8845C17.6386 18.3496 16.5741 20.8304 15.4995 22.6216C14.9636 23.5148 14.4287 24.23 14 24.7489C13.5713 24.23 13.0364 23.5148 12.5005 22.6216C11.4259 20.8304 10.3614 18.3496 10.1155 15.3125ZM17.8846 12.6875H10.1154C10.3613 9.6503 11.4258 7.16935 12.5005 5.37831C13.0364 4.48509 13.5713 3.76976 14 3.25097C14.4287 3.76976 14.9636 4.48509 15.4995 5.37831C16.5742 7.16935 17.6386 9.6503 17.8846 12.6875ZM20.517 15.3125C20.2647 18.9422 19.0022 21.8857 17.7504 23.972C17.5436 24.3169 17.3365 24.6391 17.1337 24.9379C21.4855 23.6934 24.7705 19.922 25.3001 15.3125H20.517ZM25.3001 12.6875H20.517C20.2647 9.05777 19.0022 6.11411 17.7504 4.02776C17.5436 3.68298 17.3366 3.36087 17.1339 3.06217C21.4856 4.30668 24.7705 8.07802 25.3001 12.6875ZM14 0C6.26801 0 0 6.26801 0 14C0 21.732 6.26801 28 14 28C21.732 28 28 21.732 28 14C28 6.26801 21.732 0 14 0Z" fill="#0D2839"/>
</g>
<defs>
<clipPath id="clip0_15556_52407">
<rect width="28" height="28" fill="white"/>
</clipPath>
</defs>
</svg>
