<svg viewBox="0 0 20 20" fill="none" xmlns="http://www.w3.org/2000/svg">
<g clip-path="url(#clip0_2403_80128)">
<path fill-rule="evenodd" clip-rule="evenodd" d="M2.05368 3.92864L0.533471 2.40844C0.336608 2.21158 0 2.351 0 2.62941V7.18748C0 7.36006 0.139911 7.49998 0.3125 7.49998H4.87056C5.14896 7.49998 5.28839 7.16336 5.09152 6.9665L3.39375 5.26873C4.86885 3.21274 7.27892 1.875 10.0001 1.875C14.4874 1.875 18.1251 5.51269 18.1251 10C18.1251 14.4874 14.4874 18.125 10.0001 18.125C5.79716 18.125 2.33856 14.933 1.91807 10.8417C1.86514 10.3266 1.4047 9.95197 0.88964 10.0049C0.374586 10.0578 -3.60934e-05 10.5183 0.0528981 11.0333C0.570651 16.0711 4.82595 20 10.0001 20C15.5229 20 20.0001 15.5229 20.0001 10C20.0001 4.47715 15.5229 0 10.0001 0C6.75964 0 3.88045 1.54126 2.05368 3.92864ZM9.6875 5C10.2053 5 10.625 5.41974 10.625 5.9375V9.67779L13.1606 10.6921C13.6414 10.8844 13.8752 11.4299 13.683 11.9107C13.4906 12.3914 12.945 12.6252 12.4643 12.4329L9.33932 11.1829C8.98339 11.0406 8.75 10.6959 8.75 10.3125V5.9375C8.75 5.41974 9.16974 5 9.6875 5Z" fill="#0D2839"/>
</g>
<defs>
<clipPath id="clip0_2403_80128">
<rect width="20" height="20" fill="white"/>
</clipPath>
</defs>
</svg>
