<svg viewBox="0 0 18 18" fill="none" xmlns="http://www.w3.org/2000/svg">
<path fill-rule="evenodd" clip-rule="evenodd" d="M12.978 3.89744C13.5005 4.41979 13.915 5.03994 14.1977 5.7225C14.4805 6.40505 14.626 7.13663 14.626 7.87544C14.626 8.61425 14.4805 9.34581 14.1977 10.0284C13.915 10.7109 13.5005 11.3311 12.978 11.8534L9 15.8292L5.022 11.8523C4.49961 11.33 4.08521 10.7097 3.8025 10.0272C3.51978 9.34464 3.37426 8.61309 3.37426 7.87431C3.37426 7.13553 3.51978 6.40399 3.8025 5.72144C4.08521 5.03889 4.49961 4.41871 5.022 3.89631C5.5444 3.37391 6.16458 2.95953 6.84712 2.6768C7.52967 2.39408 8.26122 2.24857 9 2.24857C9.73879 2.24857 10.4703 2.39408 11.1529 2.6768C11.8354 2.95953 12.4556 3.37391 12.978 3.89631V3.89744ZM14.1705 13.0459C15.1932 12.0233 15.8897 10.7203 16.172 9.30183C16.4541 7.88333 16.3093 6.41298 15.756 5.07677C15.2025 3.74055 14.2652 2.59846 13.0627 1.79492C11.8601 0.991386 10.4463 0.5625 9 0.5625C7.5537 0.5625 6.13988 0.991386 4.93733 1.79492C3.73479 2.59846 2.79753 3.74055 2.24407 5.07677C1.69063 6.41298 1.54585 7.88333 1.82806 9.30183C2.11026 10.7203 2.80677 12.0233 3.8295 13.0459L7.80638 17.0239C7.96309 17.1808 8.14916 17.3052 8.35398 17.39C8.55879 17.4749 8.77831 17.5186 9 17.5186C9.2217 17.5186 9.44123 17.4749 9.64603 17.39C9.85084 17.3052 10.0369 17.1808 10.1936 17.0239L14.1705 13.0459ZM9 10.1254C9.59675 10.1254 10.169 9.88838 10.591 9.46643C11.013 9.04447 11.25 8.47217 11.25 7.87544C11.25 7.2787 11.013 6.70641 10.591 6.28444C10.169 5.86249 9.59675 5.62544 9 5.62544C8.40327 5.62544 7.83097 5.86249 7.40901 6.28444C6.98706 6.70641 6.75 7.2787 6.75 7.87544C6.75 8.47217 6.98706 9.04447 7.40901 9.46643C7.83097 9.88838 8.40327 10.1254 9 10.1254Z" fill="#A9A9A9"/>
</svg>
