<svg viewBox="0 0 16 17" fill="none" xmlns="http://www.w3.org/2000/svg">
<path fill-rule="evenodd" clip-rule="evenodd" d="M7.99994 0.75C8.13995 0.74991 8.27719 0.789014 8.39613 0.862887C8.51507 0.936761 8.61096 1.04245 8.67294 1.168L10.5549 4.98301L14.765 5.59501C14.9035 5.61512 15.0335 5.67356 15.1405 5.76373C15.2475 5.85389 15.3271 5.97219 15.3704 6.10524C15.4137 6.2383 15.4189 6.38081 15.3854 6.51666C15.3519 6.65251 15.2811 6.77629 15.181 6.87401L12.135 9.84402L12.854 14.036C12.8777 14.1739 12.8624 14.3157 12.8097 14.4454C12.757 14.5751 12.6691 14.6874 12.5559 14.7697C12.4427 14.852 12.3087 14.901 12.1691 14.9111C12.0295 14.9212 11.8899 14.8921 11.766 14.827L7.99994 12.847L4.23393 14.827C4.11011 14.892 3.97059 14.9211 3.83112 14.911C3.69164 14.9009 3.55777 14.852 3.44461 14.7699C3.33145 14.6877 3.24352 14.5755 3.19074 14.446C3.13796 14.3165 3.12244 14.1749 3.14593 14.037L3.86593 9.84302L0.817921 6.87401C0.717487 6.77633 0.64642 6.65248 0.612772 6.51648C0.579125 6.38048 0.584242 6.23778 0.627545 6.10454C0.670848 5.9713 0.750604 5.85285 0.857777 5.76262C0.96495 5.67239 1.09526 5.61398 1.23393 5.59401L5.44394 4.98301L7.32694 1.168C7.38892 1.04245 7.4848 0.936761 7.60374 0.862887C7.72268 0.789014 7.85992 0.74991 7.99994 0.75Z" fill="#0D2839"/>
</svg>
