<svg viewBox="0 0 12 12" fill="none" xmlns="http://www.w3.org/2000/svg">
<g clip-path="url(#clip0_14430_236097)">
<path fill-rule="evenodd" clip-rule="evenodd" d="M10.6387 0.857879C10.257 0.196626 9.39351 -0.000425488 8.76268 0.429734L0.684545 5.93802C0.117113 6.32494 -0.056089 7.08388 0.287308 7.67864L0.622702 8.25959C0.9661 8.85434 1.70996 9.08384 2.32876 8.78587L11.1382 4.54417C11.8261 4.21291 12.0871 3.36661 11.7054 2.70536L10.6387 0.857879ZM9.39643 1.35922C9.48658 1.29776 9.60995 1.32592 9.66448 1.42038L10.7311 3.26786C10.7857 3.36232 10.7484 3.48322 10.6501 3.53055L9.13805 4.25859L8.0099 2.30465L9.39643 1.35922ZM7.07784 2.94022L8.12158 4.74802L4.0557 6.70574L3.34947 5.48251L7.07784 2.94022ZM2.41738 6.11809L1.31834 6.86749C1.23727 6.92277 1.21253 7.03119 1.26158 7.11616L1.59698 7.69709C1.64603 7.78207 1.7523 7.81484 1.8407 7.77224L3.03924 7.19517L2.41738 6.11809ZM7.10761 7.84747C6.95067 7.61812 6.64975 7.53772 6.39935 7.65832L5.04272 8.31149C4.95403 8.35424 4.8781 8.41949 4.82252 8.50072L3.2868 10.7452C3.11137 11.0016 3.177 11.3517 3.4334 11.5271C3.68979 11.7025 4.03984 11.6368 4.21526 11.3805L5.62603 9.31859V11.4379C5.62603 11.7485 5.87787 12.0004 6.18853 12.0004C6.49919 12.0004 6.75103 11.7485 6.75103 11.4379V9.31859L8.16178 11.3805C8.3372 11.6368 8.68731 11.7025 8.94366 11.5271C9.20008 11.3517 9.26571 11.0016 9.09028 10.7452L7.10761 7.84747Z" fill="url(#paint0_linear_14430_236097)"/>
</g>
<defs>
<linearGradient id="paint0_linear_14430_236097" x1="0.111328" y1="-1.06276" x2="11.9193" y2="15.2484" gradientUnits="userSpaceOnUse">
<stop stop-color="#F279C5"/>
<stop offset="0.5625" stop-color="#7A6CE1"/>
<stop offset="1" stop-color="#1D62F6"/>
</linearGradient>
<clipPath id="clip0_14430_236097">
<rect width="12" height="12" fill="white"/>
</clipPath>
</defs>
</svg>
