<svg width="20" height="20" viewBox="0 0 20 20" fill="none" xmlns="http://www.w3.org/2000/svg">
<path fill-rule="evenodd" clip-rule="evenodd" d="M9.45375 2.58575C9.61666 2.66057 9.7547 2.78052 9.85152 2.93139C9.94834 3.08227 9.99986 3.25774 10 3.437V16.562C10.0001 16.7414 9.94879 16.9169 9.85211 17.068C9.75545 17.219 9.61748 17.3391 9.45459 17.4141C9.29169 17.4891 9.1107 17.5159 8.93309 17.4911C8.75546 17.4664 8.58868 17.3911 8.4525 17.2745L4.34 13.7495H2.1875C1.60734 13.7495 1.05094 13.519 0.640704 13.1088C0.230467 12.6985 0 12.1422 0 11.562V8.437C0 7.2295 0.98 6.2495 2.1875 6.2495H4.34125L8.4525 2.7245C8.5887 2.60813 8.75537 2.53322 8.93283 2.50863C9.11026 2.48404 9.29104 2.5108 9.45375 2.58575ZM8.125 5.4745L5.2975 7.89825C5.12769 8.04407 4.91132 8.12432 4.6875 8.1245H2.1875C2.10462 8.1245 2.02514 8.15743 1.96653 8.21603C1.90793 8.27464 1.875 8.35413 1.875 8.437V11.562C1.875 11.7345 2.015 11.8745 2.1875 11.8745H4.6875C4.91116 11.8743 5.12751 11.9541 5.2975 12.0995L8.125 14.5245V5.4745ZM15.745 2.927C15.9207 2.75144 16.159 2.65283 16.4075 2.65283C16.656 2.65283 16.8943 2.75144 17.07 2.927C17.9986 3.85559 18.7353 4.95802 19.2379 6.1713C19.7405 7.38459 19.9991 8.68499 19.9991 9.99825C19.9991 11.3115 19.7405 12.6119 19.2379 13.8253C18.7353 15.0385 17.9986 16.1409 17.07 17.0695C16.8923 17.2351 16.6572 17.3253 16.4144 17.321C16.1715 17.3166 15.9397 17.2183 15.768 17.0465C15.5962 16.8748 15.4979 16.643 15.4935 16.4001C15.4893 16.1573 15.5794 15.9223 15.745 15.7445C16.4996 14.99 17.0981 14.0943 17.5065 13.1084C17.915 12.1226 18.1251 11.066 18.1251 9.99888C18.1251 8.93179 17.915 7.87517 17.5065 6.88933C17.0981 5.90349 16.4996 5.00774 15.745 4.25325C15.5694 4.07747 15.4709 3.83919 15.4709 3.59075C15.4709 3.34232 15.5694 3.10404 15.745 2.92825V2.927ZM14.42 5.57825C14.2441 5.40238 14.0056 5.30358 13.7569 5.30358C13.5081 5.30358 13.2696 5.40238 13.0938 5.57825C12.9179 5.75413 12.8191 5.99265 12.8191 6.24138C12.8191 6.4901 12.9179 6.72863 13.0938 6.9045C13.5 7.31077 13.8224 7.79308 14.0422 8.32392C14.2621 8.85474 14.3754 9.42368 14.3754 9.99825C14.3754 10.5728 14.2621 11.1418 14.0422 11.6726C13.8224 12.2034 13.5 12.6858 13.0938 13.092C13.0016 13.1779 12.9277 13.2814 12.8765 13.3964C12.8252 13.5114 12.7977 13.6355 12.7955 13.7614C12.7932 13.8873 12.8165 14.0123 12.8636 14.129C12.9108 14.2458 12.9809 14.3518 13.07 14.4408C13.159 14.5299 13.265 14.6 13.3818 14.6471C13.4985 14.6943 13.6235 14.7175 13.7494 14.7153C13.8753 14.713 13.9994 14.6855 14.1144 14.6343C14.2294 14.583 14.3329 14.5091 14.4187 14.417C15.5905 13.245 16.2486 11.6555 16.2486 9.99825C16.2486 8.34098 15.5905 6.75155 14.4187 5.5795L14.42 5.57825Z" fill="#0D2839"/>
</svg>
