<svg viewBox="0 0 32 32" fill="none" xmlns="http://www.w3.org/2000/svg">
<path fill-rule="evenodd" clip-rule="evenodd" d="M9.5 0C10.3284 0 11 0.671573 11 1.5V4H21V1.5C21 0.671573 21.6716 0 22.5 0C23.3284 0 24 0.671573 24 1.5V4H26.5C28.433 4 30 5.567 30 7.5V28.5C30 30.433 28.433 32 26.5 32H5.5C3.567 32 2 30.433 2 28.5V7.5C2 5.567 3.567 4 5.5 4H8V1.5C8 0.671573 8.67157 0 9.5 0ZM26.5 7C26.7761 7 27 7.22386 27 7.5V12H5V7.5C5 7.22386 5.22386 7 5.5 7H26.5ZM5 15V28.5C5 28.7761 5.22386 29 5.5 29H26.5C26.7761 29 27 28.7761 27 28.5V15H5Z" fill="#0D2839"/>
</svg>
