<svg viewBox="0 0 32 32" fill="none" xmlns="http://www.w3.org/2000/svg">
<path fill-rule="evenodd" clip-rule="evenodd" d="M11.5 1.99951C10.6716 1.99951 10 2.67109 10 3.49951V9.49951C10 10.3279 10.6716 10.9995 11.5 10.9995H20.5C21.3284 10.9995 22 10.3279 22 9.49951V3.49951C22 2.67109 21.3284 1.99951 20.5 1.99951H11.5ZM13 7.99951V4.99951H19V7.99951H13ZM7.25108 7.06551C7.96818 6.65069 8.21322 5.73309 7.7984 5.01601C7.3836 4.29891 6.466 4.05387 5.74892 4.46869C4.70668 5.07159 4 6.20215 4 7.49953V26.4995C4 28.4325 5.567 29.9995 7.5 29.9995H24.5C26.433 29.9995 28 28.4325 28 26.4995V7.49953C28 6.20215 27.2934 5.07159 26.251 4.46869C25.534 4.05387 24.6164 4.29891 24.2016 5.01601C23.7868 5.73309 24.0318 6.65069 24.749 7.06551C24.9022 7.15421 25 7.31635 25 7.49953V26.4995C25 26.7757 24.7762 26.9995 24.5 26.9995H7.5C7.22386 26.9995 7 26.7757 7 26.4995V7.49953C7 7.31635 7.09772 7.15421 7.25108 7.06551Z" fill="#F8F8F8"/>
</svg>
