<svg viewBox="0 0 32 32" fill="none" xmlns="http://www.w3.org/2000/svg">
<path fill-rule="evenodd" clip-rule="evenodd" d="M5.5 5.00098C5.3674 5.00098 5.24022 5.05366 5.14644 5.14742C5.05268 5.2412 5 5.36838 5 5.50098V20.501C5 20.777 5.224 21.001 5.5 21.001H9.5C9.89782 21.001 10.2794 21.159 10.5607 21.4404C10.842 21.7216 11 22.1032 11 22.501V26.881L16.44 21.441C16.721 21.1596 17.1023 21.0014 17.5 21.001H26.5C26.6326 21.001 26.7598 20.9484 26.8536 20.8546C26.9474 20.7608 27 20.6336 27 20.501V5.50098C27 5.36838 26.9474 5.2412 26.8536 5.14742C26.7598 5.05366 26.6326 5.00098 26.5 5.00098H5.5ZM2 5.50098C2 3.56898 3.568 2.00098 5.5 2.00098H26.5C28.432 2.00098 30 3.56898 30 5.50098V20.501C30 21.4292 29.6312 22.3194 28.9748 22.9758C28.3184 23.6322 27.4282 24.001 26.5 24.001H18.12L12.974 29.147C12.5665 29.5544 12.0473 29.8316 11.4822 29.944C10.9171 30.0564 10.3313 29.9986 9.799 29.7782C9.26666 29.5578 8.81162 29.1844 8.49142 28.7054C8.17122 28.2264 8.0002 27.6632 8 27.087V24.001H5.5C4.57174 24.001 3.6815 23.6322 3.02512 22.9758C2.36874 22.3194 2 21.4292 2 20.501V5.50098Z" fill="#0D2839"/>
</svg>
