<svg viewBox="0 0 20 20" fill="none" xmlns="http://www.w3.org/2000/svg">
<g clip-path="url(#clip0_1744_57871)">
<path fill-rule="evenodd" clip-rule="evenodd" d="M10 18.125C5.51269 18.125 1.875 14.4873 1.875 10C1.875 5.51269 5.51269 1.875 10 1.875C14.4873 1.875 18.125 5.51269 18.125 10C18.125 14.4873 14.4873 18.125 10 18.125ZM0 10C0 4.47715 4.47715 0 10 0C15.5228 0 20 4.47715 20 10C20 15.5228 15.5228 20 10 20C4.47715 20 0 15.5228 0 10ZM10 5C7.23858 5 5 7.23858 5 10C5 12.7614 7.23858 15 10 15C12.7614 15 15 12.7614 15 10C15 7.23858 12.7614 5 10 5Z" fill="#0D2839"/>
</g>
<defs>
<clipPath id="clip0_1744_57871">
<rect width="20" height="20" fill="white"/>
</clipPath>
</defs>
</svg>
