<svg viewBox="0 0 20 20" fill="none" xmlns="http://www.w3.org/2000/svg">
<path d="M9.10054 4.61144L9.10064 4.61149C9.28278 4.70253 9.4837 4.75 9.6875 4.75H17.8125C18.1274 4.75 18.4294 4.87509 18.6522 5.09782L19.3592 4.3907L18.6522 5.09782C18.8749 5.32054 19 5.62259 19 5.9375V16.5625C19 16.8773 18.8749 17.1794 18.6521 17.4021C18.4294 17.6249 18.1273 17.75 17.8125 17.75H2.1875C1.53228 17.75 1 17.2177 1 16.5625V3.4375C1 3.12255 1.12511 2.82051 1.34781 2.59781C1.57051 2.37511 1.87255 2.25 2.1875 2.25H6.5625C6.93524 2.25 7.28885 2.42681 7.5125 2.725L8.6375 4.225L8.63753 4.22504C8.75975 4.38797 8.91823 4.52029 9.10054 4.61144Z" stroke="#2E2657" stroke-width="2"/>
</svg>
