<svg viewBox="0 0 16 17" fill="none" xmlns="http://www.w3.org/2000/svg">
<g clip-path="url(#clip0_14425_190211)">
<path fill-rule="evenodd" clip-rule="evenodd" d="M8 2.00049C4.41015 2.00049 1.5 4.91064 1.5 8.50049C1.5 12.0904 4.41015 15.0005 8 15.0005C11.5899 15.0005 14.5 12.0904 14.5 8.50049C14.5 4.91064 11.5899 2.00049 8 2.00049ZM0 8.50049C0 4.08221 3.58172 0.500488 8 0.500488C12.4183 0.500488 16 4.08221 16 8.50049C16 12.9188 12.4183 16.5005 8 16.5005C3.58172 16.5005 0 12.9188 0 8.50049ZM6.5 8.25049C6.5 7.83628 6.83579 7.50049 7.25 7.50049H8.25C8.66421 7.50049 9 7.83628 9 8.25049V11.0005H9.25C9.66421 11.0005 10 11.3363 10 11.7505C10 12.1647 9.66421 12.5005 9.25 12.5005H7.25C6.83579 12.5005 6.5 12.1647 6.5 11.7505C6.5 11.3363 6.83579 11.0005 7.25 11.0005H7.5V9.00049H7.25C6.83579 9.00049 6.5 8.6647 6.5 8.25049ZM8 6.50049C8.55229 6.50049 9 6.05277 9 5.50049C9 4.94821 8.55229 4.50049 8 4.50049C7.44772 4.50049 7 4.94821 7 5.50049C7 6.05277 7.44772 6.50049 8 6.50049Z" fill="#0D2839"/>
</g>
<defs>
<clipPath id="clip0_14425_190211">
<rect width="16" height="16" fill="white" transform="translate(0 0.5)"/>
</clipPath>
</defs>
</svg>
