<svg  viewBox="0 0 32 32" fill="none" xmlns="http://www.w3.org/2000/svg">
<path fill-rule="evenodd" clip-rule="evenodd" d="M21.2072 2H29.5C29.7762 2 30 2.22386 30 2.5V10.7929C30 11.2383 29.4614 11.4614 29.1464 11.1464L26.0606 8.06066L18.5607 15.5607C17.9749 16.1464 17.0251 16.1464 16.4393 15.5607C15.8536 14.9749 15.8536 14.0251 16.4393 13.4393L23.9394 5.93934L20.8536 2.85356C20.5386 2.53858 20.7616 2 21.2072 2ZM7.5 4C5.567 4 4 5.567 4 7.5V24.5C4 26.433 5.567 28 7.5 28H24.5C26.433 28 28 26.433 28 24.5V17.5C28 16.6716 27.3284 16 26.5 16C25.6716 16 25 16.6716 25 17.5V24.5C25 24.7762 24.7762 25 24.5 25H7.5C7.22386 25 7 24.7762 7 24.5V7.5C7 7.22386 7.22386 7 7.5 7H14.5C15.3284 7 16 6.32842 16 5.5C16 4.67158 15.3284 4 14.5 4H7.5Z" fill="#0D2839"/>
</svg>
