<svg viewBox="0 0 32 32" fill="none" xmlns="http://www.w3.org/2000/svg">
<path fill-rule="evenodd" clip-rule="evenodd" d="M22.0253 2.85277C23.3921 1.48593 25.6081 1.48593 26.9749 2.85277L29.1465 5.02435C30.5133 6.39117 30.5133 8.60725 29.1465 9.97409L11.9272 27.1934C11.5066 27.614 10.9857 27.9204 10.4138 28.0838L3.91212 29.9414C3.38832 30.0912 2.82458 29.945 2.43938 29.5598C2.05418 29.1746 1.9081 28.611 2.05774 28.0872L3.91538 21.5854C4.07878 21.0136 4.38524 20.4926 4.80584 20.072L22.0253 2.85277ZM24.8537 4.97409C24.6583 4.77883 24.3417 4.77883 24.1465 4.97409L21.6213 7.49921L24.5001 10.3779L27.0253 7.85277C27.2205 7.65751 27.2205 7.34093 27.0253 7.14567L24.8537 4.97409ZM22.3787 12.4992L19.5 9.62052L6.92717 22.1934C6.86708 22.2534 6.8233 22.3278 6.79994 22.4096L5.68406 26.3152L9.58964 25.1992C9.67134 25.176 9.74575 25.1322 9.80585 25.072L22.3787 12.4992Z" fill="#0D2839"/>
</svg>
