<svg viewBox="0 0 15 14" fill="none" xmlns="http://www.w3.org/2000/svg">
<g clip-path="url(#clip0_3611_7062)">
<path fill-rule="evenodd" clip-rule="evenodd" d="M10.4313 0.640221C9.67797 -0.113111 8.40469 0.11398 7.95823 1.08129L7.42215 2.2428C7.28886 2.5316 7.10552 2.79453 6.88061 3.01944C6.52779 3.37225 6.08399 3.62025 5.5986 3.73582L3.45124 4.2471C2.28583 4.52456 1.87606 5.9724 2.72315 6.81947L4.65183 8.74819L1.39718 12.0029C1.14089 12.2592 1.14089 12.6747 1.39718 12.9309C1.65347 13.1872 2.06892 13.1872 2.3252 12.9309L5.57994 9.6763L7.50865 11.605C8.35572 12.4521 9.80355 12.0423 10.081 10.8769L10.5923 8.72951C10.7079 8.24413 10.9559 7.80033 11.3087 7.44752C11.5336 7.2226 11.7965 7.03927 12.0853 6.90598L13.2468 6.3699C14.2141 5.92344 14.4412 4.65016 13.6879 3.89683L10.4313 0.640221ZM9.14992 1.63131C9.2137 1.49312 9.39561 1.46068 9.50322 1.5683L12.7598 4.8249C12.8674 4.93252 12.835 5.11442 12.6968 5.1782L11.5353 5.71428C11.1059 5.91246 10.715 6.18505 10.3806 6.51944C9.85604 7.04401 9.48733 7.70384 9.3155 8.42551L8.80421 10.5729C8.76457 10.7394 8.55774 10.798 8.43673 10.6769L3.65118 5.89139C3.53016 5.77038 3.5887 5.56354 3.75522 5.52391L5.90261 5.01263C6.62428 4.84079 7.28413 4.47208 7.80869 3.94751C8.14309 3.61312 8.41567 3.22219 8.61385 2.79282L9.14992 1.63131Z" fill="#7B61FF"/>
</g>
<defs>
<clipPath id="clip0_3611_7062">
<rect width="14" height="14" fill="white" transform="matrix(-1 0 0 1 14.332 0)"/>
</clipPath>
</defs>
</svg>
