<svg width="327" height="329" viewBox="0 0 327 329" fill="none" xmlns="http://www.w3.org/2000/svg">
<g filter="url(#filter0_d_14596_92866)">
<ellipse cx="164" cy="164.5" rx="144" ry="144.5" fill="url(#paint0_radial_14596_92866)"/>
<rect width="25.2434" height="25.2434" rx="12.6217" transform="matrix(0.999991 -0.00427808 0.00426504 0.999991 248.602 232.508)" fill="#CCF1F1"/>
<rect width="18.0001" height="18.0001" rx="9.00006" transform="matrix(0.999991 -0.00427808 0.00426504 0.999991 252.242 236.117)" fill="#0E656B"/>
<path d="M283.741 86C300.252 111.537 308.267 141.637 306.638 171.988C305.009 202.338 293.818 231.379 274.67 254.95L163 164.067L283.741 86Z" fill="url(#paint1_linear_14596_92866)"/>
<ellipse cx="163.784" cy="164" rx="143.78" ry="144" stroke="#0E656B" stroke-width="1.8"/>
<ellipse cx="163.96" cy="165.361" rx="71.3502" ry="71.2415" transform="rotate(-90 163.96 165.361)" stroke="#0E656B" stroke-width="1.8"/>
<ellipse cx="163.815" cy="165.275" rx="37.8154" ry="37.8731" stroke="#0E656B" stroke-width="1.8"/>
<ellipse cx="163.827" cy="164.178" rx="109.683" ry="109.85" stroke="#0E656B" stroke-width="1.8"/>
<path d="M164.227 20V54.3116M164.227 307.951V274.312" stroke="#0E656B" stroke-width="1.8"/>
<rect width="10.8" height="10.8" transform="matrix(0.999991 -0.00427808 0.00426504 0.999991 117.199 196.445)" fill="#E2B000"/>
<path d="M128.002 38L132.223 40.0332L133.266 44.6016L130.345 48.2652H125.659L122.737 44.6016L123.78 40.0332L128.002 38Z" fill="#E2B000"/>
<rect width="10.8" height="10.8" transform="matrix(0.999991 -0.00427808 0.00426504 0.999991 201.801 239.648)" fill="#46ADB4"/>
<rect width="10.8" height="10.8" transform="matrix(0.999991 -0.00427808 0.00426504 0.999991 196.398 38.0469)" fill="#E2B000"/>
<rect width="10.8" height="10.8" rx="5.4" transform="matrix(0.999991 -0.00427808 0.00426504 0.999991 77.6016 129.844)" fill="#E2B000"/>
<path d="M230.599 102.801L234.821 104.834L235.864 109.402L232.942 113.066H228.256L225.335 109.402L226.377 104.834L230.599 102.801Z" fill="#E2B000"/>
<path d="M63.2008 234.199L67.4227 236.232L68.4654 240.801L65.5437 244.464H60.8578L57.9362 240.801L58.9789 236.232L63.2008 234.199Z" fill="#E2B000"/>
<rect width="10.8" height="10.8" transform="matrix(0.999991 -0.00427808 0.00426504 0.999991 92 264.844)" fill="#E2B000"/>
<path d="M164.211 160.172V170.538" stroke="#147C83" stroke-width="1.8"/>
<path d="M158.781 165.578H169.132" stroke="#147C83" stroke-width="1.8"/>
<path d="M274.867 255.543L164.184 165.801" stroke="#0E656B" stroke-width="1.8" stroke-dasharray="3.43 3.43"/>
<path d="M164.043 54.1992V94.6992" stroke="#0E656B" stroke-width="1.8"/>
<path d="M164.043 236V276.5" stroke="#0E656B" stroke-width="1.8"/>
<path d="M273.801 165.352L234.693 165.352" stroke="#0E656B" stroke-width="1.8"/>
<path d="M92.8984 165.352L54.1985 165.352" stroke="#0E656B" stroke-width="1.8"/>
<rect width="10.8" height="10.8" rx="5.4" transform="matrix(0.999991 -0.00427808 0.00426504 0.999991 255.855 239.703)" fill="#147C83"/>
<rect x="0.90383" y="0.896141" width="15.7432" height="15.77" rx="7.87161" transform="matrix(0.999991 -0.00427808 0.00426504 0.999991 154.168 156.637)" fill="#00474B" stroke="#147C83" stroke-width="1.8"/>
<rect width="6.17398" height="6.18341" rx="3.08699" transform="matrix(-0.999991 0.00427799 -0.00426496 -0.999991 278.652 258.375)" fill="#0E656B"/>
</g>
<defs>
<filter id="filter0_d_14596_92866" x="-8.89648" y="-8.89844" width="345.361" height="345.898" filterUnits="userSpaceOnUse" color-interpolation-filters="sRGB">
<feFlood flood-opacity="0" result="BackgroundImageFix"/>
<feColorMatrix in="SourceAlpha" type="matrix" values="0 0 0 0 0 0 0 0 0 0 0 0 0 0 0 0 0 0 127 0" result="hardAlpha"/>
<feMorphology radius="4" operator="dilate" in="SourceAlpha" result="effect1_dropShadow_14596_92866"/>
<feOffset/>
<feGaussianBlur stdDeviation="12"/>
<feComposite in2="hardAlpha" operator="out"/>
<feColorMatrix type="matrix" values="0 0 0 0 0.67451 0 0 0 0 0.776471 0 0 0 0 0.772549 0 0 0 1 0"/>
<feBlend mode="normal" in2="BackgroundImageFix" result="effect1_dropShadow_14596_92866"/>
<feBlend mode="normal" in="SourceGraphic" in2="effect1_dropShadow_14596_92866" result="shape"/>
</filter>
<radialGradient id="paint0_radial_14596_92866" cx="0" cy="0" r="1" gradientUnits="userSpaceOnUse" gradientTransform="translate(164 164.5) rotate(90) scale(144.5 144)">
<stop stop-color="#EAF4F4"/>
<stop offset="1" stop-color="#EAF4F4" stop-opacity="0"/>
</radialGradient>
<linearGradient id="paint1_linear_14596_92866" x1="282.012" y1="284.666" x2="250.512" y2="139.766" gradientUnits="userSpaceOnUse">
<stop stop-color="#86D3D9"/>
<stop offset="1" stop-color="#86D3D9" stop-opacity="0"/>
</linearGradient>
</defs>
</svg>
