<svg viewBox="0 0 49 47" fill="none" xmlns="http://www.w3.org/2000/svg">
<path d="M26.3425 45.7128L32.2911 35.1572C33.1561 33.6217 34.4568 32.3593 36.0387 31.5197L46.9141 25.746C47.3085 25.5361 47.6375 25.2271 47.8666 24.8515C48.0958 24.4759 48.2167 24.0473 48.2167 23.6108C48.2167 23.1742 48.0958 22.7457 47.8666 22.3701C47.6375 21.9944 47.3085 21.6855 46.9141 21.4755L36.0387 15.7018C34.4578 14.8628 33.1573 13.602 32.2911 12.0685L26.3425 1.51292C26.1265 1.1301 25.8084 0.810691 25.4215 0.588198C25.0347 0.365706 24.5933 0.248312 24.1436 0.248312C23.6939 0.248312 23.2525 0.365706 22.8656 0.588198C22.4788 0.810691 22.1607 1.1301 21.9447 1.51292L15.9961 12.0685C15.1307 13.603 13.8311 14.8651 12.2506 15.7059L1.37518 21.4797C0.980238 21.6891 0.650665 21.9979 0.42107 22.3736C0.191475 22.7493 0.0703125 23.1781 0.0703125 23.6149C0.0703125 24.0517 0.191475 24.4805 0.42107 24.8562C0.650665 25.2319 0.980238 25.5407 1.37518 25.7501L12.2506 31.5239C13.8318 32.3647 15.1316 33.6277 15.9961 35.1634L21.9447 45.719C22.1613 46.1015 22.4798 46.4204 22.867 46.6424C23.2542 46.8643 23.6958 46.9811 24.1455 46.9805C24.5952 46.9798 25.0364 46.8618 25.4229 46.6388C25.8095 46.4158 26.1271 46.0959 26.3425 45.7128Z" fill="white"/>
</svg>
