<svg viewBox="0 0 792 272" fill="none" xmlns="http://www.w3.org/2000/svg">
<rect x="384.578" y="26.0457" width="37.6164" height="160.637" rx="3.07072" fill="#F8F8F8"/>
<rect x="337.555" y="52.9143" width="37.6163" height="131.657" rx="3.07072" transform="rotate(-90 337.555 52.9143)" fill="#F8F8F8"/>
<path d="M767.465 38.1672L773.902 49.6702C774.837 51.343 776.243 52.7184 777.954 53.6317L789.708 59.9259C790.137 60.1515 790.495 60.4867 790.745 60.8956C790.995 61.3045 791.127 61.772 791.127 62.2484C791.127 62.7247 790.995 63.1923 790.745 63.6012C790.495 64.0101 790.137 64.3453 789.708 64.5709L777.954 70.865C776.243 71.7784 774.837 73.1532 773.902 74.826L767.465 86.3295C767.23 86.7458 766.886 87.0926 766.467 87.3342C766.048 87.5759 765.571 87.7036 765.085 87.7036C764.598 87.7036 764.121 87.5759 763.703 87.3342C763.284 87.0926 762.939 86.7458 762.704 86.3295L756.278 74.826C755.343 73.1532 753.937 71.7784 752.227 70.865L740.462 64.5709C740.036 64.3428 739.681 64.0066 739.433 63.598C739.185 63.1894 739.055 62.7233 739.055 62.2484C739.055 61.7735 739.185 61.3073 739.433 60.8987C739.681 60.4902 740.036 60.154 740.462 59.9259L752.227 53.6317C753.937 52.7184 755.343 51.343 756.278 49.6702L762.704 38.1672C762.939 37.751 763.284 37.4037 763.703 37.162C764.121 36.9204 764.598 36.7932 765.085 36.7932C765.571 36.7932 766.048 36.9204 766.467 37.162C766.886 37.4037 767.23 37.751 767.465 38.1672Z" fill="url(#paint0_linear_12481_166422)"/>
<path d="M24.0738 224.044L17.6474 212.54C16.7094 210.867 15.2995 209.492 13.5853 208.579L1.8315 202.285C1.40279 202.058 1.04478 201.721 0.795316 201.311C0.545848 200.902 0.414062 200.434 0.414062 199.957C0.414062 199.48 0.545848 199.012 0.795316 198.603C1.04478 198.193 1.40279 197.856 1.8315 197.629L13.5853 191.346C15.2995 190.433 16.7094 189.058 17.6474 187.385L24.0738 175.881C24.3087 175.465 24.6536 175.118 25.0723 174.876C25.491 174.635 25.9683 174.507 26.4545 174.507C26.9407 174.507 27.418 174.635 27.8367 174.876C28.2554 175.118 28.6003 175.465 28.8352 175.881L35.2615 187.385C36.1986 189.055 37.604 190.429 39.3125 191.346L51.0775 197.629C51.5062 197.856 51.8642 198.193 52.1137 198.603C52.3631 199.012 52.4947 199.48 52.4947 199.957C52.4947 200.434 52.3631 200.902 52.1137 201.311C51.8642 201.721 51.5062 202.058 51.0775 202.285L39.3014 208.633C37.5929 209.55 36.1875 210.924 35.2504 212.594L28.8241 224.098C28.5834 224.509 28.2349 224.85 27.8145 225.085C27.3941 225.32 26.9169 225.441 26.4325 225.435C25.9482 225.43 25.4742 225.298 25.0595 225.053C24.6448 224.809 24.3046 224.46 24.0738 224.044Z" fill="url(#paint1_linear_12481_166422)"/>
<path d="M601.997 125.282C601.997 86.5824 573.006 74.6013 537.767 74.6013H482.417C481.919 74.6013 481.425 74.6978 480.964 74.8843C480.504 75.0708 480.085 75.344 479.733 75.6887C479.38 76.0333 479.101 76.4423 478.91 76.8926C478.719 77.3429 478.621 77.8258 478.621 78.3132V233.501C478.624 234.483 479.025 235.424 479.737 236.118C480.448 236.812 481.412 237.201 482.417 237.201H512.551C513.555 237.201 514.519 236.812 515.231 236.118C515.942 235.424 516.343 234.483 516.346 233.501V182.397C516.346 181.416 516.745 180.474 517.455 179.78C518.165 179.086 519.127 178.697 520.131 178.697H533.827C534.512 178.7 535.183 178.884 535.769 179.23C536.355 179.576 536.834 180.07 537.157 180.661L566.769 235.237C567.093 235.826 567.573 236.319 568.159 236.665C568.744 237.01 569.414 237.195 570.098 237.201H603.395C604.06 237.207 604.714 237.042 605.293 236.723C605.872 236.403 606.354 235.94 606.692 235.38C607.029 234.82 607.21 234.183 607.216 233.533C607.222 232.883 607.052 232.243 606.725 231.677L574.216 175.452C573.971 175.017 573.818 174.538 573.766 174.044C573.715 173.55 573.765 173.052 573.916 172.578C574.066 172.103 574.313 171.663 574.641 171.285C574.969 170.906 575.372 170.596 575.825 170.373C591.652 162.179 601.997 147.507 601.997 125.282ZM516.346 107.527C516.345 107.041 516.442 106.559 516.631 106.109C516.821 105.66 517.1 105.251 517.452 104.907C517.803 104.563 518.221 104.291 518.681 104.105C519.141 103.92 519.634 103.825 520.131 103.827H534.704C554.471 103.827 565.082 109.253 565.082 125.282C565.082 141.31 554.471 149.525 534.704 149.525H520.131C519.127 149.525 518.165 149.136 517.455 148.442C516.745 147.748 516.346 146.807 516.346 145.825V107.527Z" fill="#F8F8F8"/>
<path d="M302.085 130.722L281.74 122.29C265.791 116.43 254.637 112.859 254.637 103.071C254.637 93.575 263.05 88.5505 275.447 88.5505C290.342 88.5505 300.298 92.3053 310.875 99.2724C311.662 99.8 312.623 100.02 313.568 99.8898C314.513 99.7592 315.374 99.2874 315.981 98.5671L330.409 80.8453C331.029 80.0885 331.33 79.1284 331.249 78.1619C331.169 77.1954 330.713 76.2957 329.976 75.647C315.331 63.4313 296.706 56.7309 277.456 56.753C241.307 56.753 216.501 78.2841 216.501 105.219C216.501 128.888 233.316 142.714 251.751 149.562L273.416 158.602C289.166 165.048 299.044 167.88 299.044 179.59C299.044 187.545 291.663 193.59 275.736 193.59C260.808 193.59 246.402 187.675 234.37 178.809C233.605 178.227 232.639 177.957 231.675 178.056C230.711 178.155 229.823 178.615 229.198 179.34L212.361 199.027C211.71 199.793 211.393 200.778 211.478 201.771C211.564 202.764 212.044 203.684 212.816 204.333C229.895 217.912 251.226 225.345 273.239 225.387C314.416 225.387 337.612 201.967 337.612 174.934C337.624 151.982 323.905 138.71 302.085 130.722Z" fill="#F8F8F8"/>
<path d="M688.499 102.43C648.887 102.43 621.605 131.655 621.605 185.992C621.605 241.632 648.887 271.053 688.499 271.053C728.111 271.053 755.403 241.632 755.403 185.992C755.436 131.666 728.122 102.43 688.499 102.43ZM688.499 239.277C671.151 239.277 660.196 221.089 660.196 186.003C660.196 152.209 671.151 134.227 688.499 134.227C705.846 134.227 716.812 152.209 716.812 186.003C716.812 221.089 705.857 239.277 688.499 239.277Z" fill="#F8F8F8"/>
<path d="M161.849 162.309C160.514 162.309 159.333 161.447 158.925 160.176L150.096 132.65C149.688 131.38 148.506 130.518 147.172 130.518H98.56C97.2496 130.518 96.0836 131.349 95.6568 132.588L86.1293 160.238C85.7024 161.477 84.5364 162.309 83.2261 162.309H48.6368C45.9708 162.309 44.1167 159.658 45.0314 157.154L101.251 3.23368C101.804 1.71945 103.244 0.712158 104.856 0.712158H141.928C143.543 0.712158 144.986 1.72355 145.537 3.2422L201.344 157.162C202.251 159.665 200.397 162.309 197.735 162.309H161.849ZM135.885 96.8604C136.904 96.8604 137.64 95.8858 137.362 94.9055L124.489 49.5889C124.068 48.1075 121.972 48.0988 121.539 49.5767L108.261 94.8933C107.973 95.8764 108.71 96.8604 109.734 96.8604H135.885Z" fill="#F8F8F8"/>
<defs>
<linearGradient id="paint0_linear_12481_166422" x1="743.203" y1="39.4261" x2="783.743" y2="83.6467" gradientUnits="userSpaceOnUse">
<stop stop-color="#68EA9C"/>
<stop offset="1" stop-color="#1E62F9"/>
</linearGradient>
<linearGradient id="paint1_linear_12481_166422" x1="10.8104" y1="180.938" x2="41.4649" y2="219.909" gradientUnits="userSpaceOnUse">
<stop stop-color="#E379C6"/>
<stop offset="1" stop-color="#E59E41"/>
</linearGradient>
</defs>
</svg>
