<svg width="39" height="43" viewBox="0 0 39 43" fill="none" xmlns="http://www.w3.org/2000/svg">
<path d="M7.50087 1.07363C6.81638 0.701305 6.03977 0.515817 5.24912 0.53583C4.45847 0.555844 3.68163 0.780644 2.99673 1.18763C2.31182 1.59461 1.74298 2.16943 1.3474 2.8543C0.951819 3.53917 0.743438 4.30996 0.743205 5.08915L0.734923 21.7357L0.727694 38.384C0.729042 39.1619 0.937826 39.9204 1.33312 40.5835C1.72841 41.2465 2.29631 41.7909 2.97994 42.1621C3.66356 42.5333 4.4389 42.7183 5.22822 42.6984C6.01755 42.6785 6.79315 42.4545 7.4773 42.0489L36.7398 24.6606C37.4232 24.2536 37.9907 23.6795 38.3855 22.9957C38.7804 22.3119 38.9886 21.5425 38.9894 20.7646C38.9902 19.9867 38.7836 19.2277 38.3902 18.5635C37.9968 17.8992 37.4304 17.3533 36.7479 16.9802L22.122 9.0271L7.50087 1.07363Z" fill="white"/>
</svg>
