<svg width="315" height="92" viewBox="0 0 315 92" fill="none" xmlns="http://www.w3.org/2000/svg">
<path d="M306.097 91.1477L275.688 82.2716C271.267 80.981 266.566 80.986 262.142 82.2859L231.72 91.2262C230.616 91.5504 229.445 91.5717 228.331 91.2879C227.216 91.004 226.2 90.4254 225.387 89.6128C224.574 88.8002 223.996 87.7835 223.712 86.6693C223.428 85.555 223.449 84.3843 223.774 83.2798L232.714 52.8582C234.014 48.4341 234.019 43.7327 232.728 39.3114L223.852 8.90326C223.53 7.7998 223.511 6.62922 223.796 5.51447C224.082 4.39971 224.663 3.38183 225.477 2.56763C226.291 1.75342 227.309 1.1729 228.424 0.886999C229.539 0.6011 230.709 0.620314 231.813 0.9427L262.221 9.81884C266.642 11.1094 271.344 11.1044 275.768 9.80447L306.189 0.864202C307.294 0.539939 308.464 0.518654 309.579 0.802496C310.693 1.08634 311.71 1.66493 312.522 2.47754C313.335 3.29015 313.913 4.30685 314.197 5.4211C314.481 6.53536 314.46 7.70608 314.136 8.81053L305.195 39.2322C303.895 43.6563 303.89 48.3577 305.181 52.7791L314.057 83.1871C314.379 84.2906 314.399 85.4611 314.113 86.5759C313.827 87.6906 313.246 88.7085 312.432 89.5227C311.618 90.3369 310.6 90.9175 309.485 91.2034C308.371 91.4893 307.2 91.47 306.097 91.1477Z" fill="url(#paint0_linear_13843_46909)"/>
<path d="M72.4479 81.5649C93.7766 66.1994 99.6884 37.8914 85.6524 18.337C71.6164 -1.21739 42.9476 -4.61327 21.6189 10.7522C0.290134 26.1177 -5.62183 54.4259 8.41421 73.9803C22.4502 93.5347 51.1191 96.9304 72.4479 81.5649Z" fill="url(#paint1_linear_13843_46909)"/>
<path d="M120.751 81.8009C120.761 83.4713 121.219 85.1229 122.078 86.5896C122.937 88.0562 124.167 89.2863 125.644 90.1561C127.121 91.0258 128.793 91.5047 130.492 91.5444C132.192 91.5842 133.858 91.1834 135.324 90.3825L197.97 56.1701C199.432 55.3676 200.642 54.1949 201.478 52.7694C202.315 51.3439 202.749 49.7158 202.737 48.0481C202.725 46.3804 202.268 44.7318 201.41 43.2675C200.553 41.8032 199.326 40.5746 197.852 39.7049L134.746 2.54414C133.27 1.67726 131.601 1.20016 129.904 1.16069C128.208 1.12121 126.545 1.52077 125.08 2.31925C123.616 3.11773 122.403 4.28709 121.562 5.71021C120.722 7.13333 120.283 8.76019 120.29 10.4277L120.751 81.8009Z" fill="white"/>
<defs>
<linearGradient id="paint0_linear_13843_46909" x1="223.514" y1="0.604248" x2="313.994" y2="69.8955" gradientUnits="userSpaceOnUse">
<stop stop-color="#0AE799"/>
<stop offset="1" stop-color="#1D62F6"/>
</linearGradient>
<linearGradient id="paint1_linear_13843_46909" x1="23.7578" y1="21.6517" x2="95.9542" y2="77.0896" gradientUnits="userSpaceOnUse">
<stop stop-color="#F279C5"/>
<stop offset="1" stop-color="#FD9B41"/>
</linearGradient>
</defs>
</svg>
