<svg  viewBox="0 0 12 12" fill="none" xmlns="http://www.w3.org/2000/svg">
<g clip-path="url(#clip0_1429_49350)">
<path fill-rule="evenodd" clip-rule="evenodd" d="M9.447 8.69924C10.1288 8.01749 10.5932 7.14884 10.7813 6.20317C10.9694 5.2575 10.8729 4.27728 10.504 3.38646C10.135 2.49565 9.51015 1.73426 8.70848 1.19856C7.90672 0.662877 6.9642 0.376953 6 0.376953C5.0358 0.376953 4.09325 0.662877 3.29155 1.19856C2.48986 1.73426 1.86502 2.49565 1.49605 3.38646C1.12708 4.27728 1.03057 5.2575 1.2187 6.20317C1.40684 7.14884 1.87118 8.01749 2.553 8.69924L5.20425 11.3512C5.30872 11.4558 5.43277 11.5387 5.56932 11.5953C5.70586 11.6519 5.8522 11.681 6 11.681C6.1478 11.681 6.29415 11.6519 6.43069 11.5953C6.56722 11.5387 6.69127 11.4558 6.79575 11.3512L9.447 8.69924Z" fill="#7B61FF"/>
</g>
<defs>
<clipPath id="clip0_1429_49350">
<rect width="12" height="12" fill="white" transform="translate(0 0.00195312)"/>
</clipPath>
</defs>
</svg>
