<svg width="17" height="17" viewBox="0 0 17 17" fill="none" xmlns="http://www.w3.org/2000/svg">
<g clip-path="url(#clip0_14836_1752)">
<path d="M6.21456 6.7846C7.79252 6.7846 9.07171 5.50541 9.07171 3.92746C9.07171 2.3495 7.79252 1.07031 6.21456 1.07031C4.63661 1.07031 3.35742 2.3495 3.35742 3.92746C3.35742 5.50541 4.63661 6.7846 6.21456 6.7846Z" stroke="#ACC6C5" stroke-width="1.43017" stroke-linecap="round" stroke-linejoin="round"/>
<path d="M7.92941 14.7826H1.07227V14.163C1.08136 13.2918 1.3111 12.4373 1.74 11.6791C2.16892 10.9208 2.78301 10.2837 3.52492 9.8271C4.26684 9.37053 5.11237 9.10947 5.98253 9.06827C6.8527 9.02707 7.71911 9.2071 8.50084 9.59153" stroke="#ACC6C5" stroke-width="1.43017" stroke-linecap="round" stroke-linejoin="round"/>
<path d="M12.502 9.07031V15.9275" stroke="#ACC6C5" stroke-width="1.43017" stroke-linecap="round" stroke-linejoin="round"/>
<path d="M9.07227 12.5H15.9294" stroke="#ACC6C5" stroke-width="1.43017" stroke-linecap="round" stroke-linejoin="round"/>
</g>
<defs>
<clipPath id="clip0_14836_1752">
<rect width="16" height="16" fill="white" transform="translate(0.5 0.5)"/>
</clipPath>
</defs>
</svg>
