<svg width="20" height="20" viewBox="0 0 20 20" fill="none" xmlns="http://www.w3.org/2000/svg">
<path fill-rule="evenodd" clip-rule="evenodd" d="M16.357 6.25551C16.1451 4.14137 14.3166 3.43934 12.0107 3.24625L11.9994 0.3125L10.2132 0.319665L10.2243 3.17609C9.75529 3.17783 9.27546 3.18895 8.79874 3.20029L8.78796 0.324954L7.00318 0.331756L7.01378 3.26467C6.62719 3.27405 6.24753 3.28269 5.87732 3.28435L5.87705 3.27526L3.41406 3.28387L3.42185 5.19111C3.42185 5.19111 4.74046 5.1609 4.71864 5.18527C5.44196 5.18271 5.67947 5.60161 5.74886 5.96383L5.76185 9.30598C5.81176 9.30606 5.87688 9.30789 5.95065 9.3177L5.76249 9.31855L5.77954 14.0007C5.74867 14.2285 5.61625 14.5919 5.1109 14.5947C5.13383 14.6149 3.8128 14.5994 3.8128 14.5994L3.4663 16.7339L5.79067 16.7247C6.05306 16.724 6.3129 16.7259 6.56989 16.7277H6.57019C6.73666 16.7288 6.90194 16.73 7.06594 16.7305L7.07822 19.6981L8.86204 19.6915L8.85119 16.7556C9.34054 16.764 9.81455 16.766 10.2773 16.7638L10.2877 19.6861L12.0735 19.6791L12.0627 16.7172C15.0642 16.5334 17.163 15.7689 17.4123 12.9493C17.6143 10.6784 16.543 9.6694 14.8371 9.26622C15.8701 8.73408 16.5139 7.80269 16.3565 6.25563L16.357 6.25551ZM13.9349 13.0381C13.9432 15.0733 10.7453 15.0407 9.28344 15.0258C9.15253 15.0245 9.03554 15.0233 8.93602 15.0237L8.92138 11.0924C9.04305 11.092 9.1908 11.0879 9.35817 11.0833C10.8562 11.0422 13.9263 10.958 13.9354 13.038L13.9349 13.0381ZM9.1432 9.2426C10.3637 9.25789 13.0241 9.29122 13.0175 7.44213C13.0105 5.55053 10.4515 5.62835 9.20165 5.66635C9.06115 5.67062 8.93719 5.67439 8.83527 5.67481L8.84886 9.24031C8.93298 9.23997 9.03213 9.24121 9.1432 9.2426Z" fill="#001E20"/>
</svg>
