<svg width="20" height="21" viewBox="0 0 20 21" fill="none" xmlns="http://www.w3.org/2000/svg">
<g clip-path="url(#clip0_14836_13535)">
<path d="M13.5737 2.64062H15.7165C16.0954 2.64063 16.4588 2.79113 16.7267 3.05904C16.9946 3.32695 17.1451 3.69032 17.1451 4.0692V18.3549C17.1451 18.7338 16.9946 19.0972 16.7267 19.3651C16.4588 19.633 16.0954 19.7835 15.7165 19.7835H4.28795C3.90907 19.7835 3.5457 19.633 3.27779 19.3651C3.00988 19.0972 2.85938 18.7338 2.85938 18.3549V4.0692C2.85938 3.69032 3.00988 3.32695 3.27779 3.05904C3.5457 2.79113 3.90907 2.64063 4.28795 2.64062H6.4308" fill="#001E20"/>
<path d="M13.5737 2.64062H15.7165C16.0954 2.64063 16.4588 2.79113 16.7267 3.05904C16.9946 3.32695 17.1451 3.69032 17.1451 4.0692V18.3549C17.1451 18.7338 16.9946 19.0972 16.7267 19.3651C16.4588 19.633 16.0954 19.7835 15.7165 19.7835H4.28795C3.90907 19.7835 3.5457 19.633 3.27779 19.3651C3.00988 19.0972 2.85938 18.7338 2.85938 18.3549V4.0692C2.85938 3.69032 3.00988 3.32695 3.27779 3.05904C3.5457 2.79113 3.90907 2.64063 4.28795 2.64062H6.4308" stroke="#001E20" stroke-width="1.43017" stroke-linecap="round" stroke-linejoin="round"/>
<path d="M12.1479 1.21094H7.86217C7.07319 1.21094 6.43359 1.85053 6.43359 2.63951V3.35379C6.43359 4.14277 7.07319 4.78237 7.86217 4.78237H12.1479C12.9369 4.78237 13.5765 4.14277 13.5765 3.35379V2.63951C13.5765 1.85053 12.9369 1.21094 12.1479 1.21094Z" fill="white" stroke="#001E20" stroke-width="1.43017" stroke-linecap="round" stroke-linejoin="round"/>
<path d="M6.42969 8.35156H13.5725" stroke="white" stroke-width="1.43017" stroke-linecap="round" stroke-linejoin="round"/>
<path d="M6.42969 11.9258H13.5725" stroke="white" stroke-width="1.43017" stroke-linecap="round" stroke-linejoin="round"/>
<path d="M6.42969 15.4961H13.5725" stroke="white" stroke-width="1.43017" stroke-linecap="round" stroke-linejoin="round"/>
</g>
<defs>
<clipPath id="clip0_14836_13535">
<rect width="20" height="20" fill="white" transform="translate(0 0.5)"/>
</clipPath>
</defs>
</svg>
