<svg width="18" height="21" viewBox="0 0 18 21" fill="none" xmlns="http://www.w3.org/2000/svg">
<path d="M14 5.50056C14 6.82664 13.4732 8.09841 12.5355 9.03609C11.5979 9.97377 10.3261 10.5006 9 10.5006C7.67392 10.5006 6.40215 9.97377 5.46447 9.03609C4.52678 8.09841 4 6.82664 4 5.50056V1.21484H14V5.50056Z" stroke="#DD8500" stroke-width="1.43017" stroke-linecap="round" stroke-linejoin="round"/>
<path d="M14 15.5C14 14.1739 13.4732 12.9021 12.5355 11.9645C11.5979 11.0268 10.3261 10.5 9 10.5C7.67392 10.5 6.40215 11.0268 5.46447 11.9645C4.52678 12.9021 4 14.1739 4 15.5V19.7857H14V15.5Z" stroke="#DD8500" stroke-width="1.43017" stroke-linecap="round" stroke-linejoin="round"/>
<path d="M1.14062 1.21484H16.8549" stroke="#DD8500" stroke-width="1.43017" stroke-linecap="round" stroke-linejoin="round"/>
<path d="M1.14062 19.7891H16.8549" stroke="#DD8500" stroke-width="1.43017" stroke-linecap="round" stroke-linejoin="round"/>
</svg>
