<svg width="14" height="15" viewBox="0 0 14 15" fill="none" xmlns="http://www.w3.org/2000/svg">
<g clip-path="url(#clip0_14242_31654)">
<path d="M7 14C10.5899 14 13.5 11.0899 13.5 7.5C13.5 3.91015 10.5899 1 7 1C3.41015 1 0.5 3.91015 0.5 7.5C0.5 11.0899 3.41015 14 7 14Z" stroke="#0E656B" stroke-linecap="round" stroke-linejoin="round"/>
<path d="M5.5 6C5.5 5.70333 5.58797 5.41332 5.7528 5.16665C5.91762 4.91997 6.15189 4.72771 6.42597 4.61418C6.70006 4.50065 7.00166 4.47094 7.29264 4.52882C7.58361 4.5867 7.85088 4.72956 8.06066 4.93934C8.27044 5.14912 8.4133 5.41639 8.47118 5.70737C8.52906 5.99834 8.49935 6.29994 8.38582 6.57403C8.27229 6.84812 8.08003 7.08238 7.83336 7.24721C7.58668 7.41203 7.29667 7.5 7 7.5V8.5" stroke="#0E656B" stroke-linecap="round" stroke-linejoin="round"/>
<path d="M7 10C6.85166 10 6.70666 10.044 6.58332 10.1264C6.45999 10.2088 6.36386 10.3259 6.30709 10.463C6.25032 10.6 6.23547 10.7508 6.26441 10.8963C6.29335 11.0418 6.36478 11.1754 6.46967 11.2803C6.57456 11.3852 6.7082 11.4567 6.85368 11.4856C6.99917 11.5145 7.14997 11.4997 7.28701 11.4429C7.42406 11.3861 7.54119 11.29 7.6236 11.1667C7.70601 11.0433 7.75 10.8983 7.75 10.75C7.74741 10.5519 7.66756 10.3626 7.52747 10.2225C7.38737 10.0824 7.19811 10.0026 7 10Z" fill="#0E656B"/>
</g>
<defs>
<clipPath id="clip0_14242_31654">
<rect width="14" height="14" fill="white" transform="translate(0 0.5)"/>
</clipPath>
</defs>
</svg>
