<svg width="32" height="32" viewBox="0 0 32 32" fill="none" xmlns="http://www.w3.org/2000/svg">
<path fill-rule="evenodd" clip-rule="evenodd" d="M5 3.5C5 3.22386 5.22386 3 5.5 3H22.5C22.7762 3 23 3.22386 23 3.5V18.9729C23 19.8013 23.6716 20.473 24.5 20.473C25.3284 20.473 26 19.8013 26 18.9729V3.5C26 1.567 24.433 0 22.5 0H5.5C3.567 0 2 1.567 2 3.5V26.5C2 28.433 3.567 30 5.5 30H11.8417C12.6701 30 13.3417 29.3284 13.3417 28.5C13.3417 27.6716 12.6701 27 11.8417 27H5.5C5.22386 27 5 26.7762 5 26.5V3.5ZM9.5 8C8.67158 8 8 8.67158 8 9.5C8 10.3284 8.67158 11 9.5 11H18.5C19.3284 11 20 10.3284 20 9.5C20 8.67158 19.3284 8 18.5 8H9.5ZM8 15.5C8 14.6716 8.67158 14 9.5 14H13.5C14.3284 14 15 14.6716 15 15.5C15 16.3284 14.3284 17 13.5 17H9.5C8.67158 17 8 16.3284 8 15.5ZM31.548 22.5732C32.1406 21.9944 32.152 21.0446 31.5732 20.452C30.9944 19.8593 30.0446 19.848 29.452 20.4268L21.4006 28.2894L18.5625 25.4412C17.9778 24.8544 17.028 24.8528 16.4412 25.4374C15.8544 26.0222 15.8527 26.972 16.4375 27.5588L20.3236 31.4588C20.9042 32.0414 21.8458 32.0478 22.4342 31.4732L31.548 22.5732Z" fill="#0D2839"/>
</svg>
