<svg width="28" height="28" viewBox="0 0 28 28" fill="none" xmlns="http://www.w3.org/2000/svg">
<path fill-rule="evenodd" clip-rule="evenodd" d="M13.5625 24.4996C11.8711 24.4996 10.5 23.1285 10.5 21.4371V6.56213C10.5 4.87076 11.8711 3.49963 13.5625 3.49963H24.9375C26.6289 3.49963 28 4.87076 28 6.56213V21.4371C28 23.1285 26.6289 24.4996 24.9375 24.4996H13.5625ZM13.125 21.4371C13.125 21.6788 13.3209 21.8746 13.5625 21.8746H24.9375C25.1792 21.8746 25.375 21.6788 25.375 21.4371V6.56213C25.375 6.32051 25.1792 6.12463 24.9375 6.12463H13.5625C13.3209 6.12463 13.125 6.32051 13.125 6.56213V21.4371ZM8.5736 6.13886C8.93657 6.76631 8.72216 7.56921 8.09469 7.93217C7.9605 8.00979 7.875 8.15166 7.875 8.31194V19.687C7.875 19.8473 7.9605 19.989 8.09469 20.0667C8.72216 20.4297 8.93657 21.2326 8.5736 21.8601C8.21065 22.4875 7.40775 22.7019 6.78029 22.3389C5.86834 21.8115 5.25 20.8222 5.25 19.687V8.31194C5.25 7.17673 5.86834 6.18749 6.7803 5.65996C7.40775 5.29699 8.21065 5.5114 8.5736 6.13886ZM2.8447 9.68217C3.47216 9.31921 3.68657 8.51631 3.3236 7.88886C2.96065 7.2614 2.15775 7.04699 1.5303 7.40996C0.618338 7.93749 0 8.92673 0 10.0619V17.937C0 19.0722 0.618338 20.0615 1.5303 20.5889C2.15775 20.9519 2.96065 20.7375 3.3236 20.1101C3.68657 19.4826 3.47216 18.6797 2.8447 18.3167C2.71051 18.239 2.625 18.0973 2.625 17.937V10.0619C2.625 9.90166 2.71051 9.75979 2.8447 9.68217Z" fill="#0D2839"/>
</svg>
