<svg width="17" height="17" viewBox="0 0 17 17" fill="none" xmlns="http://www.w3.org/2000/svg">
<g clip-path="url(#clip0_13426_23800)">
<path fill-rule="evenodd" clip-rule="evenodd" d="M3.30029 4.19971C3.30029 4.06667 3.35842 3.88177 3.58214 3.64905C3.80942 3.41261 4.17423 3.16548 4.68293 2.94165C5.69822 2.49493 7.15332 2.19971 8.80029 2.19971C10.4473 2.19971 11.9024 2.49493 12.9177 2.94165C13.4264 3.16548 13.7912 3.41261 14.0185 3.64905C14.2422 3.88177 14.3003 4.06667 14.3003 4.19971C14.3003 4.33275 14.2422 4.51765 14.0185 4.75037C13.7912 4.98681 13.4264 5.23394 12.9177 5.45777C11.9024 5.90449 10.4473 6.19971 8.80029 6.19971C7.15332 6.19971 5.69822 5.90449 4.68293 5.45777C4.17423 5.23394 3.80942 4.98681 3.58214 4.75037C3.35842 4.51765 3.30029 4.33275 3.30029 4.19971ZM1.80029 4.19971C1.80029 3.57336 2.09193 3.03481 2.50075 2.60953C2.90601 2.18795 3.45649 1.84251 4.07882 1.56868C5.32558 1.0201 6.99548 0.699707 8.80029 0.699707C10.6051 0.699707 12.275 1.0201 13.5218 1.56868C14.1441 1.84251 14.6946 2.18795 15.0998 2.60953C15.5087 3.03481 15.8003 3.57336 15.8003 4.19971V13.1997C15.8003 13.8261 15.5087 14.3646 15.0998 14.7899C14.6946 15.2115 14.1441 15.5569 13.5218 15.8307C12.275 16.3793 10.6051 16.6997 8.80029 16.6997C6.99548 16.6997 5.32558 16.3793 4.07882 15.8307C3.45649 15.5569 2.90601 15.2115 2.50075 14.7899C2.09193 14.3646 1.80029 13.8261 1.80029 13.1997V4.19971ZM3.30029 8.69971V6.42419C3.54144 6.57403 3.80308 6.70941 4.07882 6.83074C5.32558 7.37932 6.99548 7.69971 8.80029 7.69971C10.6051 7.69971 12.275 7.37932 13.5218 6.83074C13.7975 6.70941 14.0592 6.57403 14.3003 6.42419V8.69971C14.3003 8.83275 14.2422 9.01765 14.0185 9.25037C13.7912 9.48681 13.4264 9.73394 12.9177 9.95777C11.9024 10.4045 10.4473 10.6997 8.80029 10.6997C7.15332 10.6997 5.69822 10.4045 4.68293 9.95777C4.17423 9.73394 3.80942 9.48681 3.58214 9.25037C3.35842 9.01765 3.30029 8.83275 3.30029 8.69971ZM3.30029 10.9242V13.1997C3.30029 13.3327 3.35842 13.5176 3.58214 13.7504C3.80942 13.9868 4.17423 14.2339 4.68293 14.4578C5.69822 14.9045 7.15332 15.1997 8.80029 15.1997C10.4473 15.1997 11.9024 14.9045 12.9177 14.4578C13.4264 14.2339 13.7912 13.9868 14.0185 13.7504C14.2422 13.5176 14.3003 13.3327 14.3003 13.1997V10.9242C14.0592 11.074 13.7975 11.2094 13.5218 11.3307C12.275 11.8793 10.6051 12.1997 8.80029 12.1997C6.99548 12.1997 5.32558 11.8793 4.07882 11.3307C3.80308 11.2094 3.54144 11.074 3.30029 10.9242Z" fill="#0D2839"/>
</g>
<defs>
<clipPath id="clip0_13426_23800">
<rect width="16" height="16" fill="white" transform="translate(0.800293 0.699707)"/>
</clipPath>
</defs>
</svg>
