<svg width="30" height="22" viewBox="0 0 30 22" fill="none" xmlns="http://www.w3.org/2000/svg">
<mask id="path-1-inside-1_10106_6033" fill="white">
<path d="M14.0179 7.90643C13.6519 7.5403 13.6519 6.94673 14.0179 6.5806C14.3842 6.21446 14.9777 6.21446 15.3438 6.5806L18.4375 9.67424L21.5311 6.5806C21.8971 6.21446 22.4907 6.21446 22.8569 6.5806C23.223 6.94666 23.223 7.5403 22.8569 7.90643L19.7632 11L22.8569 14.0936C23.223 14.4597 23.223 15.0533 22.8569 15.4194C22.4907 15.7855 21.8971 15.7855 21.5311 15.4194L18.4375 12.3258L15.3438 15.4194C14.9777 15.7855 14.3842 15.7855 14.0181 15.4194C13.6519 15.0533 13.6519 14.4597 14.0181 14.0936L17.1117 11.0001L14.0179 7.90643Z"/>
<path fill-rule="evenodd" clip-rule="evenodd" d="M10.1517 1.47333L0.625 11L10.1517 20.5267C10.8549 21.2299 11.8088 21.625 12.8033 21.625H25.625C27.6961 21.625 29.375 19.9461 29.375 17.875V4.125C29.375 2.05392 27.6961 0.375 25.625 0.375H12.8033C11.8088 0.375 10.8549 0.770126 10.1517 1.47333ZM25.625 20H12.8033C12.2397 20 11.6992 19.7761 11.3007 19.3776L2.92313 11L11.3007 2.62239C11.6992 2.22391 12.2397 1.99998 12.8033 1.99998H25.625C26.7986 1.99998 27.7499 2.95137 27.7499 4.125V17.875C27.7499 19.0486 26.7986 20 25.625 20Z"/>
</mask>
<path d="M14.0179 7.90643C13.6519 7.5403 13.6519 6.94673 14.0179 6.5806C14.3842 6.21446 14.9777 6.21446 15.3438 6.5806L18.4375 9.67424L21.5311 6.5806C21.8971 6.21446 22.4907 6.21446 22.8569 6.5806C23.223 6.94666 23.223 7.5403 22.8569 7.90643L19.7632 11L22.8569 14.0936C23.223 14.4597 23.223 15.0533 22.8569 15.4194C22.4907 15.7855 21.8971 15.7855 21.5311 15.4194L18.4375 12.3258L15.3438 15.4194C14.9777 15.7855 14.3842 15.7855 14.0181 15.4194C13.6519 15.0533 13.6519 14.4597 14.0181 14.0936L17.1117 11.0001L14.0179 7.90643Z" fill="#0D2839"/>
<path fill-rule="evenodd" clip-rule="evenodd" d="M10.1517 1.47333L0.625 11L10.1517 20.5267C10.8549 21.2299 11.8088 21.625 12.8033 21.625H25.625C27.6961 21.625 29.375 19.9461 29.375 17.875V4.125C29.375 2.05392 27.6961 0.375 25.625 0.375H12.8033C11.8088 0.375 10.8549 0.770126 10.1517 1.47333ZM25.625 20H12.8033C12.2397 20 11.6992 19.7761 11.3007 19.3776L2.92313 11L11.3007 2.62239C11.6992 2.22391 12.2397 1.99998 12.8033 1.99998H25.625C26.7986 1.99998 27.7499 2.95137 27.7499 4.125V17.875C27.7499 19.0486 26.7986 20 25.625 20Z" fill="#0D2839"/>
<path d="M11.3007 19.3776L7.76511 22.9131L7.76546 22.9135L11.3007 19.3776ZM2.92313 11L-0.612424 7.46448L-4.14791 11L-0.612424 14.5355L2.92313 11ZM11.3007 2.62239L7.76546 -0.913482L7.76511 -0.913127L11.3007 2.62239ZM0.625 11L-2.91053 7.46447L-6.44607 11L-2.91053 14.5355L0.625 11ZM10.1517 1.47333L6.61633 -2.0624L6.61614 -2.06221L10.1517 1.47333ZM14.0179 6.5806L10.4828 3.04469L10.482 3.04543L14.0179 6.5806ZM14.0179 7.90643L10.482 11.4416L10.4825 11.442L14.0179 7.90643ZM15.3438 6.5806L11.8079 10.1158L11.8083 10.1162L15.3438 6.5806ZM18.4375 9.67424L14.902 13.2098L18.4376 16.7453L21.9731 13.2097L18.4375 9.67424ZM21.5311 6.5806L25.0666 10.1161L25.067 10.1158L21.5311 6.5806ZM22.8569 6.5806L26.3924 3.04506L26.3921 3.04469L22.8569 6.5806ZM22.8569 7.90643L26.3923 11.4421L26.3928 11.4416L22.8569 7.90643ZM19.7632 11L16.2277 7.46438L12.692 11L16.2277 14.5356L19.7632 11ZM22.8569 14.0936L26.3924 10.5581L26.3924 10.5581L22.8569 14.0936ZM22.8569 15.4194L26.3921 18.9553L26.3924 18.9549L22.8569 15.4194ZM21.5311 15.4194L25.067 11.8842L25.0666 11.8839L21.5311 15.4194ZM18.4375 12.3258L21.973 8.7903L18.4376 5.25486L14.9021 8.79022L18.4375 12.3258ZM15.3438 15.4194L11.8083 11.8838L11.8079 11.8842L15.3438 15.4194ZM14.0181 15.4194L17.554 11.8842L17.5533 11.8835L14.0181 15.4194ZM14.0181 14.0936L17.5533 17.6295L17.5536 17.6291L14.0181 14.0936ZM17.1117 11.0001L20.6472 14.5357L24.1828 11.0001L20.6472 7.4645L17.1117 11.0001ZM12.8033 25H25.625V15H12.8033V25ZM7.76546 22.9135C9.10137 24.2491 10.9133 25 12.8033 25V15C13.566 15 14.2971 15.303 14.8359 15.8417L7.76546 22.9135ZM-0.612424 14.5355L7.76511 22.9131L14.8362 15.8421L6.45868 7.46448L-0.612424 14.5355ZM7.76511 -0.913127L-0.612424 7.46448L6.45868 14.5355L14.8362 6.15791L7.76511 -0.913127ZM12.8033 -3.00002C10.9133 -3.00002 9.10137 -2.24914 7.76546 -0.913482L14.8359 6.15826C14.2971 6.69695 13.566 6.99998 12.8033 6.99998V-3.00002ZM25.625 -3.00002H12.8033V6.99998H25.625V-3.00002ZM32.7499 4.125C32.7499 0.190063 29.5601 -3.00002 25.625 -3.00002V6.99998C24.037 6.99998 22.7499 5.71268 22.7499 4.125H32.7499ZM32.7499 17.875V4.125H22.7499V17.875H32.7499ZM25.625 25C29.5601 25 32.7499 21.8099 32.7499 17.875H22.7499C22.7499 16.2873 24.037 15 25.625 15V25ZM4.16053 14.5355L13.6872 5.00886L6.61614 -2.06221L-2.91053 7.46447L4.16053 14.5355ZM13.6872 16.9911L4.16053 7.46447L-2.91053 14.5355L6.61614 24.0622L13.6872 16.9911ZM12.8033 16.625C13.1347 16.625 13.4527 16.7567 13.6872 16.9911L6.61614 24.0622C8.25718 25.7032 10.4828 26.625 12.8033 26.625V16.625ZM25.625 16.625H12.8033V26.625H25.625V16.625ZM24.375 17.875C24.375 17.1847 24.9347 16.625 25.625 16.625V26.625C30.4575 26.625 34.375 22.7075 34.375 17.875H24.375ZM24.375 4.125V17.875H34.375V4.125H24.375ZM25.625 5.375C24.9347 5.375 24.375 4.81535 24.375 4.125H34.375C34.375 -0.707499 30.4575 -4.625 25.625 -4.625V5.375ZM12.8033 5.375H25.625V-4.625H12.8033V5.375ZM13.687 5.00905C13.4528 5.24327 13.135 5.375 12.8033 5.375V-4.625C10.4826 -4.625 8.25713 -3.70302 6.61633 -2.0624L13.687 5.00905ZM10.482 3.04543C8.16385 5.3641 8.16385 9.12293 10.482 11.4416L17.5538 4.37127C19.1399 5.95767 19.1399 8.52936 17.5538 10.1158L10.482 3.04543ZM18.8797 3.04543C16.5605 0.725777 12.8011 0.726837 10.4828 3.04469L17.5531 10.1165C15.9672 11.7021 13.3949 11.7031 11.8079 10.1158L18.8797 3.04543ZM21.973 6.13866L18.8793 3.04502L11.8083 10.1162L14.902 13.2098L21.973 6.13866ZM17.9955 3.04511L14.9019 6.13875L21.9731 13.2097L25.0666 10.1161L17.9955 3.04511ZM26.3921 3.04469C24.0737 0.726837 20.3143 0.725777 17.9952 3.04543L25.067 10.1158C23.4799 11.7031 20.9077 11.7021 19.3217 10.1165L26.3921 3.04469ZM26.3928 11.4416C28.7108 9.12313 28.7113 5.36395 26.3924 3.04506L19.3214 10.1161C17.7346 8.52936 17.7351 5.95747 19.321 4.37127L26.3928 11.4416ZM23.2986 14.5356L26.3923 11.4421L19.3215 4.37081L16.2277 7.46438L23.2986 14.5356ZM26.3924 10.5581L23.2987 7.46442L16.2277 14.5356L19.3214 17.6292L26.3924 10.5581ZM26.3924 18.9549C28.7111 16.6363 28.7111 12.8768 26.3924 10.5581L19.3214 17.6292C17.7348 16.0426 17.7348 13.4704 19.3214 11.8839L26.3924 18.9549ZM17.9952 18.9546C20.3143 21.2742 24.0737 21.2732 26.3921 18.9553L19.3217 11.8835C20.9077 10.2979 23.4799 10.2969 25.067 11.8842L17.9952 18.9546ZM14.902 15.8614L17.9955 18.9549L25.0666 11.8839L21.973 8.7903L14.902 15.8614ZM18.8792 18.955L21.9729 15.8615L14.9021 8.79022L11.8083 11.8838L18.8792 18.955ZM10.4822 18.9546C12.801 21.2738 16.5609 21.2738 18.8797 18.9546L11.8079 11.8842C13.3945 10.2973 15.9674 10.2973 17.554 11.8842L10.4822 18.9546ZM10.4829 10.5577C8.16361 12.8765 8.16361 16.6365 10.4829 18.9553L17.5533 11.8835C19.1402 13.4701 19.1402 16.0429 17.5533 17.6295L10.4829 10.5577ZM13.5762 7.4645L10.4826 10.558L17.5536 17.6291L20.6472 14.5357L13.5762 7.4645ZM10.4825 11.442L13.5762 14.5357L20.6472 7.4645L17.5534 4.37086L10.4825 11.442Z" fill="#0D2839" mask="url(#path-1-inside-1_10106_6033)"/>
</svg>
