<svg width="32" height="32" viewBox="0 0 32 32" fill="none" xmlns="http://www.w3.org/2000/svg">
<g clip-path="url(#clip0_105_3554)">
<path fill-rule="evenodd" clip-rule="evenodd" d="M32 20.5005V5.50049C32 3.56749 30.433 2.00049 28.5 2.00049H3.5C1.567 2.00049 0 3.56749 0 5.50049V20.5005C0 22.4335 1.567 24.0005 3.5 24.0005H10.954C10.7558 26.0825 9.91365 27.7453 8.36986 29.5142C7.98308 29.9574 7.89104 30.5857 8.13444 31.1212C8.37785 31.6567 8.91178 32.0005 9.49999 32.0005H22.5C23.0882 32.0005 23.6221 31.6567 23.8655 31.1212C24.1089 30.5857 24.0169 29.9574 23.6301 29.5142C22.0863 27.7453 21.2441 26.0825 21.0459 24.0005H28.5C30.433 24.0005 32 22.4335 32 20.5005ZM29 5.50049V20.5005C29 20.7766 28.7761 21.0005 28.5 21.0005H3.5C3.22386 21.0005 3 20.7766 3 20.5005V5.50049C3 5.22435 3.22386 5.00049 3.5 5.00049H28.5C28.7761 5.00049 29 5.22435 29 5.50049ZM18.0357 24.0005H13.9643C13.8278 25.8758 13.302 27.4952 12.4346 29.0005H19.5654C18.698 27.4952 18.1722 25.8758 18.0357 24.0005Z" fill="#0D2839"/>
</g>
<defs>
<clipPath id="clip0_105_3554">
<rect width="32" height="32" fill="white"/>
</clipPath>
</defs>
</svg>
