<svg width="14" height="17" viewBox="0 0 14 17" fill="none" xmlns="http://www.w3.org/2000/svg">
<path fill-rule="evenodd" clip-rule="evenodd" d="M6.89828 15.0002C9.73083 15.0002 11.8975 13.0195 11.8975 10.5002C11.8975 9.00962 11.1951 8.28789 9.95732 7.05469C8.93911 6.04026 7.67622 4.76651 7.14942 2.64577C6.86125 2.87517 6.57975 3.16049 6.35349 3.49494C5.86643 4.21487 5.64097 5.13312 6.23918 6.32951C6.71271 7.27654 6.9088 8.61311 5.96105 9.56086C5.39651 10.1254 4.43081 10.5227 3.38277 10.0836C2.91202 9.88637 2.52243 9.5574 2.19812 9.1455C2.01691 9.52512 1.9004 9.98852 1.90039 10.5002C1.90033 13.03 4.06399 15.0002 6.89828 15.0002ZM8.41472 1C8.39858 0.72433 8.17437 0.502363 7.90734 0.57272C6.1984 1.02299 3.16289 3.53111 4.89754 7.00034C5.24181 7.68887 5.18203 8.21856 4.90039 8.5002C4.43898 8.96162 3.55176 8.99723 2.82649 7.22404C2.71989 6.96341 2.42665 6.81697 2.18475 6.96111C1.08317 7.61753 0.400425 9.0357 0.400391 10.5002C0.400307 14.0123 3.39828 16.5002 6.89828 16.5002C10.3983 16.5002 13.3975 14.0002 13.3975 10.5002C13.3975 8.36299 12.2703 7.24081 11.0866 6.06239C9.85592 4.83713 8.56413 3.55106 8.41472 1Z" fill="#0D2839"/>
</svg>
