<svg width="32" height="32" viewBox="0 0 32 32" fill="none" xmlns="http://www.w3.org/2000/svg">
<path fill-rule="evenodd" clip-rule="evenodd" d="M8 11C8 6.70916 10.9298 3 16 3C21.0702 3 24 6.70916 24 11C24 13.518 22.9802 15.1969 21.7794 16.8781C21.6598 17.0457 21.5338 17.2177 21.4044 17.3946C20.4846 18.6518 19.3879 20.1508 19.0825 22H12.9175C12.6121 20.1508 11.5155 18.6518 10.5955 17.3946C10.4662 17.2179 10.3402 17.0456 10.2206 16.8781C9.01972 15.1969 8 13.518 8 11ZM13 25V26C13 27.6568 14.3431 29 16 29C17.6569 29 19 27.6568 19 26V25H13ZM16 0C9.0702 0 5 5.2626 5 11C5 14.482 6.48028 16.8031 7.7794 18.6219C7.89386 18.7821 8.00458 18.9362 8.11144 19.0849C9.29368 20.7302 10 21.7132 10 23V26C10 29.3138 12.6863 32 16 32C19.3137 32 22 29.3138 22 26V23C22 21.7132 22.7064 20.7302 23.8886 19.0849C23.9954 18.9363 24.1062 18.782 24.2206 18.6219C25.5198 16.8031 27 14.482 27 11C27 5.2626 22.9298 0 16 0Z" fill="#0D2839"/>
</svg>
