<svg width="32" height="32" viewBox="0 0 32 32" fill="none" xmlns="http://www.w3.org/2000/svg">
<path fill-rule="evenodd" clip-rule="evenodd" d="M15.3864 2.13173C15.7768 1.95674 16.2232 1.95674 16.6136 2.13173L31.1136 8.63173C31.653 8.87349 32 9.40945 32 10.0005C32 10.5915 31.653 11.1275 31.1136 11.3692L26 13.6615V19.2505C26 21.2983 24.3788 22.7485 22.6812 23.5973C20.8938 24.4911 18.5296 25.0005 16 25.0005C15.4441 25.0005 14.8984 24.9759 14.367 24.9287C13.5418 24.8551 12.9325 24.1267 13.0059 23.3015C13.0794 22.4763 13.8078 21.8669 14.633 21.9405C15.0754 21.9799 15.5323 22.0005 16 22.0005C18.1648 22.0005 20.0506 21.5585 21.3396 20.9141C22.7184 20.2247 23 19.5498 23 19.2505V15.0064L16.6136 17.8692C16.2232 18.0442 15.7768 18.0442 15.3864 17.8692L8 14.5581V17.8838C8.59208 18.0945 9.14954 18.435 9.62318 18.9086C10.4995 19.7849 11 21.0261 11 22.5005V28.5005C11 28.8985 10.842 29.2799 10.5606 29.5613C10.2793 29.8425 9.89778 30.0007 9.49994 30.0005L3.49994 30.0003C2.67154 30.0003 2 29.3287 2 28.5003V22.5003C2 21.0261 2.50054 19.7848 3.37686 18.9085C3.85048 18.4349 4.40792 18.0944 5 17.8838V13.2133L0.886416 11.3692C0.347082 11.1275 0 10.5915 0 10.0005C0 9.40945 0.347082 8.87349 0.886416 8.63173L15.3864 2.13173ZM5.16698 10.0005L16 14.8567L26.833 10.0005L16 5.14431L5.16698 10.0005ZM5 22.5003C5 21.7247 5.24946 21.2785 5.49814 21.0299C5.76094 20.7671 6.12102 20.6255 6.49998 20.6255C6.87894 20.6255 7.23902 20.7671 7.50182 21.0299C7.75052 21.2787 8 21.7249 8 22.5005V27.0005H5V22.5003Z" fill="#0D2839"/>
</svg>
