<svg width="52" height="52" viewBox="0 0 52 52" fill="none" xmlns="http://www.w3.org/2000/svg">
<circle cx="26" cy="26" r="26" fill="#7B61FF"/>
<g clip-path="url(#clip0_10232_87500)">
<path d="M24.1234 32.1256C24.1234 34.289 23.2826 35.4673 21.5769 35.4673C19.8792 35.4673 19.0858 34.289 19.0858 32.1256V21.0078C19.0858 20.8987 19.0426 20.794 18.9656 20.7168C18.8887 20.6397 18.7844 20.5963 18.6755 20.5963H15.4103C15.3015 20.5963 15.1971 20.6397 15.1202 20.7168C15.0432 20.794 15 20.8987 15 21.0078V31.7102C15 36.4033 17.1922 39.0001 21.5769 39.0001C25.9537 39.0001 28.0588 36.4033 28.0588 31.7102V21.0078C28.0588 20.8987 28.0155 20.794 27.9386 20.7168C27.8617 20.6397 27.7573 20.5963 27.6485 20.5963H24.5333C24.4245 20.5963 24.3202 20.6397 24.2432 20.7168C24.1663 20.794 24.1231 20.8987 24.1231 21.0078L24.1234 32.1256Z" fill="#2E2657"/>
<path d="M26.8909 16.0175L29.3783 14.6526C29.74 14.4542 30.0374 14.1558 30.2352 13.793L31.5954 11.2978C31.6448 11.2073 31.7176 11.1317 31.8061 11.0791C31.8946 11.0264 31.9956 10.9987 32.0985 10.9987C32.2015 10.9987 32.3025 11.0264 32.391 11.0791C32.4795 11.1317 32.5523 11.2073 32.6017 11.2978L33.9619 13.793C34.1597 14.1558 34.4571 14.4542 34.8188 14.6526L37.3062 16.0175C37.3965 16.0671 37.4718 16.14 37.5243 16.2288C37.5768 16.3176 37.6045 16.4189 37.6045 16.5222C37.6045 16.6254 37.5768 16.7267 37.5243 16.8155C37.4718 16.9043 37.3965 16.9773 37.3062 17.0268L34.8188 18.3917C34.4571 18.5901 34.1597 18.8885 33.9619 19.2513L32.6017 21.7465C32.5523 21.837 32.4795 21.9126 32.391 21.9652C32.3025 22.0179 32.2015 22.0457 32.0985 22.0457C31.9956 22.0457 31.8946 22.0179 31.8061 21.9652C31.7176 21.9126 31.6448 21.837 31.5954 21.7465L30.2352 19.2513C30.0374 18.8885 29.74 18.5901 29.3783 18.3917L26.8909 17.0268C26.8006 16.9773 26.7253 16.9043 26.6728 16.8155C26.6203 16.7267 26.5926 16.6254 26.5926 16.5222C26.5926 16.4189 26.6203 16.3176 26.6728 16.2288C26.7253 16.14 26.8006 16.0671 26.8909 16.0175Z" fill="url(#paint0_linear_10232_87500)"/>
<path d="M37.3183 29.6695C38.9276 28.5088 39.3737 26.3706 38.3147 24.8935C37.2556 23.4165 35.0925 23.1599 33.4832 24.3206C31.8739 25.4812 31.4279 27.6195 32.4869 29.0966C33.5459 30.5736 35.7091 30.8301 37.3183 29.6695Z" fill="url(#paint1_linear_10232_87500)"/>
<g clip-path="url(#clip1_10232_87500)">
<path d="M24.1606 32.1884C24.1606 34.3582 23.3164 35.5399 21.6038 35.5399C19.8991 35.5399 19.1025 34.3582 19.1025 32.1884V21.0376C19.1025 20.9281 19.0591 20.8232 18.9818 20.7458C18.9046 20.6684 18.7998 20.6249 18.6905 20.6249H15.412C15.3027 20.6249 15.1979 20.6684 15.1207 20.7458C15.0434 20.8232 15 20.9281 15 21.0376V31.7717C15 36.4787 17.2011 39.0832 21.6038 39.0832C25.9984 39.0832 28.1121 36.4787 28.1121 31.7717V21.0376C28.1121 20.9281 28.0687 20.8232 27.9914 20.7458C27.9142 20.6684 27.8094 20.6249 27.7001 20.6249H24.5723C24.463 20.6249 24.3582 20.6684 24.281 20.7458C24.2037 20.8232 24.1603 20.9281 24.1603 21.0376L24.1606 32.1884Z" fill="white"/>
<path d="M26.9399 16.0325L29.4375 14.6636C29.8007 14.4645 30.0993 14.1653 30.2979 13.8014L31.6636 11.2988C31.7132 11.208 31.7863 11.1322 31.8752 11.0794C31.9641 11.0266 32.0655 10.9988 32.1688 10.9988C32.2722 10.9988 32.3736 11.0266 32.4625 11.0794C32.5514 11.1322 32.6245 11.208 32.6741 11.2988L34.0398 13.8014C34.2384 14.1653 34.537 14.4645 34.9002 14.6636L37.3978 16.0325C37.4884 16.0822 37.5641 16.1554 37.6168 16.2444C37.6695 16.3335 37.6973 16.4351 37.6973 16.5387C37.6973 16.6422 37.6695 16.7438 37.6168 16.8329C37.5641 16.9219 37.4884 16.9951 37.3978 17.0448L34.9002 18.4137C34.537 18.6128 34.2384 18.912 34.0398 19.2759L32.6741 21.7785C32.6245 21.8693 32.5514 21.9451 32.4625 21.9979C32.3736 22.0507 32.2722 22.0785 32.1688 22.0785C32.0655 22.0785 31.9641 22.0507 31.8752 21.9979C31.7863 21.9451 31.7132 21.8693 31.6636 21.7785L30.2979 19.2759C30.0993 18.912 29.8007 18.6128 29.4375 18.4137L26.9399 17.0448C26.8493 16.9951 26.7736 16.9219 26.7209 16.8329C26.6682 16.7438 26.6404 16.6422 26.6404 16.5387C26.6404 16.4351 26.6682 16.3335 26.7209 16.2444C26.7736 16.1554 26.8493 16.0822 26.9399 16.0325Z" fill="white"/>
<path d="M37.4094 29.7249C39.0252 28.5608 39.4731 26.4162 38.4097 24.9348C37.3464 23.4533 35.1744 23.1961 33.5586 24.3601C31.9427 25.5242 31.4948 27.6688 32.5582 29.1503C33.6216 30.6317 35.7935 30.889 37.4094 29.7249Z" fill="white"/>
</g>
</g>
<defs>
<linearGradient id="paint0_linear_10232_87500" x1="37.6045" y1="10.9987" x2="29.175" y2="21.9709" gradientUnits="userSpaceOnUse">
<stop stop-color="#0AE799"/>
<stop offset="1" stop-color="#1D62F6"/>
</linearGradient>
<linearGradient id="paint1_linear_10232_87500" x1="32.8904" y1="26.5975" x2="39.7755" y2="27.0217" gradientUnits="userSpaceOnUse">
<stop stop-color="#F279C5"/>
<stop offset="1" stop-color="#FD9B41"/>
</linearGradient>
<clipPath id="clip0_10232_87500">
<rect width="23.9024" height="28" fill="white" transform="translate(15 11)"/>
</clipPath>
<clipPath id="clip1_10232_87500">
<rect width="24" height="28.083" fill="white" transform="translate(15 11)"/>
</clipPath>
</defs>
</svg>
