<svg viewBox="0 0 32 32" fill="none" xmlns="http://www.w3.org/2000/svg">
<g clip-path="url(#clip0_105_3624)">
<path fill-rule="evenodd" clip-rule="evenodd" d="M22.2714 3.06764C19.4489 5.11931 16.3278 8.10866 13.7868 10.6172C11.6101 12.7661 10.092 14.7917 9.16042 16.5774C6.87969 16.2253 4.46767 16.9277 2.71081 18.6846C1.84926 19.5461 1.32997 20.8135 0.989845 21.9954C0.636483 23.2233 0.41577 24.5832 0.275292 25.8218C0.134004 27.0675 0.0695029 28.231 0.0400791 29.0805C0.0253253 29.5063 0.0192998 29.856 0.0169743 30.1011C0.0158096 30.2236 0.0155713 30.3202 0.0156342 30.3871L0.0158763 30.465L0.0160212 30.4865L0.0160746 30.4927L0.0161013 30.4954C0.0244599 31.3113 0.684374 31.9712 1.50029 31.9796L1.50298 31.9796L1.50922 31.9796L1.53072 31.9798L1.60858 31.98C1.67553 31.9801 1.77207 31.9798 1.89463 31.9787C2.13963 31.9763 2.48933 31.9703 2.9152 31.9555C3.76468 31.9261 4.92813 31.8616 6.17384 31.7203C7.4124 31.5798 8.77228 31.359 10.0001 31.0056C11.182 30.6655 12.4494 30.1462 13.3109 29.2847C15.0627 27.5328 15.7661 25.1296 15.4211 22.8547C17.2364 21.934 19.3027 20.4256 21.498 18.2584C24.054 15.7351 27.023 12.6104 29.0431 9.765C30.0447 8.35425 30.8879 6.91001 31.2915 5.57558C31.69 4.25815 31.7623 2.63943 30.5561 1.43628C29.3438 0.223919 27.7177 0.339627 26.4213 0.758456C25.1018 1.18477 23.6712 2.05017 22.2714 3.06764ZM14.3732 20.019C14.0772 19.5449 13.7231 19.0967 13.3109 18.6846C12.9046 18.2783 12.4633 17.9284 11.9967 17.6349C12.5252 16.6917 13.2836 15.61 14.3178 14.4225L17.6323 17.737C16.427 18.7549 15.3295 19.5007 14.3732 20.019ZM24.0342 5.4928C21.5873 7.27147 18.8276 9.86897 16.3935 12.2582L19.8277 15.6923C22.245 13.2835 24.8445 10.4998 26.5984 8.02936C27.5368 6.70756 28.1587 5.57715 28.4218 4.70751C28.69 3.82089 28.486 3.60613 28.4388 3.55905L28.436 3.55624C28.4086 3.52834 28.2142 3.32998 27.3431 3.61142C26.4786 3.8907 25.3539 4.53357 24.0342 5.4928ZM3.25435 26.1596C3.13672 27.1968 3.07611 28.1814 3.04519 28.9504C3.81417 28.9195 4.79875 28.8589 5.83589 28.7412C6.98857 28.6105 8.16628 28.4136 9.17092 28.1244C10.2215 27.8221 10.8816 27.4739 11.1909 27.1646C12.9472 25.4084 12.9472 22.5609 11.1909 20.8046C9.43461 19.0483 6.58711 19.0483 4.83083 20.8046C4.52153 21.1139 4.17342 21.7739 3.87107 22.8246C3.58195 23.8292 3.38509 25.0069 3.25435 26.1596Z" fill="#0D2839"/>
</g>
<defs>
<clipPath id="clip0_105_3624">
<rect width="32" height="32" fill="white" transform="matrix(-1 0 0 1 32 0)"/>
</clipPath>
</defs>
</svg>
