<svg width="16" height="17" viewBox="0 0 16 17" fill="none" xmlns="http://www.w3.org/2000/svg">
<g clip-path="url(#clip0_13426_23783)">
<path fill-rule="evenodd" clip-rule="evenodd" d="M2.00025 3.3999C2.00025 2.73686 2.26364 2.10097 2.73248 1.63214C3.20133 1.16329 3.83721 0.899902 4.50025 0.899902H13.2502C13.4491 0.899902 13.6399 0.97892 13.7805 1.11957C13.9212 1.26022 14.0002 1.45099 14.0002 1.6499V14.1499C14.0002 14.3488 13.9212 14.5396 13.7805 14.6802C13.6399 14.8209 13.4491 14.8999 13.2502 14.8999H10.7502C10.5513 14.8999 10.3605 14.8209 10.2199 14.6802C10.0792 14.5396 10.0002 14.3488 10.0002 14.1499C10.0002 13.951 10.0792 13.7602 10.2199 13.6196C10.3605 13.4789 10.5513 13.3999 10.7502 13.3999H12.5002V11.3999H4.50025C4.30333 11.3999 4.11081 11.4581 3.94682 11.5671C3.78282 11.6761 3.65467 11.8311 3.57841 12.0127C3.50216 12.1942 3.48121 12.3942 3.51818 12.5877C3.55515 12.7811 3.64841 12.9593 3.78625 13.0999C3.92549 13.2421 4.00255 13.4337 4.00049 13.6327C3.99843 13.8317 3.91741 14.0217 3.77525 14.1609C3.6331 14.3001 3.44145 14.3772 3.24247 14.3751C3.0435 14.3731 2.85349 14.2921 2.71425 14.1499C2.25596 13.6828 1.99954 13.0543 2.00025 12.3999V3.3999ZM12.5002 2.3999V9.8999H4.50025C4.14425 9.8999 3.80625 9.9739 3.50025 10.1079V3.3999C3.50025 3.13468 3.60561 2.88033 3.79314 2.69279C3.98068 2.50526 4.23503 2.3999 4.50025 2.3999H12.5002ZM5.00025 13.1499V16.3999C5.00025 16.4463 5.01318 16.4918 5.03759 16.5313C5.062 16.5708 5.09692 16.6027 5.13845 16.6235C5.17997 16.6443 5.22646 16.6531 5.2727 16.6489C5.31894 16.6447 5.36311 16.6278 5.40025 16.5999L6.85025 15.5129C6.89353 15.4804 6.94616 15.4629 7.00025 15.4629C7.05434 15.4629 7.10698 15.4804 7.15025 15.5129L8.60025 16.5999C8.63739 16.6278 8.68156 16.6447 8.7278 16.6489C8.77404 16.6531 8.82053 16.6443 8.86205 16.6235C8.90358 16.6027 8.93851 16.5708 8.96291 16.5313C8.98732 16.4918 9.00025 16.4463 9.00025 16.3999V13.1499C9.00025 13.0836 8.97391 13.02 8.92703 12.9731C8.88014 12.9262 8.81656 12.8999 8.75025 12.8999H5.25025C5.18395 12.8999 5.12036 12.9262 5.07347 12.9731C5.02659 13.02 5.00025 13.0836 5.00025 13.1499Z" fill="#0D2839"/>
</g>
<defs>
<clipPath id="clip0_13426_23783">
<rect width="16" height="16" fill="white" transform="translate(0.000244141 0.899902)"/>
</clipPath>
</defs>
</svg>
