<svg viewBox="0 0 12 12" fill="none" xmlns="http://www.w3.org/2000/svg">
<g clip-path="url(#clip0_14430_236096)">
<path fill-rule="evenodd" clip-rule="evenodd" d="M10.549 0C8.80856 7.33325e-05 7.1394 0.691525 5.90875 1.92225L5.5645 2.26575C5.329 2.50125 5.1025 2.7465 4.8865 3H2.4835C2.25938 3.00007 2.03903 3.05752 1.8434 3.16687C1.64779 3.27624 1.48343 3.43387 1.366 3.62475L0.0834996 5.70525C0.0384799 5.77837 0.0108001 5.86084 0.00258195 5.94631C-0.00563622 6.03179 0.00582539 6.11802 0.0360883 6.19838C0.0663512 6.27875 0.114612 6.35111 0.177172 6.40993C0.239731 6.46877 0.314928 6.51248 0.397 6.53775L2.7235 7.25325C2.75125 7.2915 2.78275 7.32825 2.8165 7.362L4.63825 9.183C4.67275 9.2175 4.70875 9.249 4.747 9.27675L5.4625 11.6032C5.48777 11.6853 5.53148 11.7605 5.59031 11.8231C5.64914 11.8856 5.7215 11.9339 5.80187 11.9641C5.88223 11.9944 5.96846 12.0058 6.05393 11.9977C6.13941 11.9894 6.22187 11.9618 6.295 11.9167L8.37551 10.6365C8.56638 10.5191 8.72403 10.3547 8.83338 10.1591C8.94273 9.96345 9.00018 9.7431 9.00026 9.519V7.11375C9.25376 6.89775 9.49901 6.67125 9.73451 6.43575L10.078 6.0915C11.3088 4.86115 12.0006 3.1923 12.001 1.452V1.3125C12.001 0.964402 11.8627 0.630564 11.6166 0.384422C11.3704 0.138281 11.0366 0 10.6885 0H10.549ZM7.87601 7.96875C7.81001 8.01375 7.74326 8.05725 7.67651 8.1L5.914 9.24075L6.325 10.578L7.78676 9.678C7.81406 9.6612 7.83656 9.63772 7.85216 9.60975C7.86783 9.58177 7.87601 9.55027 7.87601 9.51825V7.96875ZM2.7595 6.087L3.901 4.3245C3.9445 4.257 3.98875 4.191 4.033 4.125H2.48275C2.45072 4.12499 2.41921 4.13319 2.39125 4.14881C2.36328 4.16444 2.33978 4.18696 2.323 4.21425L1.423 5.67675L2.7595 6.087ZM6.7045 2.71725C7.72398 1.69793 9.10661 1.12521 10.5483 1.125H10.6878C10.7375 1.125 10.7852 1.14476 10.8204 1.17991C10.8555 1.21508 10.8753 1.26277 10.8753 1.3125V1.452C10.8753 2.1661 10.7348 2.87322 10.4616 3.53299C10.1884 4.19276 9.78791 4.79226 9.28301 5.29725L8.93876 5.64075C8.36876 6.21075 7.74101 6.7185 7.0645 7.15575L5.32675 8.28075L3.7195 6.6735L4.8445 4.93575C5.28204 4.25913 5.78986 3.63064 6.3595 3.06075L6.703 2.71725H6.7045ZM9.00101 3.75C9.00101 3.94892 8.92196 4.13968 8.78133 4.28033C8.64071 4.42098 8.44991 4.5 8.25101 4.5C8.05211 4.5 7.86131 4.42098 7.72068 4.28033C7.57998 4.13968 7.501 3.94892 7.501 3.75C7.501 3.55108 7.57998 3.36032 7.72068 3.21967C7.86131 3.07902 8.05211 3 8.25101 3C8.44991 3 8.64071 3.07902 8.78133 3.21967C8.92196 3.36032 9.00101 3.55108 9.00101 3.75ZM2.671 10.92C2.78153 10.817 2.87018 10.6928 2.93167 10.5548C2.99316 10.4168 3.02622 10.2679 3.02888 10.1168C3.03155 9.9657 3.00377 9.8157 2.94719 9.6756C2.8906 9.5355 2.80638 9.4083 2.69956 9.30142C2.59273 9.19462 2.46548 9.1104 2.3254 9.05385C2.18531 8.99722 2.03527 8.96947 1.88422 8.9721C1.73316 8.9748 1.58419 9.00787 1.44619 9.0693C1.3082 9.1308 1.18399 9.21945 1.081 9.33C0.5305 9.8775 0.29575 11.079 0.2185 11.5822C0.213932 11.6094 0.215917 11.6372 0.22429 11.6634C0.232662 11.6896 0.247179 11.7134 0.266629 11.7329C0.286079 11.7523 0.309898 11.7668 0.3361 11.7752C0.362302 11.7836 0.390125 11.7856 0.41725 11.781C0.9205 11.7038 2.122 11.469 2.671 10.92Z" fill="url(#paint0_linear_14430_236096)"/>
</g>
<defs>
<linearGradient id="paint0_linear_14430_236096" x1="5.10819e-07" y1="-2.12342" x2="11.9999" y2="15.9556" gradientUnits="userSpaceOnUse">
<stop stop-color="#0AE799"/>
<stop offset="1" stop-color="#1D62F6"/>
</linearGradient>
<clipPath id="clip0_14430_236096">
<rect width="12" height="12" fill="white"/>
</clipPath>
</defs>
</svg>
