<svg width="17" height="17" viewBox="0 0 17 17" fill="none" xmlns="http://www.w3.org/2000/svg">
<g clip-path="url(#clip0_13426_23796)">
<path fill-rule="evenodd" clip-rule="evenodd" d="M3.8989 1.44971C3.8989 1.25079 3.97792 1.06003 4.11857 0.919377C4.25922 0.778725 4.44999 0.699707 4.6489 0.699707C4.84781 0.699707 5.03858 0.778725 5.17923 0.919377C5.31988 1.06003 5.3989 1.25079 5.3989 1.44971V2.44571C6.2999 3.60271 7.1929 4.34971 8.0619 5.07571L8.3019 5.27771C8.2659 4.58371 8.3569 3.85571 8.7279 3.11471C9.4999 1.57271 11.1939 0.654707 13.0219 0.959707C14.8079 1.25771 16.3999 2.63971 16.3999 4.94971C16.3999 6.22771 15.4459 7.52471 13.9599 7.68371L14.1059 8.19171L14.1709 8.41171C14.3739 9.11271 14.5829 9.86671 14.6469 10.6377C14.7889 12.3447 14.2469 13.6677 13.1599 14.5357C12.1139 15.3707 10.6699 15.6997 9.1499 15.6997H3.1499C2.95099 15.6997 2.76022 15.6207 2.61957 15.48C2.47892 15.3394 2.3999 15.1486 2.3999 14.9497C2.3999 14.7508 2.47892 14.56 2.61957 14.4194C2.76022 14.2787 2.95099 14.1997 3.1499 14.1997H4.5259C4.28069 13.8326 4.09098 13.4312 3.9629 13.0087C3.75796 12.3385 3.74066 11.625 3.9129 10.9457C3.2245 11.0001 2.53266 10.9 1.8879 10.6527C1.79558 10.6182 1.71096 10.5659 1.63886 10.4987C1.56676 10.4316 1.50859 10.3508 1.46769 10.2612C1.38508 10.0801 1.37778 9.87365 1.4474 9.68721C1.51702 9.50076 1.65786 9.3496 1.83892 9.26699C2.01999 9.18439 2.22646 9.17709 2.4129 9.24671C3.7699 9.75371 4.7889 9.24071 5.1109 8.92871L5.1199 8.91871C5.1894 8.84892 5.272 8.79355 5.36295 8.75577C5.4539 8.71799 5.55142 8.69854 5.6499 8.69854C5.74839 8.69854 5.84591 8.71799 5.93686 8.75577C6.02781 8.79355 6.1104 8.84892 6.1799 8.91871C6.25079 8.98938 6.30682 9.07352 6.34468 9.16618C6.38254 9.25884 6.40147 9.35815 6.40035 9.45824C6.39923 9.55833 6.37809 9.65718 6.33817 9.74897C6.29824 9.84077 6.24035 9.92364 6.1679 9.99271C5.2559 10.9127 5.1759 11.8277 5.3999 12.5787C5.6209 13.3187 6.1449 13.9157 6.5959 14.1997H9.1499C10.4929 14.1997 11.5479 13.9037 12.2239 13.3637C12.8589 12.8567 13.2599 12.0537 13.1519 10.7617C13.1019 10.1587 12.9359 9.53771 12.7299 8.83171L12.6659 8.61071C12.5459 8.20371 12.4199 7.77071 12.3129 7.32071C12.1241 7.19817 11.9534 7.04972 11.8059 6.87971C11.5014 6.51812 11.2848 6.09098 11.1729 5.63171C11.1279 5.4399 11.1601 5.23809 11.2627 5.06987C11.3653 4.90166 11.5299 4.78056 11.721 4.73275C11.9122 4.68493 12.1144 4.71424 12.2841 4.81434C12.4538 4.91444 12.5773 5.0773 12.6279 5.26771C12.6739 5.45271 12.7719 5.70371 12.9379 5.89471C13.0839 6.06271 13.2909 6.19971 13.6499 6.19971C14.3879 6.19971 14.8999 5.58471 14.8999 4.94971C14.8999 3.47971 13.9499 2.63471 12.7769 2.43971C11.6049 2.24371 10.5499 2.82671 10.0709 3.78471C9.6109 4.70471 9.8009 5.55871 10.0899 6.84671L10.1319 7.03671C10.1358 7.05326 10.1391 7.06993 10.1419 7.08671C10.4899 7.52971 10.8079 8.03571 11.0819 8.63971C11.1264 8.72985 11.1524 8.82803 11.1582 8.9284C11.164 9.02877 11.1496 9.12929 11.1158 9.22399C11.082 9.31868 11.0296 9.40561 10.9615 9.47961C10.8934 9.55361 10.8112 9.61317 10.7196 9.65475C10.6281 9.69633 10.5291 9.71908 10.4286 9.72165C10.3281 9.72421 10.2281 9.70655 10.1346 9.66969C10.041 9.63284 9.95585 9.57755 9.88409 9.50712C9.81234 9.43669 9.75549 9.35255 9.7169 9.25971C9.1639 8.04271 8.3969 7.31971 7.4169 6.49171C7.31145 6.40312 7.20578 6.31478 7.0999 6.22671C6.2859 5.54671 5.3499 4.76471 4.4079 3.60771C4.01637 3.83659 3.66973 4.13477 3.3849 4.48771C2.9789 4.98271 2.7219 5.52371 2.6629 5.99571C2.7789 6.11771 2.9689 6.20571 3.2539 6.23471C3.6419 6.27271 4.0509 6.17471 4.2859 6.04471C4.45881 5.95785 4.65859 5.94119 4.8435 5.99819C5.02841 6.05519 5.18413 6.18146 5.27812 6.35059C5.37211 6.51972 5.3971 6.71864 5.34786 6.90576C5.29862 7.09289 5.17897 7.25374 5.0139 7.35471C4.4989 7.64171 3.7839 7.79371 3.1079 7.72771C2.4259 7.66071 1.6349 7.34771 1.2289 6.53471L1.1499 6.37671V6.19971C1.1499 5.21571 1.6299 4.25971 2.2269 3.53571C2.6869 2.97671 3.2769 2.48071 3.8999 2.18271V1.44971H3.8989Z" fill="#0D2839"/>
</g>
<defs>
<clipPath id="clip0_13426_23796">
<rect width="16" height="16" fill="white" transform="translate(0.399902 0.699707)"/>
</clipPath>
</defs>
</svg>
