<svg viewBox="0 0 32 32" fill="none" xmlns="http://www.w3.org/2000/svg">
<path fill-rule="evenodd" clip-rule="evenodd" d="M15.9999 4.99902C12.7093 4.99902 9.75474 6.44356 7.73766 8.73664L10.1464 11.1454C10.4614 11.4604 10.2383 11.999 9.7929 11.999H2.5C2.22386 11.999 2 11.7751 2 11.499V4.20608C2 3.76062 2.53858 3.53754 2.85356 3.85252L5.6132 6.61218C8.17392 3.78052 11.8782 1.99902 15.9999 1.99902C23.1644 1.99902 29.0702 7.37944 29.9002 14.3209C29.9986 15.1435 29.4116 15.89 28.589 15.9884C27.7664 16.0868 27.0198 15.4997 26.9214 14.6771C26.2696 9.22592 21.6272 4.99902 15.9999 4.99902ZM3.4109 16.0096C4.23346 15.9113 4.98002 16.4983 5.0784 17.3209C5.73032 22.772 10.3726 26.999 15.9999 26.999C19.2906 26.999 22.2452 25.5544 24.2622 23.2614L21.8536 20.8526C21.5386 20.5376 21.7616 19.999 22.2072 19.999H29.5C29.7762 19.999 30 20.223 30 20.499V27.792C30 28.2374 29.4614 28.4604 29.1464 28.1454L26.3868 25.3858C23.826 28.2174 20.1216 29.999 15.9999 29.999C8.83542 29.999 2.92978 24.6186 2.09962 17.6771C2.00126 16.8546 2.58834 16.108 3.4109 16.0096Z" fill="#0D2839"/>
</svg>
