<svg width="17" height="17" viewBox="0 0 17 17" fill="none" xmlns="http://www.w3.org/2000/svg">
<path fill-rule="evenodd" clip-rule="evenodd" d="M5.6328 2.80377C5.63085 2.80497 5.62861 2.80644 5.62607 2.80821C4.46024 3.62291 3.7002 4.97266 3.7002 6.49982C3.7002 8.09758 4.53235 9.5015 5.79044 10.301C6.30802 10.6299 6.71878 11.2243 6.69181 11.9416L6.69149 11.95L6.52836 15.2864C6.50814 15.7001 6.15636 16.0191 5.74264 15.9988C5.32892 15.9786 5.00993 15.6268 5.03015 15.2131L5.19295 11.8826C5.19496 11.7984 5.14353 11.6672 4.98591 11.567C3.31298 10.5039 2.2002 8.63205 2.2002 6.49982C2.2002 4.46213 3.21668 2.66196 4.76686 1.57868C5.31603 1.19492 5.95974 1.23187 6.43995 1.5394C6.90179 1.83518 7.2002 2.36648 7.2002 2.96263V5.78168C7.2002 5.8645 7.24123 5.94196 7.30975 5.98849L8.05975 6.49783C8.14453 6.55541 8.25586 6.55541 8.34064 6.49783L9.09064 5.98849C9.15916 5.94196 9.2002 5.86451 9.2002 5.78168V2.96263C9.2002 2.36648 9.49861 1.83518 9.96045 1.5394C10.4407 1.23187 11.0844 1.19492 11.6335 1.57868C13.1837 2.66196 14.2002 4.46213 14.2002 6.49982C14.2002 8.63205 13.0874 10.5039 11.4145 11.567C11.2569 11.6672 11.2054 11.7984 11.2075 11.8826L11.3702 15.2131C11.3905 15.6268 11.0715 15.9786 10.6578 15.9988C10.244 16.0191 9.89226 15.7001 9.87204 15.2864L9.70855 11.9416C9.68157 11.2243 10.0924 10.6299 10.61 10.301C11.8681 9.5015 12.7002 8.09758 12.7002 6.49982C12.7002 4.97266 11.9402 3.62291 10.7743 2.80821C10.7718 2.80644 10.7696 2.80497 10.7676 2.80377C10.7436 2.82025 10.7002 2.87098 10.7002 2.96263V5.78168C10.7002 6.36148 10.413 6.90365 9.93336 7.22939L9.18336 7.73873C8.58988 8.14178 7.81051 8.14178 7.21703 7.73873L6.46703 7.22939C5.98737 6.90365 5.7002 6.36148 5.7002 5.78168V2.96263C5.7002 2.87098 5.65684 2.82025 5.6328 2.80377ZM5.64299 2.79849C5.6435 2.79835 5.64299 2.79851 5.64299 2.79849V2.79849Z" fill="#0D2839"/>
</svg>
