<svg width="32" height="32" viewBox="0 0 32 32" fill="none" xmlns="http://www.w3.org/2000/svg">
<path fill-rule="evenodd" clip-rule="evenodd" d="M13 3.5C13 3.22386 13.2239 3 13.5 3H18.5C18.7761 3 19 3.22386 19 3.5V6H13V3.5ZM22 3.5V6H26.5C27.3284 6 28 6.67158 28 7.5C28 8.32842 27.3284 9 26.5 9H5.5C4.67158 9 4 8.32842 4 7.5C4 6.67158 4.67158 6 5.5 6H10V3.5C10 1.567 11.567 0 13.5 0H18.5C20.433 0 22 1.567 22 3.5ZM8.99254 13.3507C8.91012 12.5264 8.17506 11.925 7.35074 12.0074C6.52642 12.0899 5.925 12.8249 6.00744 13.6492L7.32734 26.8482C7.50626 28.6374 9.01184 30 10.81 30H21.19C22.9882 30 24.4938 28.6374 24.6726 26.8482L25.9926 13.6492C26.075 12.8249 25.4736 12.0899 24.6492 12.0074C23.825 11.925 23.0898 12.5264 23.0074 13.3507L21.6876 26.5498C21.662 26.8054 21.4468 27 21.19 27H10.81C10.5531 27 10.338 26.8054 10.3124 26.5498L8.99254 13.3507Z" fill="#0D2839"/>
</svg>
