<svg width="17" height="17" viewBox="0 0 17 17" fill="none" xmlns="http://www.w3.org/2000/svg">
<g clip-path="url(#clip0_13426_23804)">
<path fill-rule="evenodd" clip-rule="evenodd" d="M7.96315 2.76851C8.09348 2.82836 8.20391 2.92432 8.28137 3.04502C8.35882 3.16572 8.40004 3.3061 8.40015 3.44951V13.9495C8.40024 14.093 8.35918 14.2334 8.28184 14.3543C8.20451 14.4751 8.09413 14.5712 7.96382 14.6312C7.8335 14.6912 7.68871 14.7126 7.54662 14.6928C7.40452 14.673 7.27109 14.6128 7.16215 14.5195L3.87215 11.6995H2.15015C1.68602 11.6995 1.2409 11.5151 0.912709 11.1869C0.58452 10.8587 0.400146 10.4136 0.400146 9.94951V7.44951C0.400146 6.48351 1.18415 5.69951 2.15015 5.69951H3.87315L7.16215 2.87951C7.27111 2.78641 7.40445 2.72648 7.54641 2.70681C7.68836 2.68714 7.83298 2.70855 7.96315 2.76851ZM6.90015 5.07951L4.63815 7.01851C4.5023 7.13516 4.32921 7.19936 4.15015 7.19951H2.15015C2.08385 7.19951 2.02026 7.22585 1.97337 7.27273C1.92649 7.31962 1.90015 7.38321 1.90015 7.44951V9.94951C1.90015 10.0875 2.01215 10.1995 2.15015 10.1995H4.15015C4.32908 10.1994 4.50216 10.2632 4.63815 10.3795L6.90015 12.3195V5.07951ZM12.9961 3.04151C13.1367 2.90106 13.3273 2.82217 13.5261 2.82217C13.7249 2.82217 13.9155 2.90106 14.0561 3.04151C14.799 3.78438 15.3883 4.66632 15.7904 5.63695C16.1925 6.60758 16.3994 7.6479 16.3994 8.69851C16.3994 9.74912 16.1925 10.7894 15.7904 11.7601C15.3883 12.7307 14.799 13.6126 14.0561 14.3555C13.9139 14.488 13.7259 14.5601 13.5316 14.5567C13.3373 14.5532 13.1519 14.4745 13.0145 14.3371C12.8771 14.1997 12.7984 14.0143 12.7949 13.82C12.7915 13.6257 12.8636 13.4377 12.9961 13.2955C13.5998 12.6919 14.0786 11.9753 14.4053 11.1866C14.7321 10.398 14.9002 9.55267 14.9002 8.69901C14.9002 7.84534 14.7321 7.00004 14.4053 6.21137C14.0786 5.4227 13.5998 4.7061 12.9961 4.10251C12.8556 3.96188 12.7768 3.77126 12.7768 3.57251C12.7768 3.37376 12.8556 3.18314 12.9961 3.04251V3.04151ZM11.9361 5.16251C11.7954 5.02181 11.6046 4.94277 11.4056 4.94277C11.2066 4.94277 11.0158 5.02181 10.8751 5.16251C10.7344 5.30321 10.6554 5.49403 10.6554 5.69301C10.6554 5.89199 10.7344 6.08281 10.8751 6.22351C11.2001 6.54852 11.458 6.93437 11.6339 7.35904C11.8098 7.7837 11.9004 8.23885 11.9004 8.69851C11.9004 9.15817 11.8098 9.61332 11.6339 10.038C11.458 10.4626 11.2001 10.8485 10.8751 11.1735C10.8014 11.2422 10.7423 11.325 10.7013 11.417C10.6603 11.509 10.6383 11.6083 10.6365 11.709C10.6347 11.8097 10.6533 11.9097 10.691 12.0031C10.7287 12.0965 10.7848 12.1813 10.8561 12.2525C10.9273 12.3238 11.0121 12.3799 11.1055 12.4176C11.1989 12.4553 11.2989 12.4739 11.3996 12.4721C11.5003 12.4703 11.5996 12.4483 11.6916 12.4073C11.7836 12.3663 11.8664 12.3072 11.9351 12.2335C12.8725 11.2959 13.399 10.0243 13.399 8.69851C13.399 7.37269 12.8725 6.10115 11.9351 5.16351L11.9361 5.16251Z" fill="#0D2839"/>
</g>
<defs>
<clipPath id="clip0_13426_23804">
<rect width="16" height="16" fill="white" transform="translate(0.400146 0.699707)"/>
</clipPath>
</defs>
</svg>
