<svg  viewBox="0 0 16 17" fill="none" xmlns="http://www.w3.org/2000/svg">
<g clip-path="url(#clip0_13426_23813)">
<path fill-rule="evenodd" clip-rule="evenodd" d="M10.5595 2.00017C10.5558 2.00031 10.5523 2.00172 10.5495 2.00417L3.28449 9.07117C3.2488 9.10596 3.22433 9.15063 3.21421 9.19943C3.20409 9.24824 3.2088 9.29895 3.22772 9.34506C3.24663 9.39118 3.2789 9.43058 3.32038 9.45822C3.36186 9.48586 3.41065 9.50047 3.46049 9.50017H6.74849C6.87154 9.5002 6.99269 9.5305 7.10126 9.5884C7.20984 9.6463 7.3025 9.73003 7.37107 9.8322C7.43965 9.93437 7.48203 10.0518 7.49449 10.1743C7.50694 10.2967 7.48908 10.4203 7.44249 10.5342L5.72949 14.7222L12.7115 7.92917C12.7471 7.89444 12.7716 7.84986 12.7817 7.80115C12.7919 7.75244 12.7872 7.70181 12.7684 7.65574C12.7497 7.60967 12.7175 7.57026 12.6762 7.54255C12.6349 7.51483 12.5862 7.50008 12.5365 7.50017H9.24849C9.12302 7.50018 8.99956 7.46872 8.8894 7.40866C8.77925 7.3486 8.68592 7.26187 8.61796 7.1564C8.55001 7.05093 8.50959 6.9301 8.50043 6.80498C8.49126 6.67985 8.51363 6.55442 8.56549 6.44017L10.5735 2.02217L10.5765 2.01617C10.5759 2.01289 10.5745 2.00979 10.5725 2.00717C10.5709 2.00477 10.5689 2.00272 10.5665 2.00117L10.5585 2.00017H10.5595ZM9.50249 0.930172C9.75579 0.684287 10.087 0.53451 10.4389 0.506675C10.7908 0.47884 11.1414 0.574693 11.4302 0.777699C11.719 0.980706 11.9279 1.27814 12.0209 1.61869C12.1139 1.95925 12.0851 2.32157 11.9395 2.64317L10.4135 6.00017H12.5365C14.1065 6.00017 14.8825 7.90917 13.7565 9.00417L6.41649 16.1462C6.18328 16.373 5.87083 16.5 5.54549 16.5002H5.24349C5.03842 16.5002 4.8365 16.4497 4.65554 16.3532C4.47457 16.2568 4.32012 16.1173 4.2058 15.947C4.09148 15.7768 4.0208 15.581 3.99999 15.377C3.97918 15.173 4.00889 14.967 4.08649 14.7772L5.63149 11.0002H3.46049C1.89049 11.0002 1.11449 9.09117 2.24049 7.99617L9.50149 0.929172L9.50249 0.930172Z" fill="#0D2839"/>
</g>
<defs>
<clipPath id="clip0_13426_23813">
<rect width="16" height="16" fill="white" transform="translate(0.000244141 0.5)"/>
</clipPath>
</defs>
</svg>
