<svg viewBox="0 0 32 32" fill="none" xmlns="http://www.w3.org/2000/svg">
<g clip-path="url(#clip0_105_3775)">
<path d="M23.5607 12.5607C24.1464 11.9749 24.1464 11.0251 23.5607 10.4393C22.9749 9.85355 22.0251 9.85355 21.4393 10.4393L13.5 18.3787L10.5607 15.4393C9.97487 14.8536 9.02513 14.8536 8.43934 15.4393C7.85355 16.0251 7.85355 16.9749 8.43934 17.5607L12.4393 21.5607C13.0251 22.1464 13.9749 22.1464 14.5607 21.5607L23.5607 12.5607Z" fill="#0D2839"/>
<path fill-rule="evenodd" clip-rule="evenodd" d="M0 16C0 7.16344 7.16344 0 16 0C24.8366 0 32 7.16344 32 16C32 24.8366 24.8366 32 16 32C7.16344 32 0 24.8366 0 16ZM3 16C3 8.8203 8.8203 3 16 3C23.1797 3 29 8.8203 29 16C29 23.1797 23.1797 29 16 29C8.8203 29 3 23.1797 3 16Z" fill="#0D2839"/>
</g>
<defs>
<clipPath id="clip0_105_3775">
<rect width="32" height="32" fill="white"/>
</clipPath>
</defs>
</svg>
