<svg viewBox="0 0 32 32" fill="none" xmlns="http://www.w3.org/2000/svg">
<path fill-rule="evenodd" clip-rule="evenodd" d="M14.9393 21.5611C15.5251 22.1469 16.4749 22.1469 17.0607 21.5611L24.5606 14.0611C25.1464 13.4754 25.1464 12.5256 24.5606 11.9398C23.9748 11.354 23.0252 11.354 22.4394 11.9398L17.5 16.8792V3.50049C17.5 2.67207 16.8284 2.00049 16 2.00049C15.1716 2.00049 14.5 2.67207 14.5 3.50049V16.8792L9.56066 11.9398C8.97488 11.354 8.02512 11.354 7.43934 11.9398C6.85356 12.5256 6.85356 13.4754 7.43934 14.0611L14.9393 21.5611ZM7.5 26.0007C6.67158 26.0007 6 26.6723 6 27.5007C6 28.3291 6.67158 29.0007 7.5 29.0007H24.5C25.3284 29.0007 26 28.3291 26 27.5007C26 26.6723 25.3284 26.0007 24.5 26.0007H7.5Z" fill="#0D2839"/>
</svg>
