<svg viewBox="0 0 22 22" fill="none" xmlns="http://www.w3.org/2000/svg">
<path d="M6.01562 6.675C5.2407 6.675 4.6125 7.3032 4.6125 8.07812L4.6125 16.6719C4.6125 17.4468 5.2407 18.075 6.01563 18.075H11.8594C12.6343 18.075 13.2625 17.4468 13.2625 16.6719L13.2625 8.07812C13.2625 7.3032 12.6343 6.675 11.8594 6.675L6.01562 6.675ZM6.04375 16.6438L6.04375 8.10625L11.8313 8.10625L11.8313 16.6438H6.04375Z" fill="#0D2839" stroke="#0D2839" stroke-width="0.4"/>
<rect x="9.625" y="6.1875" width="4.8125" height="7.5625" fill="#F7F7F7"/>
<path d="M10.1406 3.925C9.3657 3.925 8.7375 4.5532 8.7375 5.32812L8.7375 13.9219C8.7375 14.6968 9.3657 15.325 10.1406 15.325L15.9844 15.325C16.7593 15.325 17.3875 14.6968 17.3875 13.9219V5.32812C17.3875 4.5532 16.7593 3.925 15.9844 3.925L10.1406 3.925ZM10.1688 13.8938L10.1688 5.35625L15.9563 5.35625L15.9563 13.8938L10.1688 13.8938Z" fill="#0D2839" stroke="#0D2839" stroke-width="0.4"/>
</svg>
