<svg  viewBox="0 0 32 32" fill="none" xmlns="http://www.w3.org/2000/svg">
<g clip-path="url(#clip0_105_3566)">
<path fill-rule="evenodd" clip-rule="evenodd" d="M8 7.99951V11.9995H7.5C6.57174 11.9995 5.6815 12.3683 5.02512 13.0246C4.36874 13.681 4 14.5713 4 15.4995V26.4995C4 28.4315 5.568 29.9995 7.5 29.9995H24.5C25.4282 29.9995 26.3184 29.6307 26.9748 28.9743C27.6312 28.3179 28 27.4277 28 26.4995V15.4995C28 14.5713 27.6312 13.681 26.9748 13.0246C26.3184 12.3683 25.4282 11.9995 24.5 11.9995H24V7.99951C24 5.87777 23.1572 3.84295 21.6568 2.34265C20.1566 0.842366 18.1217 -0.000488281 16 -0.000488281C13.8783 -0.000488281 11.8434 0.842366 10.3431 2.34265C8.84286 3.84295 8 5.87777 8 7.99951ZM21 11.9995V7.99951C21 6.67343 20.4732 5.40165 19.5355 4.46397C18.5979 3.52629 17.3261 2.99951 16 2.99951C14.6739 2.99951 13.4021 3.52629 12.4645 4.46397C11.5268 5.40165 11 6.67343 11 7.99951V11.9995H21ZM24 14.9995H24.5C24.6326 14.9995 24.7598 15.0522 24.8536 15.146C24.9474 15.2397 25 15.3669 25 15.4995V26.4995C25 26.6321 24.9474 26.7593 24.8536 26.8531C24.7598 26.9469 24.6326 26.9995 24.5 26.9995H7.5C7.3674 26.9995 7.24022 26.9469 7.14644 26.8531C7.05268 26.7593 7 26.6321 7 26.4995V15.4995C7 15.3669 7.05268 15.2397 7.14644 15.146C7.24022 15.0522 7.3674 14.9995 7.5 14.9995H24Z" fill="#0D2839"/>
</g>
<defs>
<clipPath id="clip0_105_3566">
<rect width="32" height="32" fill="white"/>
</clipPath>
</defs>
</svg>
