<svg  viewBox="0 0 686 235" fill="none" xmlns="http://www.w3.org/2000/svg">
<rect x="333.461" y="22.428" width="32.5598" height="139.044" rx="2.65794" fill="black"/>
<rect x="292.762" y="45.6849" width="32.5598" height="113.959" rx="2.65794" transform="rotate(-90 292.762 45.6849)" fill="black"/>
<path d="M664.877 32.92L670.448 42.8768C671.257 44.3247 672.475 45.5152 673.955 46.3057L684.129 51.7538C684.5 51.9491 684.811 52.2392 685.027 52.5931C685.243 52.9471 685.358 53.3518 685.358 53.7641C685.358 54.1764 685.243 54.5811 685.027 54.9351C684.811 55.289 684.5 55.5791 684.129 55.7744L673.955 61.2225C672.475 62.013 671.257 63.2031 670.448 64.651L664.877 74.6082C664.673 74.9685 664.375 75.2686 664.013 75.4778C663.65 75.687 663.237 75.7975 662.816 75.7975C662.395 75.7975 661.982 75.687 661.62 75.4778C661.257 75.2686 660.959 74.9685 660.755 74.6082L655.193 64.651C654.384 63.2031 653.167 62.013 651.686 61.2225L641.503 55.7744C641.134 55.577 640.827 55.286 640.613 54.9323C640.398 54.5787 640.285 54.1752 640.285 53.7641C640.285 53.353 640.398 52.9495 640.613 52.5959C640.827 52.2422 641.134 51.9513 641.503 51.7538L651.686 46.3057C653.167 45.5152 654.384 44.3247 655.193 42.8768L660.755 32.92C660.959 32.5598 661.257 32.2591 661.62 32.0499C661.982 31.8408 662.395 31.7307 662.816 31.7307C663.237 31.7307 663.65 31.8408 664.013 32.0499C664.375 32.2591 664.673 32.5598 664.877 32.92Z" fill="url(#paint0_linear_11943_241236)"/>
<path d="M21.4128 193.811L15.8504 183.854C15.0384 182.405 13.818 181.215 12.3343 180.425L2.1605 174.977C1.78941 174.78 1.47953 174.489 1.2636 174.134C1.04766 173.779 0.933594 173.374 0.933594 172.962C0.933594 172.549 1.04766 172.144 1.2636 171.789C1.47953 171.435 1.78941 171.143 2.1605 170.947L12.3343 165.508C13.818 164.718 15.0384 163.528 15.8504 162.079L21.4128 152.122C21.6162 151.762 21.9147 151.462 22.2771 151.253C22.6396 151.043 23.0527 150.933 23.4735 150.933C23.8944 150.933 24.3075 151.043 24.67 151.253C25.0324 151.462 25.3309 151.762 25.5342 152.122L31.0967 162.079C31.9078 163.525 33.1243 164.715 34.6031 165.508L44.7866 170.947C45.1577 171.143 45.4676 171.435 45.6835 171.789C45.8994 172.144 46.0133 172.549 46.0133 172.962C46.0133 173.374 45.8994 173.779 45.6835 174.134C45.4676 174.489 45.1577 174.78 44.7866 174.977L34.5935 180.472C33.1147 181.265 31.8982 182.454 31.0871 183.9L25.5246 193.858C25.3163 194.213 25.0146 194.508 24.6507 194.712C24.2868 194.915 23.8737 195.02 23.4545 195.015C23.0353 195.01 22.6251 194.896 22.2661 194.685C21.9072 194.473 21.6126 194.171 21.4128 193.811V193.811Z" fill="url(#paint1_linear_11943_241236)"/>
<path d="M521.65 108.324C521.65 74.8272 496.557 64.4567 466.055 64.4567H418.145C417.714 64.4567 417.286 64.5401 416.888 64.7016C416.489 64.863 416.127 65.0995 415.822 65.3978C415.517 65.6962 415.275 66.0502 415.11 66.4399C414.945 66.8297 414.859 67.2477 414.859 67.6696V201.996C414.862 202.847 415.209 203.661 415.825 204.262C416.441 204.862 417.275 205.199 418.145 205.199H444.228C445.098 205.199 445.932 204.862 446.548 204.262C447.164 203.661 447.511 202.847 447.513 201.996V157.762C447.513 156.913 447.859 156.098 448.473 155.497C449.087 154.896 449.921 154.559 450.789 154.559H462.644C463.237 154.562 463.818 154.721 464.325 155.021C464.832 155.32 465.247 155.748 465.526 156.259L491.158 203.499C491.438 204.009 491.854 204.436 492.361 204.735C492.868 205.034 493.448 205.194 494.04 205.199H522.861C523.436 205.204 524.003 205.062 524.503 204.785C525.004 204.508 525.422 204.107 525.714 203.623C526.006 203.138 526.163 202.587 526.168 202.024C526.173 201.462 526.026 200.908 525.743 200.418L497.604 151.75C497.392 151.374 497.259 150.96 497.215 150.532C497.17 150.105 497.214 149.673 497.344 149.263C497.474 148.852 497.688 148.471 497.972 148.143C498.256 147.815 498.604 147.547 498.997 147.354C512.696 140.262 521.65 127.562 521.65 108.324ZM447.513 92.9568C447.512 92.5358 447.596 92.1186 447.76 91.7294C447.924 91.3402 448.166 90.9863 448.47 90.6887C448.775 90.391 449.136 90.1552 449.534 89.9947C449.932 89.8342 450.359 89.7522 450.789 89.7534H463.403C480.513 89.7534 489.698 94.4502 489.698 108.324C489.698 122.199 480.513 129.309 463.403 129.309H450.789C449.921 129.309 449.087 128.972 448.473 128.371C447.859 127.771 447.513 126.956 447.513 126.106V92.9568Z" fill="black"/>
<path d="M262.06 113.034L244.45 105.735C230.645 100.662 220.99 97.5719 220.99 89.099C220.99 80.8797 228.272 76.5307 239.003 76.5307C251.895 76.5307 260.513 79.7807 269.668 85.8113C270.349 86.268 271.181 86.4587 271.999 86.3456C272.817 86.2326 273.562 85.8242 274.087 85.2008L286.576 69.8612C287.113 69.2062 287.373 68.3751 287.303 67.5385C287.234 66.7019 286.84 65.9232 286.202 65.3617C273.525 54.7881 257.404 48.9884 240.742 49.0075C209.452 49.0075 187.98 67.6443 187.98 90.9589C187.98 111.446 202.535 123.413 218.492 129.341L237.245 137.165C250.877 142.745 259.427 145.197 259.427 155.332C259.427 162.218 253.039 167.45 239.253 167.45C226.331 167.45 213.862 162.331 203.448 154.656C202.785 154.152 201.949 153.919 201.114 154.004C200.28 154.09 199.511 154.489 198.971 155.116L184.397 172.156C183.834 172.819 183.559 173.672 183.633 174.531C183.707 175.391 184.122 176.187 184.791 176.75C199.574 188.503 218.037 194.936 237.091 194.973C272.733 194.973 292.811 174.702 292.811 151.302C292.821 131.435 280.947 119.947 262.06 113.034Z" fill="black"/>
<path d="M596.522 88.5443C562.235 88.5443 538.621 113.841 538.621 160.874C538.621 209.034 562.235 234.5 596.522 234.5C630.809 234.5 654.433 209.034 654.433 160.874C654.462 113.85 630.819 88.5443 596.522 88.5443ZM596.522 206.996C581.506 206.996 572.024 191.252 572.024 160.883C572.024 131.632 581.506 116.067 596.522 116.067C611.538 116.067 621.029 131.632 621.029 160.883C621.029 191.252 611.547 206.996 596.522 206.996V206.996Z" fill="black"/>
<path d="M140.674 140.374C139.519 140.374 138.496 139.628 138.143 138.528L130.501 114.703C130.148 113.603 129.125 112.856 127.97 112.856H85.8925C84.7583 112.856 83.7491 113.576 83.3796 114.649L75.1328 138.582C74.7634 139.654 73.7541 140.374 72.6199 140.374H42.6803C40.3727 140.374 38.7678 138.08 39.5595 135.912L88.2214 2.68257C88.7002 1.37189 89.9469 0.5 91.3422 0.5H123.431C124.829 0.5 126.078 1.37543 126.554 2.68994L174.86 135.919C175.645 138.086 174.041 140.374 171.736 140.374H140.674ZM118.2 83.7236C119.082 83.7236 119.719 82.88 119.478 82.0315L108.336 42.8065C107.972 41.5243 106.157 41.5168 105.782 42.796L94.2895 82.021C94.0402 82.8719 94.6782 83.7236 95.5649 83.7236H118.2Z" fill="black"/>
<defs>
<linearGradient id="paint0_linear_11943_241236" x1="643.876" y1="34.0097" x2="678.967" y2="72.2859" gradientUnits="userSpaceOnUse">
<stop stop-color="#68EA9C"/>
<stop offset="1" stop-color="#1E62F9"/>
</linearGradient>
<linearGradient id="paint1_linear_11943_241236" x1="9.93242" y1="156.5" x2="36.4662" y2="190.232" gradientUnits="userSpaceOnUse">
<stop stop-color="#E379C6"/>
<stop offset="1" stop-color="#E59E41"/>
</linearGradient>
</defs>
</svg>
