<svg viewBox="0 0 32 32" fill="none" xmlns="http://www.w3.org/2000/svg">
<g clip-path="url(#clip0_105_3564)">
<path fill-rule="evenodd" clip-rule="evenodd" d="M3.50024 4C1.56725 4 0.00024415 5.567 0.00024415 7.5V8.97154C-8.17731e-05 8.98958 -8.09931e-05 9.00762 0.00024415 9.02564V24.5C0.00024415 26.433 1.56725 28 3.50024 28H28.5002C30.4332 28 32.0002 26.433 32.0002 24.5V9.0253C32.0006 9.00752 32.0006 8.9897 32.0002 8.97188V7.5C32.0002 5.567 30.4332 4 28.5002 4H3.50024ZM29.0002 8.14058V7.5C29.0002 7.22386 28.7764 7 28.5002 7H3.50024C3.2241 7 3.00024 7.22386 3.00024 7.5V8.14058L16.0002 15.7613L29.0002 8.14058ZM3.00024 11.618V24.5C3.00024 24.7762 3.2241 25 3.50024 25H28.5002C28.7764 25 29.0002 24.7762 29.0002 24.5V11.618L16.7588 18.794C16.2904 19.0686 15.7101 19.0686 15.2417 18.794L3.00024 11.618Z" fill="#0D2839"/>
</g>
<defs>
<clipPath id="clip0_105_3564">
<rect width="32" height="32" fill="white"/>
</clipPath>
</defs>
</svg>
