<svg viewBox="0 0 32 32" fill="none" xmlns="http://www.w3.org/2000/svg">
<path fill-rule="evenodd" clip-rule="evenodd" d="M21.5 6C21.8978 6 22.2794 6.10724 22.5607 6.29812C22.842 6.48901 23 6.74791 23 7.01786L23 23.9821C23 24.2521 22.842 24.511 22.5607 24.7018C22.2794 24.8928 21.8978 25 21.5 25C21.1022 25 20.7206 24.8928 20.4393 24.7018C20.158 24.511 20 24.2521 20 23.9821L20 7.01786C20 6.74791 20.158 6.48901 20.4393 6.29812C20.7206 6.10724 21.1022 6 21.5 6ZM13 7.01786C13 6.74791 12.842 6.48901 12.5606 6.29812C12.2794 6.10724 11.8978 6 11.5 6C11.1022 6 10.7206 6.10724 10.4394 6.29812C10.158 6.48901 10 6.74791 10 7.01786L10 23.9821C10 24.2521 10.158 24.511 10.4394 24.7018C10.7206 24.8928 11.1022 25 11.5 25C11.8978 25 12.2794 24.8928 12.5606 24.7018C12.842 24.511 13 24.2521 13 23.9821L13 7.01786Z" fill="#0D2839"/>
</svg>
