<svg  viewBox="0 0 24 24" fill="none" xmlns="http://www.w3.org/2000/svg">
<path fill-rule="evenodd" clip-rule="evenodd" d="M15.7477 7.50034C15.7477 8.4949 15.3526 9.44872 14.6493 10.152C13.946 10.8553 12.9922 11.2503 11.9977 11.2503C11.0031 11.2503 10.0493 10.8553 9.34601 10.152C8.64274 9.44872 8.24765 8.4949 8.24765 7.50034C8.24765 6.50578 8.64274 5.55195 9.34601 4.84869C10.0493 4.14543 11.0031 3.75034 11.9977 3.75034C12.9922 3.75034 13.946 4.14543 14.6493 4.84869C15.3526 5.55195 15.7477 6.50578 15.7477 7.50034ZM15.8392 12.1098C16.7861 11.3203 17.4668 10.2582 17.7889 9.06805C18.1108 7.87787 18.0581 6.61744 17.6383 5.45821C17.2184 4.29898 16.4516 3.29723 15.4423 2.58925C14.4328 1.88128 13.2298 1.50146 11.9969 1.50146C10.764 1.50146 9.56098 1.88128 8.55158 2.58925C7.54219 3.29723 6.77539 4.29898 6.35554 5.45821C5.93567 6.61744 5.88311 7.87787 6.20503 9.06805C6.52694 10.2582 7.20769 11.3203 8.15465 12.1098C6.67804 12.8079 5.41906 13.8945 4.5125 15.2531C3.60595 16.6118 3.08594 18.1913 3.00815 19.8228C3.00092 20.1168 3.10907 20.402 3.30947 20.6171C3.50986 20.8323 3.78655 20.9606 4.08031 20.9742C4.37405 20.988 4.6615 20.8862 4.88108 20.6906C5.10067 20.495 5.23495 20.2212 5.25515 19.9278C5.33693 18.1946 6.083 16.5594 7.33852 15.3618C8.59402 14.1641 10.2625 13.4959 11.9977 13.4959C13.7328 13.4959 15.4013 14.1641 16.6568 15.3618C17.9123 16.5594 18.6584 18.1946 18.7402 19.9278C18.7439 20.0777 18.7774 20.2251 18.8389 20.3618C18.9004 20.4984 18.9886 20.6214 19.0982 20.7234C19.2079 20.8256 19.3369 20.9048 19.4774 20.9564C19.6181 21.008 19.7677 21.0309 19.9174 21.0239C20.0671 21.017 20.2138 20.9801 20.3491 20.9156C20.4842 20.8511 20.6053 20.7603 20.7049 20.6484C20.8046 20.5365 20.8808 20.4059 20.9293 20.2641C20.9779 20.1224 20.9975 19.9722 20.9872 19.8228C20.9092 18.1911 20.389 16.6115 19.4822 15.2528C18.5753 13.8942 17.3161 12.8077 15.8392 12.1098Z" fill="#0D2839"/>
</svg>
