<svg viewBox="0 0 26 26" fill="none" xmlns="http://www.w3.org/2000/svg">
<g clip-path="url(#clip0_2458_82970)">
<path fill-rule="evenodd" clip-rule="evenodd" d="M16.6773 5.06862C16.7541 4.97656 16.8678 4.92332 16.9876 4.92332H18.2502C18.4733 4.92332 18.6541 5.10413 18.6541 5.32717V7.75024V16.6349V19.0579C18.6541 19.281 18.4733 19.4618 18.2502 19.4618H16.9876C16.8678 19.4618 16.7541 19.4085 16.6773 19.3164L15.1425 17.4747C14.9458 17.2387 14.6669 17.0862 14.362 17.0481L9.31552 16.4173C9.11342 16.3919 8.96176 16.2202 8.96176 16.0165V11.7887V8.36858C8.96176 8.16491 9.11342 7.99312 9.31552 7.96785L14.362 7.33704C14.6669 7.29894 14.9458 7.14646 15.1425 6.91047L16.6773 5.06862ZM6.53869 13.0002V16.0165C6.53869 17.4422 7.6003 18.6447 9.01497 18.8216L13.5871 19.3931L14.8159 20.8677C15.353 21.5122 16.1486 21.8849 16.9876 21.8849H18.2502C19.8115 21.8849 21.0771 20.6192 21.0771 19.0579V17.8464H24.7118C25.3809 17.8464 25.9233 17.304 25.9233 16.6349C25.9233 15.9658 25.3809 15.4233 24.7118 15.4233H21.0771V8.96178H24.7118C25.3809 8.96178 25.9233 8.41935 25.9233 7.75024C25.9233 7.08114 25.3809 6.53871 24.7118 6.53871H21.0771V5.32717C21.0771 3.7659 19.8115 2.50024 18.2502 2.50024H16.9876C16.1486 2.50024 15.353 2.8729 14.8159 3.51742L13.5871 4.99197L9.01497 5.5635C7.6003 5.74032 6.53869 6.94291 6.53869 8.36858V10.5772H4.11561C1.88523 10.5772 0.0771484 12.3853 0.0771484 14.6156V23.0964C0.0771484 23.7655 0.619572 24.3079 1.28869 24.3079C1.9578 24.3079 2.50023 23.7655 2.50023 23.0964V14.6156C2.50023 13.7235 3.22347 13.0002 4.11561 13.0002H6.53869Z" fill="#F8F8F8"/>
</g>
<defs>
<clipPath id="clip0_2458_82970">
<rect width="25.8462" height="25.8462" fill="white" transform="translate(0.0771484 0.0769043)"/>
</clipPath>
</defs>
</svg>
