<svg viewBox="0 0 1920 200" fill="none" xmlns="http://www.w3.org/2000/svg">
<g clip-path="url(#clip0_107_1604)">
<mask id="mask0_107_1604" style="mask-type:luminance" maskUnits="userSpaceOnUse" x="0" y="0" width="1920" height="200">
<path d="M1919.97 0H0.261719V199.97H1919.97V0Z" fill="white"/>
</mask>
<g mask="url(#mask0_107_1604)">
<g filter="url(#filter0_f_107_1604)">
<path d="M960.118 890.977C1803.76 890.977 2487.67 707.441 2487.67 481.038C2487.67 254.635 1803.76 71.0996 960.118 71.0996C116.477 71.0996 -567.43 254.635 -567.43 481.038C-567.43 707.441 116.477 890.977 960.118 890.977Z" fill="url(#paint0_linear_107_1604)"/>
</g>
<path d="M960.118 890.977C1803.76 890.977 2487.67 707.441 2487.67 481.038C2487.67 254.635 1803.76 71.0996 960.118 71.0996C116.477 71.0996 -567.43 254.635 -567.43 481.038C-567.43 707.441 116.477 890.977 960.118 890.977Z" fill="white"/>
</g>
</g>
<defs>
<filter id="filter0_f_107_1604" x="-620.755" y="17.7742" width="3161.75" height="926.528" filterUnits="userSpaceOnUse" color-interpolation-filters="sRGB">
<feFlood flood-opacity="0" result="BackgroundImageFix"/>
<feBlend mode="normal" in="SourceGraphic" in2="BackgroundImageFix" result="shape"/>
<feGaussianBlur stdDeviation="26.6627" result="effect1_foregroundBlur_107_1604"/>
</filter>
<linearGradient id="paint0_linear_107_1604" x1="-567.432" y1="-16.7443" x2="-244.78" y2="1648.12" gradientUnits="userSpaceOnUse">
<stop stop-color="#F279C5"/>
<stop offset="0.5625" stop-color="#7A6CE1"/>
<stop offset="1" stop-color="#1D62F6"/>
</linearGradient>
<clipPath id="clip0_107_1604">
<rect width="1920" height="199.97" fill="white"/>
</clipPath>
</defs>
</svg>
