<svg width="20" height="20" viewBox="0 0 20 20" fill="none" xmlns="http://www.w3.org/2000/svg">
<path fill-rule="evenodd" clip-rule="evenodd" d="M1.25 3.43701C1.25 3.18837 1.34878 2.94991 1.52459 2.7741C1.7004 2.59829 1.93886 2.49951 2.1875 2.49951H17.8125C18.0611 2.49951 18.2996 2.59829 18.4754 2.7741C18.6513 2.94991 18.75 3.18837 18.75 3.43701C18.75 3.68565 18.6513 3.92411 18.4754 4.09992C18.2996 4.27574 18.0611 4.37451 17.8125 4.37451H2.1875C1.93886 4.37451 1.7004 4.27574 1.52459 4.09992C1.34878 3.92411 1.25 3.68565 1.25 3.43701ZM1.25 9.68701C1.25 9.43837 1.34878 9.19991 1.52459 9.0241C1.7004 8.84829 1.93886 8.74951 2.1875 8.74951H17.8125C18.0611 8.74951 18.2996 8.84829 18.4754 9.0241C18.6513 9.19991 18.75 9.43837 18.75 9.68701C18.75 9.93565 18.6513 10.1741 18.4754 10.3499C18.2996 10.5257 18.0611 10.6245 17.8125 10.6245H2.1875C1.93886 10.6245 1.7004 10.5257 1.52459 10.3499C1.34878 10.1741 1.25 9.93565 1.25 9.68701ZM2.1875 14.9995C1.93886 14.9995 1.7004 15.0983 1.52459 15.2741C1.34878 15.4499 1.25 15.6884 1.25 15.937C1.25 16.1856 1.34878 16.4241 1.52459 16.5999C1.7004 16.7758 1.93886 16.8745 2.1875 16.8745H17.8125C18.0611 16.8745 18.2996 16.7758 18.4754 16.5999C18.6513 16.4241 18.75 16.1856 18.75 15.937C18.75 15.6884 18.6513 15.4499 18.4754 15.2741C18.2996 15.0983 18.0611 14.9995 17.8125 14.9995H2.1875Z" fill="#0D2839"/>
</svg>
