<svg viewBox="0 0 32 32" fill="none" xmlns="http://www.w3.org/2000/svg">
<g clip-path="url(#clip0_105_3653)">
<path fill-rule="evenodd" clip-rule="evenodd" d="M12.4193 17L9.14872 7.18834L5.71464 17H12.4193ZM13.4193 20L15.0774 24.9744C15.3394 25.7602 16.1888 26.185 16.9748 25.923C17.7607 25.661 18.1854 24.8116 17.9234 24.0256L11.4692 4.6631C11.1382 3.66992 10.2087 3 9.16182 3C8.12826 3 7.20756 3.6532 6.86612 4.62876L0.0846211 24.0044C-0.18905 24.7864 0.222966 25.6422 1.00488 25.9158C1.7868 26.1894 2.64252 25.7774 2.9162 24.9956L4.66464 20H13.4193ZM19.6817 11.2849C21.0576 8.74816 23.7384 8 26.0002 8C28.9998 8 32.0002 9.87704 32.0002 13.2022V24.5C32.0002 25.3284 31.3288 26 30.5002 26C29.866 26 29.3238 25.6064 29.1044 25.05C27.9904 25.6394 26.601 26 25 26C23.4602 26 21.9728 25.538 20.8436 24.5826C19.6894 23.606 19 22.1848 19 20.5C19 19.1121 19.5302 17.6771 20.7738 16.6111C21.9998 15.5602 23.7622 15 26 15H29.0002V13.2022C29.0002 12.123 28.0008 11 26.0002 11C24.2622 11 22.943 11.5643 22.3188 12.7151C21.9238 13.4434 21.0134 13.7135 20.2852 13.3185C19.5569 12.9236 19.2868 12.0131 19.6817 11.2849ZM29.0002 18H26C24.2378 18 23.2502 18.4398 22.7262 18.8889C22.2198 19.3229 22 19.8879 22 20.5C22 21.3152 22.3106 21.894 22.7814 22.2924C23.2772 22.712 24.0398 23 25 23C26.4642 23 27.5208 22.583 28.1754 22.1028C28.8776 21.588 29 21.1126 29 21H29.0002V18Z" fill="#0D2839"/>
</g>
<defs>
<clipPath id="clip0_105_3653">
<rect width="32" height="32" fill="white"/>
</clipPath>
</defs>
</svg>
