<svg viewBox="0 0 20 20" fill="none" xmlns="http://www.w3.org/2000/svg">
<g clip-path="url(#clip0_15472_6437)">
<path fill-rule="evenodd" clip-rule="evenodd" d="M11.9813 0.6492C10.8023 -0.2164 9.19775 -0.2164 8.01866 0.6492L6.85923 1.50038C6.66786 1.64086 6.44537 1.73302 6.21072 1.769L4.789 1.98698C3.3432 2.20864 2.20864 3.3432 1.98698 4.789L1.769 6.21072C1.73302 6.44537 1.64086 6.66786 1.50038 6.85923L0.6492 8.01866C-0.2164 9.19775 -0.2164 10.8022 0.6492 11.9813L1.50038 13.1407C1.64086 13.3321 1.73302 13.5546 1.769 13.7892L1.98698 15.211C2.20864 16.6567 3.3432 17.7914 4.789 18.013L6.21072 18.231C6.44537 18.267 6.66786 18.3591 6.85923 18.4996L8.01866 19.3507C9.19775 20.2164 10.8022 20.2164 11.9813 19.3507L13.1407 18.4996C13.3321 18.3591 13.5546 18.267 13.7892 18.231L15.211 18.013C16.6567 17.7914 17.7914 16.6567 18.013 15.211L18.231 13.7892C18.267 13.5546 18.3591 13.3321 18.4996 13.1407L19.3507 11.9813C20.2164 10.8022 20.2164 9.19775 19.3507 8.01866L18.4996 6.85923C18.3591 6.66786 18.267 6.44537 18.231 6.21072L18.013 4.789C17.7914 3.3432 16.6567 2.20864 15.211 1.98698L13.7892 1.769C13.5546 1.73302 13.3321 1.64086 13.1407 1.50038L11.9813 0.6492ZM9.12825 2.16064C9.64703 1.77979 10.353 1.77979 10.8717 2.16064L12.0312 3.01181C12.4661 3.33111 12.9718 3.54058 13.5051 3.62234L14.9269 3.84031C15.563 3.93784 16.0621 4.43702 16.1596 5.07315L16.3776 6.49486C16.4594 7.0282 16.6689 7.53387 16.9883 7.96883L17.8394 9.12825C18.2202 9.64703 18.2202 10.353 17.8394 10.8717L16.9883 12.0312C16.6689 12.4661 16.4594 12.9718 16.3776 13.5051L16.1596 14.9269C16.0621 15.563 15.563 16.0621 14.9269 16.1596L13.5051 16.3776C12.9718 16.4594 12.4661 16.6689 12.0312 16.9883L10.8717 17.8394C10.353 18.2202 9.64703 18.2202 9.12825 17.8394L7.96883 16.9883C7.53387 16.6689 7.0282 16.4594 6.49486 16.3776L5.07315 16.1596C4.43702 16.0621 3.93784 15.563 3.84031 14.9269L3.62234 13.5051C3.54058 12.9718 3.33111 12.4661 3.01181 12.0312L2.16064 10.8717C1.77979 10.353 1.77979 9.64703 2.16064 9.12825L3.01181 7.96881C3.33111 7.53387 3.54058 7.0282 3.62234 6.49486L3.84031 5.07315C3.93784 4.43702 4.43702 3.93784 5.07315 3.84031L6.49486 3.62234C7.0282 3.54058 7.53387 3.33111 7.96881 3.01181L9.12825 2.16064ZM14.1004 8.47541C14.4665 8.1093 14.4665 7.5157 14.1004 7.14959C13.7343 6.78347 13.1407 6.78347 12.7746 7.14959L8.75 11.1742L7.22541 9.64959C6.8593 9.28347 6.2657 9.28347 5.89959 9.64959C5.53347 10.0157 5.53347 10.6093 5.89959 10.9754L8.08709 13.1629C8.4532 13.529 9.0468 13.529 9.41291 13.1629L14.1004 8.47541Z" fill="#2E2657"/>
</g>
<defs>
<clipPath id="clip0_15472_6437">
<rect width="20" height="20" fill="white"/>
</clipPath>
</defs>
</svg>
