<svg viewBox="0 0 21 20" fill="none" xmlns="http://www.w3.org/2000/svg">
<g clip-path="url(#clip0_3496_6412)">
<path fill-rule="evenodd" clip-rule="evenodd" d="M20.5 4.6875C20.5 4.34975 20.3184 4.0381 20.0244 3.87169C19.7305 3.70528 19.3698 3.70983 19.0801 3.8836L14.25 6.7817V5.9375C14.25 4.72938 13.2706 3.75 12.0625 3.75H2.6875C1.47938 3.75 0.5 4.72938 0.5 5.9375V14.0625C0.5 15.2706 1.47938 16.25 2.6875 16.25H12.0625C13.2706 16.25 14.25 15.2706 14.25 14.0625V13.2183L19.0801 16.1164C19.3698 16.2901 19.7305 16.2948 20.0244 16.1283C20.3184 15.9619 20.5 15.6503 20.5 15.3125V4.6875ZM14.25 11.0317L18.625 13.6567V6.3433L14.25 8.9683V11.0317ZM12.375 8.4375V5.9375C12.375 5.76491 12.2351 5.625 12.0625 5.625H2.6875C2.51491 5.625 2.375 5.76491 2.375 5.9375V14.0625C2.375 14.2351 2.51491 14.375 2.6875 14.375H12.0625C12.2351 14.375 12.375 14.2351 12.375 14.0625V11.5625V8.4375Z" fill="white"/>
</g>
<defs>
<clipPath id="clip0_3496_6412">
<rect width="20" height="20" fill="white" transform="translate(0.5)"/>
</clipPath>
</defs>
</svg>
