<svg viewBox="0 0 32 32" fill="none" xmlns="http://www.w3.org/2000/svg">
<path fill-rule="evenodd" clip-rule="evenodd" d="M27.5617 8.43966C27.8425 8.7209 28.0003 9.10216 28.0003 9.49966C28.0003 9.89716 27.8425 10.2784 27.5617 10.5597L13.0617 25.0597C12.7804 25.3405 12.3992 25.4983 12.0017 25.4983C11.6042 25.4983 11.2229 25.3405 10.9417 25.0597L4.44166 18.5597C4.1767 18.2753 4.03246 17.8992 4.0393 17.5106C4.04616 17.122 4.20357 16.7512 4.47841 16.4764C4.75323 16.2016 5.12402 16.0442 5.51262 16.0373C5.90122 16.0304 6.2773 16.1747 6.56166 16.4397L12.0017 21.8797L25.4417 8.43966C25.7229 8.15876 26.1041 8.00098 26.5017 8.00098C26.8991 8.00098 27.2805 8.15876 27.5617 8.43966Z" fill="#0D2839"/>
</svg>
