<svg width="35" height="35" viewBox="0 0 35 35" fill="none" xmlns="http://www.w3.org/2000/svg">
<g clip-path="url(#clip0_15472_9097)">
<path fill-rule="evenodd" clip-rule="evenodd" d="M5.46924 3.82812C5.46924 3.5261 5.71409 3.28125 6.01611 3.28125H24.6099C24.912 3.28125 25.1567 3.5261 25.1567 3.82812V20.7516C25.1567 21.6577 25.8913 22.3923 26.7974 22.3923C27.7034 22.3923 28.438 21.6577 28.438 20.7516V3.82812C28.438 1.71391 26.7241 0 24.6099 0H6.01611C3.90189 0 2.18799 1.71391 2.18799 3.82812V28.9844C2.18799 31.0986 3.90189 32.8125 6.01611 32.8125H12.9523C13.8584 32.8125 14.5929 32.0779 14.5929 31.1719C14.5929 30.2658 13.8584 29.5312 12.9523 29.5312H6.01611C5.71409 29.5312 5.46924 29.2865 5.46924 28.9844V3.82812ZM10.3911 8.75C9.48503 8.75 8.75049 9.48454 8.75049 10.3906C8.75049 11.2967 9.48503 12.0312 10.3911 12.0312H20.2349C21.1409 12.0312 21.8755 11.2967 21.8755 10.3906C21.8755 9.48454 21.1409 8.75 20.2349 8.75H10.3911ZM8.75049 16.9531C8.75049 16.047 9.48503 15.3125 10.3911 15.3125H14.7661C15.6722 15.3125 16.4067 16.047 16.4067 16.9531C16.4067 17.8592 15.6722 18.5938 14.7661 18.5938H10.3911C9.48503 18.5938 8.75049 17.8592 8.75049 16.9531ZM34.5061 24.6894C35.1543 24.0564 35.1667 23.0175 34.5337 22.3694C33.9006 21.7211 32.8618 21.7088 32.2136 22.3418L23.4074 30.9415L20.3033 27.8263C19.6637 27.1845 18.6249 27.1828 17.9831 27.8222C17.3412 28.4618 17.3394 29.5006 17.979 30.1424L22.2294 34.4081C22.8645 35.0453 23.8943 35.0523 24.5379 34.4238L34.5061 24.6894Z" fill="white"/>
</g>
<defs>
<clipPath id="clip0_15472_9097">
<rect width="35" height="35" fill="white"/>
</clipPath>
</defs>
</svg>
