<svg width="35" height="35" viewBox="0 0 35 35" fill="none" xmlns="http://www.w3.org/2000/svg">
<g clip-path="url(#clip0_15472_11200)">
<path fill-rule="evenodd" clip-rule="evenodd" d="M3.28125 17.5C3.28125 9.6472 9.6472 3.28125 17.5 3.28125C25.3529 3.28125 31.7188 9.6472 31.7188 17.5C31.7188 25.3529 25.3529 31.7188 17.5 31.7188C9.6472 31.7188 3.28125 25.3529 3.28125 17.5ZM17.5 0C7.83501 0 0 7.83501 0 17.5C0 27.165 7.83501 35 17.5 35C27.165 35 35 27.165 35 17.5C35 7.83501 27.165 0 17.5 0ZM13.9532 11.4344C13.5887 11.2157 13.125 11.4783 13.125 11.9034V23.0967C13.125 23.5218 13.5887 23.7843 13.9532 23.5655L23.2809 17.9689C23.6348 17.7565 23.6348 17.2435 23.2809 17.0311L13.9532 11.4344Z" fill="white"/>
</g>
<defs>
<clipPath id="clip0_15472_11200">
<rect width="35" height="35" fill="white"/>
</clipPath>
</defs>
</svg>
