<svg viewBox="0 0 32 32" fill="none" xmlns="http://www.w3.org/2000/svg">
<path fill-rule="evenodd" clip-rule="evenodd" d="M16.312 3.10991C16.2234 3.03915 16.1134 3.00061 16 3.00061C15.8866 3.00061 15.7766 3.03915 15.688 3.10991L5.188 11.5099C5.12918 11.5569 5.08172 11.6165 5.04916 11.6844C5.01662 11.7523 4.9998 11.8266 5 11.9019V25.9399C5 26.2159 5.224 26.4399 5.5 26.4399H11V15.9399C11 15.5421 11.158 15.1605 11.4393 14.8792C11.7206 14.5979 12.1022 14.4399 12.5 14.4399H19.5C19.8978 14.4399 20.2794 14.5979 20.5606 14.8792C20.842 15.1605 21 15.5421 21 15.9399V26.4399H26.5C26.6326 26.4399 26.7598 26.3873 26.8536 26.2935C26.9474 26.1997 27 26.0725 27 25.9399V11.8999C26.9998 11.825 26.983 11.751 26.9504 11.6835C26.9178 11.616 26.8706 11.5567 26.812 11.5099L16.312 3.10991ZM13.812 0.7679C14.4327 0.27114 15.204 0.000488281 15.999 0.000488281C16.794 0.000488281 17.5653 0.27114 18.186 0.7679L28.686 9.16791C29.516 9.83189 30 10.8379 30 11.9019V25.9399C30 26.8681 29.6312 27.7583 28.9748 28.4147C28.3184 29.0711 27.4282 29.4399 26.5 29.4399H19.5C19.1022 29.4399 18.7206 29.2819 18.4393 29.0005C18.158 28.7193 18 28.3377 18 27.9399V17.4399H14V27.9399C14 28.3377 13.842 28.7193 13.5607 29.0005C13.2794 29.2819 12.8978 29.4399 12.5 29.4399H5.5C4.57174 29.4399 3.6815 29.0711 3.02512 28.4147C2.36874 27.7583 2 26.8681 2 25.9399V11.8999C2 10.8379 2.484 9.83189 3.314 9.16791L13.814 0.7679H13.812Z" fill="#0D2839"/>
</svg>
