<svg viewBox="0 0 32 32" fill="none" xmlns="http://www.w3.org/2000/svg">
<path fill-rule="evenodd" clip-rule="evenodd" d="M4 8.00049C5.10456 8.00049 6 7.10505 6 6.00049C6 4.89593 5.10456 4.00049 4 4.00049C2.89544 4.00049 2 4.89593 2 6.00049C2 7.10505 2.89544 8.00049 4 8.00049ZM11.5 5.00049C10.6716 5.00049 10 5.67207 10 6.50049C10 7.32891 10.6716 8.00049 11.5 8.00049H28.5C29.3284 8.00049 30 7.32891 30 6.50049C30 5.67207 29.3284 5.00049 28.5 5.00049H11.5ZM11.5 15.0005C10.6716 15.0005 10 15.6721 10 16.5005C10 17.3289 10.6716 18.0005 11.5 18.0005H28.5C29.3284 18.0005 30 17.3289 30 16.5005C30 15.6721 29.3284 15.0005 28.5 15.0005H11.5ZM11.5 25.0005C10.6716 25.0005 10 25.6721 10 26.5005C10 27.3289 10.6716 28.0005 11.5 28.0005H28.5C29.3284 28.0005 30 27.3289 30 26.5005C30 25.6721 29.3284 25.0005 28.5 25.0005H11.5ZM6 16.0005C6 17.105 5.10456 18.0005 4 18.0005C2.89544 18.0005 2 17.105 2 16.0005C2 14.8959 2.89544 14.0005 4 14.0005C5.10456 14.0005 6 14.8959 6 16.0005ZM4 28.0005C5.10456 28.0005 6 27.1051 6 26.0005C6 24.8959 5.10456 24.0005 4 24.0005C2.89544 24.0005 2 24.8959 2 26.0005C2 27.1051 2.89544 28.0005 4 28.0005Z" fill="#0D2839"/>
</svg>
