<svg viewBox="0 0 32 32" fill="none" xmlns="http://www.w3.org/2000/svg">
<g clip-path="url(#clip0_105_3540)">
<path fill-rule="evenodd" clip-rule="evenodd" d="M28.1307 0C23.4895 0.000195553 19.0384 1.84407 15.7567 5.126L14.8387 6.042C14.2107 6.67 13.6067 7.324 13.0307 8H6.62267C6.02503 8.00018 5.43741 8.15338 4.91575 8.445C4.39411 8.73664 3.95583 9.15698 3.64267 9.666L0.222666 15.214C0.102613 15.409 0.0288003 15.6289 0.0068852 15.8568C-0.0150299 16.0848 0.0155344 16.3147 0.0962353 16.529C0.176937 16.7433 0.305632 16.9363 0.472458 17.0932C0.639282 17.25 0.839808 17.3666 1.05867 17.434L7.26267 19.342C7.33667 19.444 7.42067 19.542 7.51067 19.632L12.3687 24.488C12.4607 24.58 12.5567 24.664 12.6587 24.738L14.5667 30.942C14.634 31.1608 14.7506 31.3614 14.9075 31.5282C15.0644 31.695 15.2573 31.8238 15.4716 31.9044C15.6859 31.9852 15.9159 32.0156 16.1438 31.9938C16.3718 31.9718 16.5917 31.898 16.7867 31.778L22.3347 28.364C22.8437 28.0508 23.2641 27.6126 23.5557 27.091C23.8473 26.5692 24.0005 25.9816 24.0007 25.384V18.97C24.6767 18.394 25.3307 17.79 25.9587 17.162L26.8747 16.244C30.1569 12.9631 32.0015 8.5128 32.0027 3.872V3.5C32.0027 2.57174 31.6339 1.6815 30.9775 1.02513C30.3211 0.368748 29.4309 0 28.5027 0H28.1307ZM21.0027 21.25C20.8267 21.37 20.6487 21.486 20.4707 21.6L15.7707 24.642L16.8667 28.208L20.7647 25.808C20.8375 25.7632 20.8975 25.7006 20.9391 25.626C20.9809 25.5514 21.0027 25.4674 21.0027 25.382V21.25ZM7.35867 16.232L10.4027 11.532C10.5187 11.352 10.6367 11.176 10.7547 11H6.62067C6.53525 11 6.45123 11.0218 6.37667 11.0635C6.30209 11.1052 6.23943 11.1652 6.19467 11.238L3.79467 15.138L7.35867 16.232ZM17.8787 7.246C20.5973 4.52782 24.2843 3.00056 28.1287 3H28.5007C28.6333 3 28.7605 3.05268 28.8543 3.14644C28.9481 3.24022 29.0007 3.3674 29.0007 3.5V3.872C29.0009 5.77626 28.6261 7.66192 27.8975 9.42132C27.1691 11.1807 26.1011 12.7794 24.7547 14.126L23.8367 15.042C22.3167 16.562 20.6427 17.916 18.8387 19.082L14.2047 22.082L9.91867 17.796L12.9187 13.162C14.0854 11.3577 15.4396 9.6817 16.9587 8.162L17.8747 7.246H17.8787ZM24.0027 10C24.0027 10.5304 23.7919 11.0391 23.4169 11.4142C23.0419 11.7893 22.5331 12 22.0027 12C21.4723 12 20.9635 11.7893 20.5885 11.4142C20.2133 11.0391 20.0027 10.5304 20.0027 10C20.0027 9.46956 20.2133 8.96086 20.5885 8.58578C20.9635 8.21072 21.4723 8 22.0027 8C22.5331 8 23.0419 8.21072 23.4169 8.58578C23.7919 8.96086 24.0027 9.46956 24.0027 10ZM7.12267 29.12C7.41741 28.8454 7.65383 28.5142 7.81779 28.1462C7.98177 27.7782 8.06993 27.381 8.07703 26.978C8.08415 26.5752 8.01005 26.1752 7.85917 25.8016C7.70827 25.428 7.48369 25.0888 7.19883 24.8038C6.91395 24.519 6.57461 24.2944 6.20107 24.1436C5.82751 23.9926 5.42739 23.9186 5.02459 23.9256C4.62177 23.9328 4.22451 24.021 3.85651 24.1848C3.48853 24.3488 3.15731 24.5852 2.88267 24.88C1.41467 26.34 0.788666 29.544 0.582666 30.886C0.570486 30.9584 0.57578 31.0326 0.598106 31.1024C0.620432 31.1722 0.659144 31.2358 0.71101 31.2876C0.762878 31.3396 0.826396 31.3782 0.896266 31.4006C0.966138 31.4228 1.04033 31.4282 1.11267 31.416C2.45467 31.21 5.65867 30.584 7.12267 29.12Z" fill="#0D2839"/>
</g>
<defs>
<clipPath id="clip0_105_3540">
<rect width="32" height="32" fill="white"/>
</clipPath>
</defs>
</svg>
