<svg  viewBox="0 0 32 32" fill="none" xmlns="http://www.w3.org/2000/svg">
<path fill-rule="evenodd" clip-rule="evenodd" d="M22.9988 14.0008C22.9988 15.1827 22.766 16.353 22.3136 17.4449C21.8614 18.5369 21.1984 19.529 20.3628 20.3648C19.527 21.2004 18.5349 21.8634 17.443 22.3158C16.351 22.768 15.1807 23.0008 13.9988 23.0008C12.8169 23.0008 11.6466 22.768 10.5547 22.3158C9.46275 21.8634 8.47059 21.2004 7.63487 20.3648C6.79913 19.529 6.13621 18.5369 5.68391 17.4449C5.23161 16.353 4.99883 15.1827 4.99883 14.0008C4.99883 11.6138 5.94703 9.32464 7.63487 7.63682C9.32269 5.94898 11.6119 5.00078 13.9988 5.00078C16.3858 5.00078 18.6749 5.94898 20.3628 7.63682C22.0506 9.32464 22.9988 11.6138 22.9988 14.0008ZM21.3588 23.4808C18.9476 25.3528 15.9136 26.2354 12.8744 25.949C9.83529 25.6628 7.01951 24.229 5.00033 21.9396C2.98113 19.6502 1.91033 16.6774 2.00589 13.6263C2.10147 10.5752 3.35623 7.67518 5.51473 5.51668C7.67325 3.35818 10.5732 2.10342 13.6243 2.00784C16.6754 1.91227 19.6482 2.98308 21.9376 5.00228C24.227 7.02146 25.6608 9.83724 25.947 12.8764C26.2334 15.9155 25.3508 18.9495 23.4788 21.3608L29.5588 27.4408C29.7062 27.5782 29.8244 27.7438 29.9064 27.9278C29.9884 28.1118 30.0324 28.3104 30.036 28.5118C30.0396 28.7132 30.0024 28.9132 29.927 29.1C29.8516 29.2868 29.7392 29.4564 29.5968 29.5988C29.4544 29.7414 29.2848 29.8536 29.098 29.929C28.9112 30.0044 28.7112 30.0416 28.5098 30.038C28.3084 30.0344 28.1096 29.9904 27.9258 29.9084C27.7418 29.8264 27.5762 29.7082 27.4388 29.5608L21.3588 23.4808Z" fill="#0D2839"/>
</svg>
