<svg viewBox="0 0 32 32" fill="none" xmlns="http://www.w3.org/2000/svg">
<g clip-path="url(#clip0_105_3675)">
<path fill-rule="evenodd" clip-rule="evenodd" d="M27 6.00049C27 7.65735 25.6568 9.00049 24 9.00049C22.3432 9.00049 21 7.65735 21 6.00049C21 4.34363 22.3432 3.00049 24 3.00049C25.6568 3.00049 27 4.34363 27 6.00049ZM30 6.00049C30 9.31419 27.3138 12.0005 24 12.0005C22.2878 12.0005 20.7432 11.2833 19.65 10.133L11.8082 14.4896C11.9334 14.9723 12 15.4786 12 16.0005C12 16.5224 11.9334 17.0287 11.8081 17.5114L19.65 21.8681C20.7432 20.7177 22.2878 20.0005 24 20.0005C27.3138 20.0005 30 22.6867 30 26.0005C30 29.3143 27.3138 32.0005 24 32.0005C20.6862 32.0005 18 29.3143 18 26.0005C18 25.4787 18.0666 24.9725 18.1918 24.4897L10.3499 20.1331C9.25672 21.2833 7.7121 22.0005 6 22.0005C2.6863 22.0005 0 19.3142 0 16.0005C0 12.6868 2.6863 10.0005 6 10.0005C7.71214 10.0005 9.25676 10.7176 10.3499 11.8679L18.1918 7.51129C18.0666 7.02861 18 6.52233 18 6.00049C18 2.68679 20.6862 0.000488281 24 0.000488281C27.3138 0.000488281 30 2.68679 30 6.00049ZM27 26.0005C27 27.6573 25.6568 29.0005 24 29.0005C22.3432 29.0005 21 27.6573 21 26.0005C21 24.3437 22.3432 23.0005 24 23.0005C25.6568 23.0005 27 24.3437 27 26.0005ZM9 16.0005C9 17.6573 7.65686 19.0005 6 19.0005C4.34314 19.0005 3 17.6573 3 16.0005C3 14.3436 4.34314 13.0005 6 13.0005C7.65686 13.0005 9 14.3436 9 16.0005Z" fill="#0D2839"/>
</g>
<defs>
<clipPath id="clip0_105_3675">
<rect width="32" height="32" fill="white"/>
</clipPath>
</defs>
</svg>
