<svg width="17" height="17" viewBox="0 0 17 17" fill="none" xmlns="http://www.w3.org/2000/svg">
<path fill-rule="evenodd" clip-rule="evenodd" d="M5.60195 6.2816V3H5.35193C4.93772 3 4.60193 2.66421 4.60193 2.25C4.60193 1.83579 4.93772 1.5 5.35193 1.5H6.35195H10.8519H11.8519C12.2661 1.5 12.6019 1.83579 12.6019 2.25C12.6019 2.66421 12.2661 3 11.8519 3H11.6019V6.2816L15.2677 12.042C16.2208 13.5399 15.1449 15.5 13.3694 15.5H3.83446C2.05901 15.5 0.983027 13.5399 1.93622 12.042L5.60195 6.2816ZM10.102 3H7.10195V6.5C7.10195 6.64264 7.06128 6.78232 6.9847 6.90266L5.33184 9.5H11.872L10.2192 6.90266C10.1426 6.78232 10.102 6.64264 10.102 6.5V3ZM3.20172 12.8473L4.3773 11H12.8266L14.0022 12.8473C14.3199 13.3466 13.9612 14 13.3694 14H3.83446C3.24264 14 2.88398 13.3466 3.20172 12.8473Z" fill="#0D2839"/>
</svg>
