<svg width="32" height="32" viewBox="0 0 32 32" fill="none" xmlns="http://www.w3.org/2000/svg">
<g clip-path="url(#clip0_105_3584)">
<path fill-rule="evenodd" clip-rule="evenodd" d="M3.0856 14.5H8.55198C8.84042 10.3517 10.2831 6.98756 11.7138 4.60316C11.9502 4.20912 12.1867 3.841 12.4184 3.49964C7.44506 4.92194 3.69084 9.23202 3.0856 14.5ZM8.552 17.5H3.0856C3.69084 22.768 7.44516 27.0782 12.4186 28.5004C12.1869 28.159 11.9502 27.7908 11.7138 27.3966C10.2831 25.0122 8.84046 21.6482 8.552 17.5ZM11.5605 17.5H20.4394C20.1584 20.971 18.9419 23.8062 17.7138 25.8532C17.1013 26.874 16.49 27.6914 16 28.2844C15.51 27.6914 14.8987 26.874 14.2862 25.8532C13.0581 23.8062 11.8416 20.971 11.5605 17.5ZM20.4396 14.5H11.5605C11.8415 11.0289 13.0581 8.19354 14.2862 6.14664C14.8987 5.12582 15.51 4.3083 16 3.7154C16.49 4.3083 17.1013 5.12582 17.7138 6.14664C18.9419 8.19354 20.1584 11.0289 20.4396 14.5ZM23.448 17.5C23.1596 21.6482 21.7168 25.0122 20.2862 27.3966C20.0498 27.7908 19.8131 28.159 19.5814 28.5004C24.5548 27.0782 28.3092 22.768 28.9144 17.5H23.448ZM28.9144 14.5H23.448C23.1596 10.3517 21.7168 6.98756 20.2862 4.60316C20.0498 4.20912 19.8132 3.841 19.5816 3.49962C24.555 4.92192 28.3092 9.23202 28.9144 14.5ZM16 0C7.16344 0 0 7.16344 0 16C0 24.8366 7.16344 32 16 32C24.8366 32 32 24.8366 32 16C32 7.16344 24.8366 0 16 0Z" fill="#0D2839"/>
</g>
<defs>
<clipPath id="clip0_105_3584">
<rect width="32" height="32" fill="white"/>
</clipPath>
</defs>
</svg>
