<svg width="17" height="17" viewBox="0 0 17 17" fill="none" xmlns="http://www.w3.org/2000/svg">
<g clip-path="url(#clip0_13426_23779)">
<path fill-rule="evenodd" clip-rule="evenodd" d="M4.8501 3.3999C3.51431 3.3999 2.1001 4.56411 2.1001 6.3999C2.1001 8.54959 3.68051 10.5437 5.4648 12.0818C6.33543 12.8324 7.20972 13.4357 7.86806 13.8519C8.16417 14.0391 8.41502 14.1874 8.6001 14.2933C8.78518 14.1874 9.03603 14.0391 9.33214 13.8519C9.99049 13.4357 10.8648 12.8324 11.7354 12.0818C13.5197 10.5437 15.1001 8.54959 15.1001 6.3999C15.1001 4.56411 13.6859 3.3999 12.3501 3.3999C10.9769 3.3999 9.74131 4.38571 9.32124 5.85594C9.22925 6.17792 8.93496 6.3999 8.6001 6.3999C8.26524 6.3999 7.97095 6.17792 7.87896 5.85594C7.45889 4.38571 6.22329 3.3999 4.8501 3.3999ZM8.6001 15.1499C8.25553 15.8161 8.25533 15.816 8.2551 15.8158L8.25279 15.8146L8.24741 15.8118L8.22893 15.8021C8.21323 15.7938 8.19084 15.7819 8.1622 15.7664C8.10494 15.7355 8.02264 15.6903 7.9189 15.6316C7.7115 15.5141 7.41781 15.3419 7.06652 15.1198C6.36548 14.6766 5.42727 14.0299 4.4854 13.218C2.64469 11.6311 0.600098 9.25021 0.600098 6.3999C0.600098 3.73569 2.68589 1.8999 4.8501 1.8999C6.39746 1.8999 7.75299 2.70141 8.6001 3.91985C9.44721 2.70141 10.8027 1.8999 12.3501 1.8999C14.5143 1.8999 16.6001 3.73569 16.6001 6.3999C16.6001 9.25021 14.5555 11.6311 12.7148 13.218C11.7729 14.0299 10.8347 14.6766 10.1337 15.1198C9.78239 15.3419 9.4887 15.5141 9.2813 15.6316C9.17756 15.6903 9.09527 15.7355 9.038 15.7664C9.00936 15.7819 8.98697 15.7938 8.97127 15.8021L8.95279 15.8118L8.94741 15.8146L8.94511 15.8158C8.94487 15.816 8.94467 15.8161 8.6001 15.1499ZM8.6001 15.1499L8.94511 15.8158C8.72899 15.9276 8.47121 15.9276 8.2551 15.8158L8.6001 15.1499Z" fill="#0D2839"/>
</g>
<defs>
<clipPath id="clip0_13426_23779">
<rect width="16" height="16" fill="white" transform="translate(0.600098 0.899902)"/>
</clipPath>
</defs>
</svg>
