<svg width="28" height="28" viewBox="0 0 28 28" fill="none" xmlns="http://www.w3.org/2000/svg">
<path fill-rule="evenodd" clip-rule="evenodd" d="M3.49878 4.8136C3.49878 3.12222 4.8699 1.7511 6.56128 1.7511H10.9363C11.6611 1.7511 12.2488 2.33873 12.2488 3.0636C12.2488 3.78847 11.6611 4.3761 10.9363 4.3761H6.56128C6.31966 4.3761 6.12378 4.57198 6.12378 4.8136V23.1886C6.12378 23.4303 6.31966 23.6261 6.56128 23.6261H10.9363C11.6611 23.6261 12.2488 24.2137 12.2488 24.9386C12.2488 25.6634 11.6611 26.2511 10.9363 26.2511H6.56128C4.8699 26.2511 3.49878 24.88 3.49878 23.1886V4.8136ZM21.7676 12.6886H11.8113C11.0864 12.6886 10.4988 13.2762 10.4988 14.0011C10.4988 14.726 11.0864 15.3136 11.8113 15.3136H21.7676L18.3208 18.7606C17.8082 19.2731 17.8082 20.104 18.3208 20.6166C18.8333 21.1292 19.6642 21.1292 20.1768 20.6166L25.8643 14.9292C26.3769 14.4166 26.3769 13.5856 25.8643 13.073L20.1768 7.38552C19.6642 6.87296 18.8333 6.87296 18.3208 7.38552C17.8082 7.89808 17.8082 8.72912 18.3208 9.24168L21.7676 12.6886Z" fill="#0D2839"/>
</svg>
