<svg width="32" height="32" viewBox="0 0 32 32" fill="none" xmlns="http://www.w3.org/2000/svg">
<path fill-rule="evenodd" clip-rule="evenodd" d="M16.1172 4.79785C16.515 4.79785 16.8965 4.95589 17.1778 5.23719C17.4591 5.51849 17.6172 5.90003 17.6172 6.29785V14.7979H26.1172C26.515 14.7979 26.8966 14.9559 27.1778 15.2372C27.4592 15.5185 27.6172 15.9 27.6172 16.2979C27.6172 16.6957 27.4592 17.0772 27.1778 17.3585C26.8966 17.6398 26.515 17.7979 26.1172 17.7979H17.6172V26.2979C17.6172 26.6957 17.4591 27.0773 17.1778 27.3585C16.8965 27.6399 16.515 27.7979 16.1172 27.7979C15.7194 27.7979 15.3378 27.6399 15.0565 27.3585C14.7752 27.0773 14.6172 26.6957 14.6172 26.2979V17.7979H6.11719C5.71937 17.7979 5.33783 17.6398 5.05653 17.3585C4.77523 17.0772 4.61719 16.6957 4.61719 16.2979C4.61719 15.9 4.77523 15.5185 5.05653 15.2372C5.33783 14.9559 5.71937 14.7979 6.11719 14.7979H14.6172V6.29785C14.6172 5.90003 14.7752 5.51849 15.0565 5.23719C15.3378 4.95589 15.7194 4.79785 16.1172 4.79785Z" fill="#0D2839"/>
</svg>
