<svg width="32" height="32" viewBox="0 0 32 32" fill="none" xmlns="http://www.w3.org/2000/svg">
<path fill-rule="evenodd" clip-rule="evenodd" d="M4 5.50098C4 3.56798 5.567 2.00098 7.5 2.00098H12.5C13.3284 2.00098 14 2.67256 14 3.50098C14 4.3294 13.3284 5.00098 12.5 5.00098H7.5C7.22386 5.00098 7 5.22484 7 5.50098V26.501C7 26.7772 7.22386 27.001 7.5 27.001H12.5C13.3284 27.001 14 27.6726 14 28.501C14 29.3294 13.3284 30.001 12.5 30.001H7.5C5.567 30.001 4 28.434 4 26.501V5.50098ZM24.8786 14.501H13.5C12.6716 14.501 12 15.1726 12 16.001C12 16.8294 12.6716 17.501 13.5 17.501H24.8786L20.9394 21.4404C20.3536 22.0262 20.3536 22.9758 20.9394 23.5616C21.5252 24.1474 22.4748 24.1474 23.0606 23.5616L29.5606 17.0616C30.1464 16.4759 30.1464 15.5261 29.5606 14.9403L23.0606 8.44032C22.4748 7.85454 21.5252 7.85454 20.9394 8.44032C20.3536 9.0261 20.3536 9.97586 20.9394 10.5616L24.8786 14.501Z" fill="#0D2839"/>
</svg>
