<svg width="17" height="17" viewBox="0 0 17 17" fill="none" xmlns="http://www.w3.org/2000/svg">
<path fill-rule="evenodd" clip-rule="evenodd" d="M1.40015 3.64941C1.40015 3.4505 1.47917 3.25973 1.61982 3.11908C1.76047 2.97843 1.95124 2.89941 2.15015 2.89941H14.6501C14.849 2.89941 15.0398 2.97843 15.1804 3.11908C15.3211 3.25973 15.4001 3.4505 15.4001 3.64941C15.4001 3.84832 15.3211 4.03909 15.1804 4.17974C15.0398 4.32039 14.849 4.39941 14.6501 4.39941H2.15015C1.95124 4.39941 1.76047 4.32039 1.61982 4.17974C1.47917 4.03909 1.40015 3.84832 1.40015 3.64941ZM1.40015 8.64941C1.40015 8.4505 1.47917 8.25973 1.61982 8.11908C1.76047 7.97843 1.95124 7.89941 2.15015 7.89941H14.6501C14.849 7.89941 15.0398 7.97843 15.1804 8.11908C15.3211 8.25973 15.4001 8.4505 15.4001 8.64941C15.4001 8.84832 15.3211 9.03909 15.1804 9.17974C15.0398 9.32039 14.849 9.39941 14.6501 9.39941H2.15015C1.95124 9.39941 1.76047 9.32039 1.61982 9.17974C1.47917 9.03909 1.40015 8.84832 1.40015 8.64941ZM2.15015 12.8994C1.95124 12.8994 1.76047 12.9784 1.61982 13.1191C1.47917 13.2597 1.40015 13.4505 1.40015 13.6494C1.40015 13.8483 1.47917 14.0391 1.61982 14.1797C1.76047 14.3204 1.95124 14.3994 2.15015 14.3994H14.6501C14.849 14.3994 15.0398 14.3204 15.1804 14.1797C15.3211 14.0391 15.4001 13.8483 15.4001 13.6494C15.4001 13.4505 15.3211 13.2597 15.1804 13.1191C15.0398 12.9784 14.849 12.8994 14.6501 12.8994H2.15015Z" fill="white"/>
</svg>
