<svg width="32" height="28" viewBox="0 0 32 28" fill="none" xmlns="http://www.w3.org/2000/svg">
<path d="M25.9276 23.3237L26.7474 24.3963L26.7474 24.3963L25.9276 23.3237ZM11.742 2.80006L12.0848 4.10582L11.742 2.80006ZM4.24548 20.2573L3.02737 19.6753L3.00372 19.7248L2.98416 19.7761L4.24548 20.2573ZM2 26.1427L0.738686 25.6615C0.565324 26.1159 0.649757 26.6284 0.959716 27.0031C1.26967 27.3779 1.75725 27.557 2.23608 27.4719L2 26.1427ZM7.62305 25.144L7.85913 26.4732L8.01972 26.4447L8.16891 26.3787L7.62305 25.144ZM26.7474 24.3963C32.0874 20.3148 33.21 13.2621 30.4733 7.90672C27.6694 2.41958 21.0175 -1.03043 11.3993 1.4943L12.0848 4.10582C20.7245 1.83796 25.9516 4.99159 28.0691 9.13532C30.2538 13.4108 29.3402 19.0162 25.1078 22.2511L26.7474 24.3963ZM11.3993 1.4943C8.67173 2.21026 6.80097 3.59848 5.56739 5.38435C4.35717 7.1364 3.82645 9.17476 3.58099 11.104C3.33672 13.0239 3.36284 14.9675 3.34906 16.5123C3.34199 17.3054 3.32517 17.9822 3.26854 18.549C3.21022 19.1327 3.11915 19.4833 3.02737 19.6753L5.46358 20.8394C5.75827 20.2226 5.88688 19.5009 5.95517 18.8174C6.02514 18.117 6.04186 17.3318 6.04895 16.5364C6.06351 14.9042 6.04052 13.1651 6.2594 11.4448C6.47709 9.73375 6.92178 8.17425 7.78894 6.91886C8.63274 5.69728 9.94132 4.66847 12.0848 4.10582L11.3993 1.4943ZM2.98416 19.7761L0.738686 25.6615L3.26131 26.624L5.50679 20.7386L2.98416 19.7761ZM2.23608 27.4719L7.85913 26.4732L7.38696 23.8148L1.76392 24.8135L2.23608 27.4719ZM8.16891 26.3787C8.25343 26.3414 8.42145 26.3001 8.75774 26.3279C9.09916 26.3562 9.5232 26.447 10.0747 26.5971C11.1088 26.8786 12.6022 27.3825 14.2126 27.6816C17.6063 28.3118 21.8607 28.1313 26.7474 24.3963L25.1078 22.2511C20.9208 25.4513 17.4715 25.5406 14.7055 25.027C13.2361 24.7541 12.0357 24.3327 10.7839 23.9919C10.1924 23.8309 9.57546 23.6864 8.98055 23.6371C8.38051 23.5875 7.7169 23.6265 7.07719 23.9093L8.16891 26.3787Z" fill="black"/>
</svg>
