<svg viewBox="0 0 33 32" fill="none" xmlns="http://www.w3.org/2000/svg">
<g clip-path="url(#clip0_3246_216275)">
<path fill-rule="evenodd" clip-rule="evenodd" d="M3.5 16C3.5 12.5522 4.86964 9.24558 7.30762 6.80762C9.74558 4.36964 13.0522 3 16.5 3C19.9478 3 23.2544 4.36964 25.6924 6.80762C28.1304 9.24558 29.5 12.5522 29.5 16C29.5 19.4478 28.1304 22.7544 25.6924 25.1924C23.2544 27.6304 19.9478 29 16.5 29C13.0522 29 9.74558 27.6304 7.30762 25.1924C4.86964 22.7544 3.5 19.4478 3.5 16ZM16.5 0C12.2565 0 8.18688 1.68571 5.1863 4.6863C2.18571 7.68688 0.5 11.7565 0.5 16C0.5 20.2434 2.18571 24.3132 5.1863 27.3138C8.18688 30.3142 12.2565 32 16.5 32C20.7434 32 24.8132 30.3142 27.8138 27.3138C30.8142 24.3132 32.5 20.2434 32.5 16C32.5 11.7565 30.8142 7.68688 27.8138 4.6863C24.8132 1.68571 20.7434 0 16.5 0ZM17.5 9.5C17.5 9.10218 17.342 8.72064 17.0607 8.43934C16.7794 8.15804 16.3978 8 16 8C15.6022 8 15.2206 8.15804 14.9393 8.43934C14.658 8.72064 14.5 9.10218 14.5 9.5V16.5C14.5001 16.7996 14.5898 17.0922 14.7577 17.3403C14.9256 17.5884 15.1639 17.7806 15.442 17.892L20.442 19.892C20.8082 20.0258 21.2122 20.0116 21.5682 19.8527C21.9242 19.6937 22.2044 19.4023 22.3492 19.0403C22.494 18.6783 22.4922 18.2741 22.3442 17.9134C22.1962 17.5527 21.9134 17.2638 21.556 17.108L17.5 15.484V9.5Z" fill="url(#paint0_linear_3246_216275)"/>
</g>
<defs>
<linearGradient id="paint0_linear_3246_216275" x1="16.5" y1="34.4924" x2="16.5" y2="0.816474" gradientUnits="userSpaceOnUse">
<stop stop-color="#6596FF"/>
<stop offset="1" stop-color="#7B61FF"/>
</linearGradient>
<clipPath id="clip0_3246_216275">
<rect width="32" height="32" fill="white" transform="translate(0.5)"/>
</clipPath>
</defs>
</svg>
