<svg viewBox="0 0 32 32" fill="none" xmlns="http://www.w3.org/2000/svg">
<g clip-path="url(#clip0_105_3598)">
<path fill-rule="evenodd" clip-rule="evenodd" d="M3 16C3 12.5522 4.36964 9.24558 6.80762 6.80762C9.24558 4.36964 12.5522 3 16 3C19.4478 3 22.7544 4.36964 25.1924 6.80762C27.6304 9.24558 29 12.5522 29 16C29 19.4478 27.6304 22.7544 25.1924 25.1924C22.7544 27.6304 19.4478 29 16 29C12.5522 29 9.24558 27.6304 6.80762 25.1924C4.36964 22.7544 3 19.4478 3 16ZM16 0C11.7565 0 7.68688 1.68571 4.6863 4.6863C1.68571 7.68688 0 11.7565 0 16C0 20.2434 1.68571 24.3132 4.6863 27.3138C7.68688 30.3142 11.7565 32 16 32C20.2434 32 24.3132 30.3142 27.3138 27.3138C30.3142 24.3132 32 20.2434 32 16C32 11.7565 30.3142 7.68688 27.3138 4.6863C24.3132 1.68571 20.2434 0 16 0ZM17 9.5C17 9.10218 16.842 8.72064 16.5607 8.43934C16.2794 8.15804 15.8978 8 15.5 8C15.1022 8 14.7206 8.15804 14.4393 8.43934C14.158 8.72064 14 9.10218 14 9.5V16.5C14.0001 16.7996 14.0898 17.0922 14.2577 17.3403C14.4256 17.5884 14.6639 17.7806 14.942 17.892L19.942 19.892C20.3082 20.0258 20.7122 20.0116 21.0682 19.8527C21.4242 19.6937 21.7044 19.4023 21.8492 19.0403C21.994 18.6783 21.9922 18.2741 21.8442 17.9134C21.6962 17.5527 21.4134 17.2638 21.056 17.108L17 15.484V9.5Z" fill="#0D2839"/>
</g>
<defs>
<clipPath id="clip0_105_3598">
<rect width="32" height="32" fill="white"/>
</clipPath>
</defs>
</svg>
