<svg viewBox="0 0 14 14" fill="none" xmlns="http://www.w3.org/2000/svg">
<g clip-path="url(#clip0_3611_6951)">
<path fill-rule="evenodd" clip-rule="evenodd" d="M10.1071 0.640221C9.35375 -0.11311 8.08047 0.11398 7.63401 1.08129L7.09793 2.2428C6.96464 2.5316 6.7813 2.79453 6.55639 3.01944C6.20357 3.37225 5.75977 3.62025 5.27439 3.73582L3.12702 4.2471C1.96161 4.52456 1.55185 5.9724 2.39893 6.81947L4.32761 8.74818L1.07296 12.0029C0.816672 12.2592 0.816672 12.6747 1.07296 12.9309C1.32925 13.1872 1.7447 13.1872 2.00098 12.9309L5.25572 9.6763L7.18443 11.605C8.0315 12.4521 9.47933 12.0423 9.7568 10.8769L10.2681 8.72951C10.3837 8.24413 10.6317 7.80033 10.9845 7.44751C11.2094 7.2226 11.4723 7.03927 11.7611 6.90598L12.9226 6.3699C13.8899 5.92344 14.117 4.65016 13.3637 3.89683L10.1071 0.640221Z" fill="#7B61FF"/>
</g>
<defs>
<clipPath id="clip0_3611_6951">
<rect width="14" height="14" fill="white" transform="matrix(-1 0 0 1 14 0)"/>
</clipPath>
</defs>
</svg>
