<svg viewBox="0 0 32 32" fill="none" xmlns="http://www.w3.org/2000/svg">
<path fill-rule="evenodd" clip-rule="evenodd" d="M1.5 6C0.671572 6 0 6.67158 0 7.5C0 8.32842 0.671572 9 1.5 9H30.5C31.3284 9 32 8.32842 32 7.5C32 6.67158 31.3284 6 30.5 6H1.5ZM6 15.5C6 14.6716 6.67158 14 7.5 14H24.5C25.3284 14 26 14.6716 26 15.5C26 16.3284 25.3284 17 24.5 17H7.5C6.67158 17 6 16.3284 6 15.5ZM12 23.5C12 22.6716 12.6716 22 13.5 22H18.5C19.3284 22 20 22.6716 20 23.5C20 24.3284 19.3284 25 18.5 25H13.5C12.6716 25 12 24.3284 12 23.5Z" fill="#0D2839"/>
</svg>
