<svg viewBox="0 0 32 32" fill="none" xmlns="http://www.w3.org/2000/svg">
<path d="M3 18C4.65686 18 6 16.6569 6 15C6 13.3431 4.65686 12 3 12C1.34315 12 0 13.3431 0 15C0 16.6569 1.34315 18 3 18Z" fill="#0D2839"/>
<path d="M16 18C17.6569 18 19 16.6569 19 15C19 13.3431 17.6569 12 16 12C14.3431 12 13 13.3431 13 15C13 16.6569 14.3431 18 16 18Z" fill="#0D2839"/>
<path d="M32 15C32 16.6569 30.6568 18 29 18C27.3432 18 26 16.6569 26 15C26 13.3431 27.3432 12 29 12C30.6568 12 32 13.3431 32 15Z" fill="#0D2839"/>
</svg>
