<svg viewBox="0 0 34 28" fill="none" xmlns="http://www.w3.org/2000/svg">
<path d="M26.8625 0.00171837C27.775 -0.0244031 28.7255 0.246278 29.408 0.882709C29.9046 1.38248 30.2209 1.99321 30.4731 2.64852C30.485 2.67925 30.4968 2.70998 30.5091 2.74164C30.8452 3.63407 30.9911 4.61278 31.0839 5.56051C31.1523 6.24377 31.2579 6.92196 31.3585 7.6009C31.3864 7.78885 31.414 7.97683 31.4417 8.16481C31.4893 8.48753 31.5369 8.81023 31.5846 9.13292C31.6533 9.59718 31.7218 10.0615 31.7903 10.5258C31.9359 11.5132 32.0818 12.5006 32.2277 13.4881C32.2801 13.8422 32.3324 14.1964 32.3848 14.5506C32.4122 14.7361 32.4396 14.9216 32.467 15.1072C32.5039 15.3569 32.5408 15.6066 32.5777 15.8563C32.6031 16.0281 32.6285 16.1999 32.6539 16.3717C32.6613 16.4216 32.6613 16.4216 32.6688 16.4725C32.7262 16.8612 32.7837 17.2499 32.8413 17.6385C32.8771 17.8803 32.9128 18.122 32.9486 18.3638C32.9689 18.501 32.9892 18.6382 33.0095 18.7754C33.0527 19.0666 33.0956 19.3578 33.138 19.6491C33.1531 19.7523 33.1683 19.8554 33.1837 19.9585C33.208 20.1222 33.2319 20.2861 33.2558 20.4499C33.2633 20.4996 33.2707 20.5492 33.2784 20.6004C33.3739 21.2638 33.3835 22.024 32.9828 22.5948C32.6739 22.9967 32.3293 23.2309 31.8377 23.3479C31.6909 23.3609 31.5452 23.362 31.3979 23.3615C31.3601 23.3622 31.3224 23.3628 31.2834 23.3636C30.7568 23.364 30.3575 23.1789 29.9747 22.8174C29.398 22.1927 29.2646 21.2423 29.0845 20.4357C29.0649 20.3493 29.0453 20.2628 29.0256 20.1764C28.9867 20.005 28.9481 19.8335 28.9098 19.6619C28.8716 19.4913 28.8329 19.3209 28.7937 19.1505C28.6372 18.4672 28.6372 18.4672 28.5973 18.1737C28.5456 17.7992 28.4525 17.4336 28.3656 17.0663C28.308 16.8225 28.2511 16.5786 28.1942 16.3347C28.182 16.2827 28.1698 16.2306 28.1573 16.177C28.0149 15.567 27.8763 14.956 27.7379 14.345C27.7034 14.193 27.6689 14.0411 27.6345 13.8891C27.6208 13.8292 27.6072 13.7692 27.5936 13.7092C27.5869 13.6798 27.5803 13.6504 27.5734 13.6202C27.5535 13.5324 27.5336 13.4446 27.5136 13.3568C27.0865 11.4743 26.6499 9.5942 26.2087 7.71511C26.2022 7.74344 26.1958 7.77178 26.1891 7.80097C26.0161 8.55622 25.8208 9.30391 25.6198 10.0518C25.5058 10.476 25.3936 10.9007 25.2812 11.3253C25.0642 12.1456 24.8458 12.9655 24.6265 13.7851C24.0777 15.8014 24.0777 15.8014 23.5766 17.8301C23.4361 18.4347 23.2727 19.0335 23.1121 19.6329C23.04 19.9021 22.9688 20.1716 22.8981 20.4412C22.8464 20.6377 22.7943 20.834 22.7422 21.0303C22.7171 21.1249 22.6922 21.2195 22.6675 21.3142C22.4029 22.3279 22.0795 23.3648 21.39 24.1707C21.3581 24.2098 21.3261 24.249 21.2932 24.2893C20.7952 24.8779 20.1186 25.1825 19.3647 25.286C18.7644 25.3287 18.178 25.3301 17.5947 25.1667C17.5498 25.1546 17.5049 25.1426 17.4586 25.1302C16.5103 24.8448 15.8916 24.0149 15.4386 23.1677C15.1832 22.6768 14.9713 22.1786 14.7802 21.6591C14.756 21.5939 14.7319 21.5287 14.7076 21.4636C14.5558 21.0547 14.4045 20.6457 14.2543 20.2362C14.1927 20.0683 14.1309 19.9006 14.0684 19.733C13.9584 19.4379 13.8528 19.1426 13.7594 18.8416C13.5793 18.2784 13.3633 17.7288 13.1526 17.177C13.1386 17.1404 13.1247 17.1038 13.1103 17.0661C13.0963 17.0296 13.0824 16.993 13.068 16.9553C12.9379 16.6143 12.8112 16.272 12.6853 15.9294C12.5225 15.486 12.3574 15.0436 12.1903 14.6019C11.7835 13.5261 11.3856 12.4463 11.0276 11.3527C10.8541 11.9615 10.6878 12.5719 10.5265 13.1842C10.4616 13.4303 10.3965 13.6764 10.3314 13.9225C10.3183 13.9722 10.3052 14.0219 10.2916 14.073C10.1626 14.5605 10.0315 15.0474 9.90017 15.5342C9.7503 16.0899 9.60352 16.6462 9.46287 17.2044C9.34131 17.6848 9.20513 18.1607 9.06878 18.6369C9.00994 18.848 8.96357 19.0589 8.92307 19.2745C8.86034 19.5995 8.78057 19.9185 8.69482 20.2381C8.67952 20.2958 8.66424 20.3534 8.64898 20.411C8.6083 20.5644 8.56737 20.7178 8.52636 20.8711C8.48335 21.0319 8.44052 21.1928 8.39766 21.3537C8.3451 21.5509 8.2925 21.7482 8.23978 21.9454C8.14157 22.3128 8.0441 22.6803 7.94765 23.0482C7.89148 23.2622 7.83495 23.4761 7.77836 23.69C7.75235 23.7886 7.72649 23.8873 7.7008 23.986C6.97086 26.7874 6.97086 26.7874 5.92379 27.4185C4.92043 27.9918 3.69951 28.1515 2.5841 27.8516C1.87106 27.6108 1.34593 27.212 0.994459 26.5325C0.730456 25.9817 0.646725 25.4116 0.670466 24.804C0.671384 24.7735 0.672301 24.7429 0.673246 24.7115C0.709319 24.0925 0.920537 23.4975 1.12681 22.9197C1.19476 22.7293 1.2614 22.5383 1.32795 22.3474C1.34102 22.3099 1.35409 22.2724 1.36756 22.2338C1.46945 21.9399 1.56179 21.6439 1.64861 21.3451C1.8276 20.7336 2.0463 20.1375 2.26186 19.5386C2.39166 19.1774 2.51752 18.8148 2.64274 18.4518C2.65959 18.403 2.65959 18.403 2.67678 18.3533C2.81412 17.9555 2.95078 17.5575 3.08733 17.1595C3.101 17.1196 3.11467 17.0798 3.12876 17.0387C3.21146 16.7977 3.21146 16.7977 3.2941 16.5566C3.42546 16.1733 3.55697 15.79 3.69267 15.4082C3.70242 15.3807 3.71216 15.3533 3.72219 15.325C3.76567 15.2026 3.80937 15.0804 3.85354 14.9582C3.94018 14.7155 4.01667 14.4717 4.0863 14.2234C4.22852 13.7202 4.40512 13.2289 4.5777 12.7357C4.6137 12.6323 4.64969 12.529 4.68566 12.4256C4.77744 12.1621 4.86944 11.8986 4.96151 11.6351C5.04434 11.398 5.12701 11.1608 5.20969 10.9237C5.30072 10.6626 5.39175 10.4015 5.48287 10.1405C5.66102 9.63007 5.83886 9.11951 6.01581 8.60864C6.03915 8.54126 6.06251 8.47389 6.08587 8.40653C6.33143 7.7123 6.33143 7.7123 6.53931 7.006C6.87444 5.80897 7.36902 4.64016 8.17043 3.68782C8.20017 3.65181 8.22991 3.61581 8.26055 3.57871C8.99382 2.71769 10.004 2.18386 11.1128 2.04226C11.2881 2.03029 11.4623 2.02777 11.6379 2.02873C11.6844 2.02894 11.7309 2.02915 11.7789 2.02937C12.8662 2.04534 13.7291 2.47401 14.4817 3.25478C14.5057 3.27872 14.5296 3.30267 14.5543 3.32734C14.9128 3.71246 15.138 4.21278 15.3426 4.69464C15.3552 4.72391 15.3679 4.75318 15.3809 4.78333C15.6665 5.48181 15.8285 6.23431 16.0031 6.96701C16.038 7.11325 16.0731 7.25941 16.1083 7.40555C16.21 7.82855 16.31 8.25181 16.405 8.67638C16.5746 9.43334 16.7626 10.1854 16.951 10.9377C16.9794 11.0512 17.0078 11.1647 17.0362 11.2782C17.3127 12.3853 17.5924 13.4914 17.8772 14.5963C18.0091 15.1087 18.1399 15.6214 18.2707 16.1341C18.3109 16.2919 18.3512 16.4498 18.3915 16.6076C18.4528 16.848 18.5142 17.0883 18.5755 17.3286C18.6713 17.0553 18.7544 16.7827 18.82 16.5003C18.9405 15.9893 19.1086 15.4922 19.2685 14.9929C19.2997 14.8947 19.331 14.7964 19.3622 14.6982C19.4246 14.502 19.4871 14.3059 19.5496 14.1098C19.8351 13.2141 20.1142 12.3164 20.391 11.418C20.4365 11.2703 20.4821 11.1226 20.5278 10.9749C20.5427 10.9266 20.5577 10.8782 20.5731 10.8284C20.6724 10.5092 20.7763 10.192 20.8823 9.87507C20.9968 9.53128 21.0998 9.18601 21.1941 8.83594C21.3549 8.23891 21.5389 7.64987 21.725 7.06057C21.7719 6.91188 21.8187 6.76313 21.8654 6.61439C21.9223 6.4334 21.9793 6.25242 22.0363 6.07146C22.1546 5.69605 22.2715 5.32026 22.3876 4.94415C22.43 4.80729 22.4725 4.67044 22.5149 4.5336C22.541 4.44939 22.5669 4.36514 22.5927 4.28085C22.7986 3.60833 23.0464 2.97618 23.3729 2.35351C23.4033 2.29545 23.4033 2.29545 23.4342 2.23622C23.9609 1.2372 24.6334 0.54778 25.7052 0.192485C26.0873 0.0767464 26.465 0.0226796 26.8625 0.00171837Z" fill="#0D2839"/>
</svg>
