<svg width="21" height="20" viewBox="0 0 21 20" fill="none" xmlns="http://www.w3.org/2000/svg">
<g clip-path="url(#clip0_1429_59554)">
<path fill-rule="evenodd" clip-rule="evenodd" d="M2.375 3.4375C2.375 3.35462 2.40793 3.27514 2.46653 3.21653C2.52514 3.15793 2.60462 3.125 2.6875 3.125H13.3125C13.3954 3.125 13.4749 3.15793 13.5335 3.21653C13.5921 3.27514 13.625 3.35462 13.625 3.4375V10.3125C13.625 10.3954 13.5921 10.4749 13.5335 10.5335C13.4749 10.5921 13.3954 10.625 13.3125 10.625H8.9375C8.68894 10.6252 8.45065 10.7241 8.275 10.9L4.875 14.3V11.5625C4.875 11.3139 4.77623 11.0754 4.60041 10.8996C4.4246 10.7238 4.18614 10.625 3.9375 10.625H2.6875C2.60462 10.625 2.52514 10.5921 2.46653 10.5335C2.40793 10.4749 2.375 10.3954 2.375 10.3125V3.4375ZM2.6875 1.25C2.10734 1.25 1.55094 1.48046 1.1407 1.8907C0.730467 2.30094 0.5 2.85734 0.5 3.4375V10.3125C0.5 11.52 1.48 12.5 2.6875 12.5H3V14.4288C3.00012 14.7889 3.10701 15.1409 3.30714 15.4402C3.50726 15.7396 3.79166 15.973 4.12437 16.1108C4.45709 16.2485 4.82317 16.2846 5.17639 16.2144C5.52959 16.1441 5.85405 15.9709 6.10875 15.7162L9.32625 12.5H13.3125C13.8926 12.5 14.449 12.2695 14.8593 11.8593C15.2695 11.4491 15.5 10.8927 15.5 10.3125V3.4375C15.5 2.85734 15.2695 2.30094 14.8593 1.8907C14.449 1.48046 13.8926 1.25 13.3125 1.25H2.6875ZM18.625 5.9375C18.625 5.85463 18.5921 5.77514 18.5335 5.71652C18.4749 5.65792 18.3954 5.625 18.3125 5.625H17.6875C17.4389 5.625 17.2004 5.52623 17.0246 5.35041C16.8487 5.1746 16.75 4.93614 16.75 4.6875C16.75 4.43886 16.8487 4.2004 17.0246 4.02459C17.2004 3.84878 17.4389 3.75 17.6875 3.75H18.3125C19.52 3.75 20.5 4.73 20.5 5.9375V12.8125C20.5 13.3926 20.2695 13.949 19.8592 14.3593C19.449 14.7695 18.8926 15 18.3125 15H18V16.9288C17.9999 17.2889 17.893 17.6409 17.6929 17.9403C17.4928 18.2396 17.2084 18.473 16.8756 18.6108C16.5429 18.7485 16.1769 18.7846 15.8236 18.7144C15.4704 18.6441 15.146 18.4709 14.8912 18.2162L12.025 15.35C11.9329 15.2641 11.859 15.1606 11.8078 15.0456C11.7565 14.9306 11.729 14.8065 11.7268 14.6806C11.7245 14.5548 11.7477 14.4298 11.7949 14.313C11.842 14.1963 11.9122 14.0903 12.0012 14.0013C12.0902 13.9121 12.1963 13.842 12.313 13.7949C12.4297 13.7478 12.5548 13.7245 12.6807 13.7267C12.8065 13.729 12.9307 13.7565 13.0456 13.8077C13.1606 13.859 13.2641 13.9329 13.35 14.025L16.125 16.8V14.0625C16.125 13.8139 16.2238 13.5754 16.3996 13.3996C16.5754 13.2238 16.8139 13.125 17.0625 13.125H18.3125C18.3954 13.125 18.4749 13.0921 18.5335 13.0335C18.5921 12.9749 18.625 12.8954 18.625 12.8125V5.9375Z" fill="#787878"/>
</g>
<defs>
<clipPath id="clip0_1429_59554">
<rect width="20" height="20" fill="white" transform="translate(0.5)"/>
</clipPath>
</defs>
</svg>
