<svg viewBox="0 0 32 32" fill="none" xmlns="http://www.w3.org/2000/svg">
<path fill-rule="evenodd" clip-rule="evenodd" d="M10.5 1.99902C11.3284 1.99902 12 2.6706 12 3.49902V8.49902C12 10.432 10.433 11.999 8.5 11.999H3.5C2.67158 11.999 2 11.3274 2 10.499C2 9.6706 2.67158 8.99902 3.5 8.99902H8.5C8.77614 8.99902 9 8.77516 9 8.49902V3.49902C9 2.6706 9.67158 1.99902 10.5 1.99902ZM21.5 1.99902C22.3284 1.99902 23 2.6706 23 3.49902V8.49902C23 8.77516 23.2238 8.99902 23.5 8.99902H28.5C29.3284 8.99902 30 9.6706 30 10.499C30 11.3274 29.3284 11.999 28.5 11.999H23.5C21.567 11.999 20 10.432 20 8.49902V3.49902C20 2.6706 20.6716 1.99902 21.5 1.99902ZM2 21.499C2 20.6706 2.67158 19.999 3.5 19.999H8.5C10.433 19.999 12 21.566 12 23.499V28.499C12 29.3274 11.3284 29.999 10.5 29.999C9.67158 29.999 9 29.3274 9 28.499V23.499C9 23.2228 8.77614 22.999 8.5 22.999H3.5C2.67158 22.999 2 22.3274 2 21.499ZM20 23.499C20 21.566 21.567 19.999 23.5 19.999H28.5C29.3284 19.999 30 20.6706 30 21.499C30 22.3274 29.3284 22.999 28.5 22.999H23.5C23.2238 22.999 23 23.2228 23 23.499V28.499C23 29.3274 22.3284 29.999 21.5 29.999C20.6716 29.999 20 29.3274 20 28.499V23.499Z" fill="#F7F7F7"/>
</svg>
