<svg  viewBox="0 0 32 32" fill="none" xmlns="http://www.w3.org/2000/svg">
<path fill-rule="evenodd" clip-rule="evenodd" d="M10.9999 7.00135C9.939 7.00135 8.92158 7.42277 8.17144 8.17291C7.4213 8.92307 6.99986 9.94047 6.99986 11.0014C6.99986 12.0622 7.4213 13.0796 8.17144 13.8298C8.92158 14.5799 9.939 15.0014 10.9999 15.0014C12.0607 15.0014 13.0781 14.5799 13.8283 13.8298C14.5784 13.0796 14.9999 12.0622 14.9999 11.0014C14.9999 9.94047 14.5784 8.92307 13.8283 8.17291C13.0781 7.42277 12.0607 7.00135 10.9999 7.00135ZM3.99986 11.0014C3.99972 9.84109 4.28798 8.69899 4.83872 7.67777C5.38946 6.65657 6.1854 5.78827 7.15496 5.15097C8.12452 4.51367 9.2373 4.12737 10.3932 4.02683C11.5491 3.92627 12.7118 4.11461 13.7769 4.57489C14.8419 5.03519 15.7759 5.75299 16.4947 6.66377C17.2135 7.57453 17.6946 8.64969 17.8949 9.79253C18.0951 10.9354 18.0081 12.1101 17.6417 13.211C17.2753 14.3119 16.641 15.3044 15.7959 16.0993C17.3896 16.8725 18.7733 18.0187 19.8296 19.4406C20.8861 20.8626 21.5839 22.5184 21.8639 24.2674C21.9263 24.6604 21.8299 25.0621 21.5959 25.3841C21.3621 25.7062 21.0099 25.9219 20.6169 25.9844C20.2239 26.0468 19.8221 25.9503 19.5001 25.7164C19.1781 25.4825 18.9622 25.1304 18.8999 24.7374C18.5972 22.8602 17.636 21.152 16.1884 19.919C14.7407 18.6861 12.9014 18.0089 10.9999 18.0089C9.09836 18.0089 7.259 18.6861 5.81138 19.919C4.36376 21.152 3.4025 22.8602 3.09986 24.7374C3.06888 24.9319 2.99984 25.1186 2.89674 25.2866C2.79362 25.4545 2.65844 25.6005 2.49892 25.7162C2.33938 25.832 2.15862 25.915 1.96696 25.9608C1.7753 26.0068 1.57648 26.0144 1.38186 25.9834C1.18724 25.9524 1.00063 25.8834 0.832688 25.7801C0.664744 25.6771 0.518754 25.542 0.403052 25.3824C0.28735 25.2229 0.204202 25.0422 0.158358 24.8504C0.112513 24.6588 0.104869 24.4599 0.135861 24.2654C0.41653 22.517 1.11461 20.8622 2.17092 19.4409C3.22724 18.0197 4.61064 16.8742 6.20386 16.1014C5.50692 15.4474 4.95168 14.6574 4.57258 13.7801C4.19346 12.9028 3.99852 11.957 3.99986 11.0014ZM21.9999 8.00135C21.6021 8.00135 21.2205 8.15937 20.9393 8.44069C20.6579 8.72199 20.4999 9.10351 20.4999 9.50135C20.4999 9.89917 20.6579 10.2807 20.9393 10.562C21.2205 10.8433 21.6021 11.0014 21.9999 11.0014C22.6765 11.0014 23.3333 11.2302 23.8637 11.6507C24.3939 12.0711 24.7665 12.6584 24.9207 13.3173C25.0749 13.9762 25.0019 14.6679 24.7135 15.28C24.4251 15.8922 23.9383 16.3889 23.3319 16.6894C23.0819 16.8137 22.8715 17.0054 22.7245 17.2429C22.5775 17.4803 22.4997 17.7541 22.4999 18.0333V18.7374C22.4995 19.0743 22.6125 19.4015 22.8207 19.6664C23.0289 19.9312 23.3203 20.1183 23.6479 20.1973C26.0479 20.7753 27.9719 22.5974 28.6919 24.9414C28.7489 25.1304 28.8429 25.3064 28.9681 25.4592C29.0935 25.6117 29.2477 25.7383 29.4221 25.8314C29.5963 25.9242 29.7873 25.9818 29.9839 26.0007C30.1805 26.0197 30.3789 25.9995 30.5679 25.9417C30.7567 25.8837 30.9323 25.7892 31.0843 25.6632C31.2365 25.5372 31.3623 25.3824 31.4545 25.2076C31.5467 25.0329 31.6035 24.8418 31.6215 24.645C31.6397 24.4484 31.6187 24.25 31.5599 24.0613C31.1595 22.7626 30.4991 21.5588 29.6189 20.5233C28.7387 19.4877 27.6571 18.6419 26.4399 18.0373C27.2217 17.1772 27.7371 16.1085 27.9229 14.9611C28.1089 13.8136 27.9575 12.6369 27.4873 11.5739C27.0169 10.5108 26.2479 9.60731 25.2739 8.97309C24.2997 8.33887 23.1623 8.00127 21.9999 8.00135Z" fill="#0D2839"/>
</svg>
