<svg width="8" height="8" viewBox="0 0 8 8" fill="none" xmlns="http://www.w3.org/2000/svg">
<g clip-path="url(#clip0_3496_13297)">
<path fill-rule="evenodd" clip-rule="evenodd" d="M1.875 0C1.39175 0 1 0.391751 1 0.875V7.125C1 7.60825 1.39175 8 1.875 8H6.125C6.60825 8 7 7.60825 7 7.125V0.875C7 0.391751 6.60825 0 6.125 0H1.875ZM1.75 0.875C1.75 0.805965 1.80597 0.75 1.875 0.75H6.125C6.19405 0.75 6.25 0.805965 6.25 0.875V7.125C6.25 7.19405 6.19405 7.25 6.125 7.25H1.875C1.80597 7.25 1.75 7.19405 1.75 7.125V0.875ZM4 6.5C4.27614 6.5 4.5 6.27615 4.5 6C4.5 5.72385 4.27614 5.5 4 5.5C3.72386 5.5 3.5 5.72385 3.5 6C3.5 6.27615 3.72386 6.5 4 6.5Z" fill="#0D2839"/>
</g>
<defs>
<clipPath id="clip0_3496_13297">
<rect width="8" height="8" fill="white"/>
</clipPath>
</defs>
</svg>
