<svg  viewBox="0 0 43 43" fill="none" xmlns="http://www.w3.org/2000/svg">
<g clip-path="url(#clip0_1744_55480)">
<path fill-rule="evenodd" clip-rule="evenodd" d="M23.7157 29.7591C23.7157 31.2052 22.5435 32.3775 21.0974 32.3775C19.6513 32.3775 18.479 31.2052 18.479 29.7591C18.479 28.313 19.6513 27.1407 21.0974 27.1407C22.5435 27.1407 23.7157 28.313 23.7157 29.7591ZM18.2717 16.8909C18.4825 16.4693 18.7678 16.1074 19.1592 15.8465C19.5382 15.5938 20.1318 15.3581 21.0974 15.3581C21.8298 15.3581 22.5451 15.5847 23.0284 15.9472C23.4593 16.2704 23.7157 16.6937 23.7157 17.3219C23.7157 17.7843 23.6089 18.0126 23.5137 18.1554C23.3949 18.3336 23.1901 18.5305 22.79 18.7973C22.59 18.9306 22.3748 19.0602 22.1121 19.2178L22.096 19.2275C21.8507 19.3747 21.5609 19.5485 21.2762 19.7383C20.6943 20.1263 19.9991 20.6658 19.4633 21.4697C18.8618 22.3721 19.1057 23.5913 20.0081 24.1929C20.9106 24.7944 22.1298 24.5505 22.7314 23.6481C22.8502 23.4699 23.055 23.2729 23.455 23.0062C23.655 22.8728 23.8702 22.7432 24.1329 22.5856L24.1492 22.5758C24.3944 22.4287 24.6842 22.2549 24.9687 22.0651C25.5506 21.6772 26.2458 21.1378 26.7816 20.334C27.3411 19.4949 27.6433 18.4959 27.6433 17.3219C27.6433 15.3317 26.6996 13.7912 25.3849 12.8052C24.1227 11.8585 22.5468 11.4305 21.0974 11.4305C19.4445 11.4305 18.0744 11.8493 16.9805 12.5786C15.899 13.2996 15.2025 14.2469 14.7588 15.1344C14.2737 16.1045 14.6669 17.2841 15.637 17.7691C16.607 18.2541 17.7866 17.8609 18.2717 16.8909Z" fill="white"/>
</g>
<rect x="1.86778" y="2.67247" width="38.4592" height="38.4592" rx="5.15217" stroke="white" stroke-width="3.43478"/>
<defs>
<clipPath id="clip0_1744_55480">
<rect x="0.150391" y="0.955078" width="41.8939" height="41.8939" rx="6.86957" fill="white"/>
</clipPath>
</defs>
</svg>
