<svg  viewBox="0 0 24 24" fill="none" xmlns="http://www.w3.org/2000/svg">
<path fill-rule="evenodd" clip-rule="evenodd" d="M11.7348 0.266086L7.39013 4.61076C7.15389 4.847 7.32121 5.25092 7.65529 5.25092H10.875C10.875 5.25093 10.875 5.25093 10.875 5.25093V13.8759C10.875 14.4972 11.3787 15.0009 12 15.0009C12.6213 15.0009 13.125 14.4972 13.125 13.8759V5.25093C13.125 5.25093 13.125 5.25093 13.125 5.25092H16.3446C16.6788 5.25092 16.846 4.847 16.6098 4.61076L12.2651 0.266084C12.1187 0.119638 11.8812 0.119639 11.7348 0.266086ZM5.625 9.75101C5.4179 9.75101 5.25 9.91889 5.25 10.126V19.8759C5.25 20.0831 5.4179 20.2509 5.625 20.2509H18.375C18.5821 20.2509 18.75 20.0831 18.75 19.8759V10.126C18.75 9.91889 18.5821 9.75101 18.375 9.75101H16.875C16.2537 9.75101 15.75 9.24732 15.75 8.62601C15.75 8.00468 16.2537 7.50101 16.875 7.50101H18.375C19.8247 7.50101 21 8.67626 21 10.126V19.8759C21 21.3257 19.8247 22.5009 18.375 22.5009H5.625C4.17525 22.5009 3 21.3257 3 19.8759V10.126C3 8.67626 4.17525 7.50101 5.625 7.50101H7.125C7.74633 7.50101 8.25 8.00468 8.25 8.62601C8.25 9.24732 7.74633 9.75101 7.125 9.75101H5.625Z" fill="#0D2839"/>
</svg>
