<svg viewBox="0 0 32 32" fill="none" xmlns="http://www.w3.org/2000/svg">
<path fill-rule="evenodd" clip-rule="evenodd" d="M17.0667 0.265638C16.3729 0.0436165 15.6271 0.0436153 14.9333 0.265636L4.43328 3.62563C2.98366 4.08951 2 5.43707 2 6.95911V13.9992C2 17.1313 2.63846 20.3641 4.6064 23.3635C6.57262 26.3605 9.77672 28.9887 14.6702 31.0729C15.5182 31.4341 16.4818 31.4341 17.3299 31.0729C22.2232 28.9887 25.4274 26.3605 27.3936 23.3635C29.3616 20.3641 30 17.1313 30 13.9992V6.95911C30 5.43707 29.0164 4.08951 27.5668 3.62563L17.0667 0.265638ZM15.8476 3.12291C15.9467 3.09119 16.0533 3.09119 16.1524 3.12291L26.6524 6.48291C26.8594 6.54917 27 6.74169 27 6.95911V13.9992C27 16.7159 26.4506 19.3319 24.8852 21.7179C23.3182 24.1065 20.6432 26.4009 16.1543 28.3129C16.0573 28.3541 15.9427 28.3541 15.8457 28.3129C11.3568 26.4009 8.68188 24.1065 7.11474 21.7179C5.5493 19.3319 5 16.7159 5 13.9992V6.95911C5 6.74169 5.14052 6.54917 5.34762 6.48291L15.8476 3.12291ZM19 12.9993C19 14.1097 18.3967 15.0792 17.5 15.5979V20.4993C17.5 21.3277 16.8284 21.9993 16 21.9993C15.1716 21.9993 14.5 21.3277 14.5 20.4993V15.5979C13.6033 15.0792 13 14.1097 13 12.9993C13 11.3424 14.3431 9.99927 16 9.99927C17.6569 9.99927 19 11.3424 19 12.9993Z" fill="#0D2839"/>
</svg>
