<svg viewBox="0 0 17 17" fill="none" xmlns="http://www.w3.org/2000/svg">
<path fill-rule="evenodd" clip-rule="evenodd" d="M8.49896 0.750244C8.63898 0.750154 8.77622 0.789258 8.89516 0.863132C9.0141 0.937005 9.10998 1.0427 9.17196 1.16825L11.054 4.98325L15.264 5.59526C15.4025 5.61537 15.5326 5.67381 15.6395 5.76398C15.7465 5.85414 15.8262 5.97244 15.8694 6.10549C15.9127 6.23855 15.9179 6.38106 15.8844 6.51691C15.851 6.65276 15.7802 6.77654 15.68 6.87426L12.634 9.84427L13.353 14.0363C13.3767 14.1742 13.3614 14.316 13.3087 14.4457C13.256 14.5754 13.1681 14.6877 13.0549 14.77C12.9417 14.8523 12.8077 14.9013 12.6681 14.9114C12.5285 14.9215 12.3889 14.8924 12.265 14.8273L8.49896 12.8473L4.73295 14.8273C4.60914 14.8923 4.46962 14.9214 4.33014 14.9113C4.19067 14.9012 4.05679 14.8523 3.94363 14.7702C3.83048 14.688 3.74254 14.5758 3.68977 14.4463C3.63699 14.3168 3.62146 14.1752 3.64495 14.0373L4.36495 9.84327L1.31694 6.87426C1.21651 6.77658 1.14544 6.65273 1.1118 6.51673C1.07815 6.38073 1.08327 6.23803 1.12657 6.10479C1.16987 5.97155 1.24963 5.8531 1.3568 5.76287C1.46397 5.67264 1.59427 5.61423 1.73294 5.59426L5.94295 4.98325L7.82596 1.16825C7.88794 1.0427 7.98383 0.937005 8.10277 0.863132C8.22171 0.789258 8.35895 0.750154 8.49896 0.750244ZM8.49896 3.19525L7.11396 6.00026C7.06018 6.10916 6.98075 6.20337 6.88251 6.27479C6.78425 6.34621 6.67013 6.3927 6.54995 6.41026L3.45295 6.86026L5.69295 9.04426C5.7801 9.12912 5.84531 9.23391 5.88294 9.34959C5.92057 9.46527 5.9295 9.58837 5.90895 9.70827L5.38095 12.7923L8.14996 11.3363C8.25759 11.2797 8.37737 11.2502 8.49896 11.2502C8.62056 11.2502 8.74033 11.2797 8.84796 11.3363L11.618 12.7923L11.088 9.70827C11.0675 9.58837 11.0764 9.46527 11.114 9.34959C11.1517 9.23391 11.2169 9.12912 11.304 9.04426L13.544 6.86126L10.448 6.41126C10.3278 6.3937 10.2137 6.34721 10.1154 6.27579C10.0172 6.20437 9.93775 6.11016 9.88396 6.00126L8.49896 3.19425V3.19525Z" fill="#0D2839"/>
</svg>
