<svg width="12" height="12" viewBox="0 0 12 12" fill="none" xmlns="http://www.w3.org/2000/svg">
<g clip-path="url(#clip0_3440_11021)">
<path fill-rule="evenodd" clip-rule="evenodd" d="M3.35225 0.164752C3.45774 0.0592632 3.60082 0 3.75 0H8.25C8.39917 0 8.54228 0.0592632 8.64773 0.164752L11.8352 3.35225C11.9408 3.45774 12 3.60082 12 3.75V8.25C12 8.39917 11.9408 8.54228 11.8352 8.64773L8.64773 11.8352C8.54228 11.9408 8.39917 12 8.25 12H3.75C3.60082 12 3.45774 11.9408 3.35225 11.8352L0.164752 8.64773C0.0592632 8.54228 0 8.39917 0 8.25V3.75C0 3.60082 0.0592632 3.45774 0.164752 3.35225L3.35225 0.164752ZM3.983 1.125L1.125 3.983V8.01697L3.983 10.875H8.01697L10.875 8.01697V3.983L8.01697 1.125H3.983ZM6 3C6.31066 3 6.5625 3.25184 6.5625 3.5625V6.1875C6.5625 6.49816 6.31066 6.75 6 6.75C5.68934 6.75 5.4375 6.49816 5.4375 6.1875V3.5625C5.4375 3.25184 5.68934 3 6 3ZM6 9C6.41422 9 6.75 8.66422 6.75 8.25C6.75 7.83577 6.41422 7.5 6 7.5C5.58579 7.5 5.25 7.83577 5.25 8.25C5.25 8.66422 5.58579 9 6 9Z" fill="#787878"/>
</g>
<defs>
<clipPath id="clip0_3440_11021">
<rect width="12" height="12" fill="white"/>
</clipPath>
</defs>
</svg>
