<svg  viewBox="0 0 20 20" fill="none" xmlns="http://www.w3.org/2000/svg">
<g clip-path="url(#clip0_3440_44694)">
<path fill-rule="evenodd" clip-rule="evenodd" d="M11.0422 0.0798041C9.36791 -0.111001 8.12498 1.30704 8.12496 2.8085V3.43424C8.12496 5.09459 7.31656 6.08802 6.47809 6.70076C6.0678 7.00058 5.65269 7.20509 5.3299 7.33642C4.95107 6.6849 4.24544 6.24689 3.4375 6.24689H2.1875C0.979378 6.24689 0 7.22627 0 8.43439V17.8094C0 19.0176 0.979376 19.9969 2.1875 19.9969H3.4375C4.40588 19.9969 5.22729 19.3677 5.51516 18.4957C6.17077 18.5893 6.8493 18.7816 7.67169 19.0144L7.67192 19.0146C7.86139 19.0682 8.05848 19.1241 8.26469 19.1813C9.70714 19.5819 11.4407 19.9967 13.75 19.9967C15.8821 19.9967 17.462 19.8063 18.4019 18.5727C18.8433 17.9936 19.0731 17.2702 19.2379 16.4826C19.3845 15.7814 19.4976 14.9279 19.6285 13.9407L19.6792 13.5582C19.9906 11.2227 20.0105 9.41074 19.4435 8.16346C19.1385 7.49268 18.666 6.98519 18.0229 6.66328C17.405 6.354 16.6914 6.24674 15.9375 6.24674H14.1596L14.1784 6.10632V6.10631C14.2655 5.45852 14.375 4.64456 14.375 4.05924C14.375 2.90732 14.1859 1.91097 13.5555 1.18496C12.9164 0.448705 11.9965 0.188557 11.0422 0.0798041ZM5.625 16.6203C6.50665 16.7309 7.36319 16.9754 8.21513 17.2187H8.21514C8.39908 17.2712 8.5828 17.3237 8.76653 17.3747C10.1366 17.7553 11.6842 18.1217 13.75 18.1217C15.9928 18.1217 16.6004 17.8434 16.9105 17.4364C17.0941 17.1953 17.2549 16.8053 17.4026 16.0988C17.534 15.4708 17.637 14.6937 17.7708 13.6863L17.8206 13.3103C18.1344 10.9583 18.0575 9.64526 17.7366 8.93942C17.5975 8.63362 17.4185 8.45752 17.1836 8.33998C16.9235 8.20979 16.5329 8.12174 15.9375 8.12174H13.7495C12.893 8.12174 12.1313 7.40053 12.243 6.45184C12.2712 6.21267 12.3044 5.96562 12.3373 5.72004C12.4193 5.10948 12.5 4.508 12.5 4.05924C12.5 3.0485 12.3195 2.62129 12.1397 2.41419C11.9688 2.21733 11.6379 2.03483 10.8299 1.94274C10.4465 1.89905 9.99996 2.23902 9.99996 2.80852V3.43424C9.99996 5.83639 8.77714 7.34297 7.58438 8.2146C6.9968 8.64399 6.4145 8.92322 5.98101 9.09549C5.84853 9.14815 5.7286 9.19135 5.625 9.22617V16.6203ZM3.4375 8.12189C3.61009 8.12189 3.75 8.26179 3.75 8.43439V17.4967V17.8094C3.75 17.9819 3.61009 18.1219 3.4375 18.1219H2.1875C2.01491 18.1219 1.875 17.9819 1.875 17.8094V8.43439C1.875 8.26179 2.01491 8.12189 2.1875 8.12189H3.4375Z" fill="#09D08A"/>
</g>
<defs>
<clipPath id="clip0_3440_44694">
<rect width="20" height="20" fill="white"/>
</clipPath>
</defs>
</svg>
