<svg viewBox="0 0 20 20" fill="none" xmlns="http://www.w3.org/2000/svg">
<path fill-rule="evenodd" clip-rule="evenodd" d="M9.6875 17.5C8.47938 17.5 7.5 16.5206 7.5 15.3125V4.6875C7.5 3.47938 8.47938 2.5 9.6875 2.5H17.8125C19.0206 2.5 20 3.47938 20 4.6875V15.3125C20 16.5206 19.0206 17.5 17.8125 17.5H9.6875ZM9.375 15.3125C9.375 15.4851 9.51491 15.625 9.6875 15.625H17.8125C17.9851 15.625 18.125 15.4851 18.125 15.3125V4.6875C18.125 4.51491 17.9851 4.375 17.8125 4.375H9.6875C9.51491 4.375 9.375 4.51491 9.375 4.6875V15.3125ZM6.124 4.38516C6.38326 4.83334 6.23011 5.40684 5.78192 5.6661C5.68607 5.72154 5.625 5.82287 5.625 5.93736V14.0624C5.625 14.1769 5.68607 14.2781 5.78192 14.3336C6.23011 14.5929 6.38326 15.1664 6.124 15.6146C5.86475 16.0628 5.29125 16.2159 4.84306 15.9566C4.19167 15.5799 3.75 14.8732 3.75 14.0624V5.93736C3.75 5.1265 4.19167 4.4199 4.84307 4.04309C5.29125 3.78382 5.86475 3.93698 6.124 4.38516ZM2.03193 6.9161C2.48011 6.65684 2.63326 6.08334 2.374 5.63516C2.11475 5.18698 1.54125 5.03382 1.09307 5.29309C0.44167 5.6699 0 6.3765 0 7.18736V12.8124C0 13.6232 0.44167 14.3299 1.09307 14.7066C1.54125 14.9659 2.11475 14.8128 2.374 14.3646C2.63326 13.9164 2.48011 13.3429 2.03193 13.0836C1.93608 13.0281 1.875 12.9269 1.875 12.8124V7.18736C1.875 7.07287 1.93608 6.97154 2.03193 6.9161Z" fill="#0D2839"/>
</svg>
