<svg viewBox="0 0 32 32" fill="none" xmlns="http://www.w3.org/2000/svg">
<g clip-path="url(#clip0_105_3807)">
<path fill-rule="evenodd" clip-rule="evenodd" d="M6.80344 25.175C1.72974 20.1013 1.72974 11.8752 6.80344 6.80149C11.8771 1.72778 20.1032 1.72778 25.177 6.80149C30.2507 11.8752 30.2507 20.1013 25.177 25.175C20.1032 30.2487 11.8771 30.2487 6.80344 25.175ZM4.68342 4.68147C-1.56114 10.926 -1.56114 21.0505 4.68342 27.295C10.928 33.5396 21.0524 33.5396 27.297 27.295C33.5415 21.0505 33.5415 10.926 27.297 4.68147C21.0524 -1.56309 10.928 -1.56309 4.68342 4.68147ZM12.0529 9.93122C11.4675 9.34579 10.5183 9.34579 9.93291 9.93122C9.34748 10.5166 9.34748 11.4658 9.93291 12.0512L13.8698 15.9882L9.9329 19.9251C9.34748 20.5105 9.34747 21.4597 9.9329 22.0451C10.5183 22.6305 11.4675 22.6305 12.0529 22.0451L15.9898 18.1082L19.9268 22.0451C20.5122 22.6305 21.4614 22.6305 22.0468 22.0451C22.6322 21.4597 22.6322 20.5105 22.0468 19.9251L18.1099 15.9882L22.0468 12.0513C22.6322 11.4658 22.6322 10.5167 22.0468 9.93123C21.4614 9.3458 20.5122 9.3458 19.9268 9.93123L15.9899 13.8681L12.0529 9.93122Z" fill="#0D2839"/>
</g>
<defs>
<clipPath id="clip0_105_3807">
<rect width="32" height="32" fill="white"/>
</clipPath>
</defs>
</svg>
