<svg viewBox="0 0 214 218" fill="none" xmlns="http://www.w3.org/2000/svg">
<path fill-rule="evenodd" clip-rule="evenodd" d="M155.042 216.047C155.38 217.102 156.361 217.817 157.469 217.817H209.834C212.044 217.817 213.583 215.622 212.83 213.544L136.167 2.10055C135.709 0.839699 134.512 0 133.171 0H80.4187C79.0803 0 77.8845 0.836295 77.4253 2.09347L0.196334 213.537C-0.563049 215.616 0.976275 217.817 3.18972 217.817H53.787C54.8749 217.817 55.843 217.127 56.1974 216.098L69.778 176.685C70.1324 175.656 71.1004 174.966 72.1884 174.966H140.005C141.113 174.966 142.094 175.681 142.433 176.736L155.042 216.047ZM94.5411 121.555L103.212 137.068C103.523 137.629 103.982 138.099 104.542 138.429C105.101 138.759 105.741 138.937 106.394 138.944C107.048 138.951 107.692 138.788 108.259 138.471C108.826 138.154 109.296 137.695 109.621 137.14L118.292 121.628C119.556 119.376 121.452 117.523 123.757 116.287L139.646 107.726C140.224 107.42 140.707 106.966 141.044 106.413C141.381 105.861 141.558 105.23 141.558 104.587C141.558 103.944 141.381 103.313 141.044 102.761C140.707 102.208 140.224 101.755 139.646 101.448L123.772 92.975C121.467 91.7394 119.571 89.8865 118.307 87.6337L109.636 72.1216C109.319 71.5603 108.854 71.0927 108.289 70.7668C107.724 70.441 107.08 70.2688 106.424 70.2688C105.768 70.2688 105.124 70.441 104.559 70.7668C103.994 71.0927 103.529 71.5603 103.212 72.1216L94.5411 87.6337C93.2754 89.8905 91.3732 91.7443 89.0604 92.975L73.2018 101.448C72.6233 101.755 72.1403 102.208 71.8037 102.761C71.4671 103.313 71.2893 103.944 71.2893 104.587C71.2893 105.23 71.4671 105.861 71.8037 106.413C72.1403 106.966 72.6233 107.42 73.2018 107.726L89.0604 116.214C91.3732 117.445 93.2754 119.299 94.5411 121.555Z" fill="url(#paint0_linear_11725_228184)"/>
<defs>
<linearGradient id="paint0_linear_11725_228184" x1="106.512" y1="234.783" x2="106.512" y2="5.55757" gradientUnits="userSpaceOnUse">
<stop stop-color="#6596FF"/>
<stop offset="1" stop-color="#7B61FF"/>
</linearGradient>
</defs>
</svg>
