<svg viewBox="0 0 28 28" fill="none" xmlns="http://www.w3.org/2000/svg">
<path fill-rule="evenodd" clip-rule="evenodd" d="M0 3.0625C0 2.33763 0.587626 1.75 1.3125 1.75H8.755C10.9027 1.75 12.8096 2.78176 14.0069 4.37685C15.2041 2.78183 17.1109 1.75 19.2588 1.75H26.6875C27.4123 1.75 28 2.33763 28 3.0625V21.4375C28 22.1623 27.4123 22.75 26.6875 22.75H18.7996C17.7553 22.75 16.7538 23.1649 16.0154 23.9033L14.9281 24.9905C14.4155 25.5031 13.5845 25.5031 13.0719 24.9905L11.9846 23.9033C11.2462 23.1649 10.2447 22.75 9.20038 22.75H1.3125C0.587626 22.75 0 22.1623 0 21.4375V3.0625ZM15.3212 8.3125C15.3212 6.13788 17.0841 4.375 19.2588 4.375H25.375V20.125H18.7996C17.5571 20.125 16.3509 20.4774 15.3147 21.1267L15.3212 8.3125ZM12.6897 21.1295L12.6962 12.2512L12.6925 8.30875C12.6904 6.13559 10.9282 4.375 8.755 4.375H2.625V20.125H9.20038C10.4446 20.125 11.6524 20.4783 12.6897 21.1295Z" fill="#7B61FF"/>
</svg>
