<svg viewBox="0 0 20 20" fill="none" xmlns="http://www.w3.org/2000/svg">
<g clip-path="url(#clip0_1744_57864)">
<path fill-rule="evenodd" clip-rule="evenodd" d="M2 4.66667C2 3.19391 3.19391 2 4.66667 2H15.3333C16.8061 2 18 3.19391 18 4.66667V15.3333C18 16.8061 16.8061 18 15.3333 18H4.66667C3.19391 18 2 16.8061 2 15.3333V4.66667ZM4.66667 0C2.08934 0 0 2.08934 0 4.66667V15.3333C0 17.9107 2.08934 20 4.66667 20H15.3333C17.9107 20 20 17.9107 20 15.3333V4.66667C20 2.08934 17.9107 0 15.3333 0H4.66667ZM14.7071 8.04044C15.0976 7.64992 15.0976 7.01675 14.7071 6.62623C14.3166 6.2357 13.6834 6.2357 13.2929 6.62623L8.33333 11.5858L6.70711 9.95956C6.31658 9.56904 5.68342 9.56904 5.29289 9.95956C4.90237 10.3501 4.90237 10.9832 5.29289 11.3738L7.62623 13.7071C8.01675 14.0976 8.64992 14.0976 9.04044 13.7071L14.7071 8.04044Z" fill="#7B61FF"/>
</g>
<defs>
<clipPath id="clip0_1744_57864">
<rect width="20" height="20" fill="white"/>
</clipPath>
</defs>
</svg>
