<svg viewBox="0 0 16 16" fill="none" xmlns="http://www.w3.org/2000/svg">
<g clip-path="url(#clip0_3276_223992)">
<mask id="path-1-inside-1_3276_223992" fill="white">
<path fill-rule="evenodd" clip-rule="evenodd" d="M8 1.50049C4.41015 1.50049 1.5 4.41064 1.5 8.00049C1.5 11.5904 4.41015 14.5005 8 14.5005C11.5899 14.5005 14.5 11.5904 14.5 8.00049C14.5 4.41064 11.5899 1.50049 8 1.50049ZM0 8.00049C0 3.58221 3.58172 0.000488281 8 0.000488281C12.4183 0.000488281 16 3.58221 16 8.00049C16 12.4188 12.4183 16.0005 8 16.0005C3.58172 16.0005 0 12.4188 0 8.00049ZM9 11.0005C9 11.5528 8.55229 12.0005 8 12.0005C7.44772 12.0005 7 11.5528 7 11.0005C7 10.4482 7.44772 10.0005 8 10.0005C8.55229 10.0005 9 10.4482 9 11.0005ZM6.92082 6.0859C7.00133 5.92487 7.11032 5.78666 7.25977 5.68703C7.40453 5.59053 7.63124 5.50049 8 5.50049C8.27975 5.50049 8.55291 5.58705 8.7375 5.72549C8.90206 5.84891 9 6.01058 9 6.25049C9 6.42711 8.95919 6.5143 8.92283 6.56884C8.87748 6.63688 8.79924 6.71211 8.64646 6.81398C8.57007 6.8649 8.48788 6.91439 8.38754 6.9746L8.38141 6.97828L8.38139 6.97829C8.28769 7.03451 8.17704 7.1009 8.06831 7.17339C7.84608 7.32156 7.58057 7.52761 7.37593 7.83461C7.14619 8.17927 7.23935 8.64491 7.58401 8.87466C7.92867 9.1044 8.39432 9.01124 8.62406 8.66658C8.66942 8.59852 8.74766 8.52328 8.90043 8.42142C8.97681 8.3705 9.059 8.32101 9.15933 8.26081L9.16554 8.25708L9.1656 8.25705C9.25926 8.20085 9.36986 8.13449 9.47854 8.06203C9.70075 7.91388 9.96627 7.70786 10.1709 7.40089C10.3846 7.08043 10.5 6.69887 10.5 6.25049C10.5 5.4904 10.1396 4.90207 9.6375 4.52549C9.15542 4.16393 8.55358 4.00049 8 4.00049C7.36876 4.00049 6.84547 4.16045 6.42772 4.43895C6.01467 4.71432 5.74866 5.07611 5.57918 5.41508C5.39393 5.78556 5.5441 6.23607 5.91459 6.42131C6.28507 6.60655 6.73558 6.45638 6.92082 6.0859Z"/>
</mask>
<path fill-rule="evenodd" clip-rule="evenodd" d="M8 1.50049C4.41015 1.50049 1.5 4.41064 1.5 8.00049C1.5 11.5904 4.41015 14.5005 8 14.5005C11.5899 14.5005 14.5 11.5904 14.5 8.00049C14.5 4.41064 11.5899 1.50049 8 1.50049ZM0 8.00049C0 3.58221 3.58172 0.000488281 8 0.000488281C12.4183 0.000488281 16 3.58221 16 8.00049C16 12.4188 12.4183 16.0005 8 16.0005C3.58172 16.0005 0 12.4188 0 8.00049ZM9 11.0005C9 11.5528 8.55229 12.0005 8 12.0005C7.44772 12.0005 7 11.5528 7 11.0005C7 10.4482 7.44772 10.0005 8 10.0005C8.55229 10.0005 9 10.4482 9 11.0005ZM6.92082 6.0859C7.00133 5.92487 7.11032 5.78666 7.25977 5.68703C7.40453 5.59053 7.63124 5.50049 8 5.50049C8.27975 5.50049 8.55291 5.58705 8.7375 5.72549C8.90206 5.84891 9 6.01058 9 6.25049C9 6.42711 8.95919 6.5143 8.92283 6.56884C8.87748 6.63688 8.79924 6.71211 8.64646 6.81398C8.57007 6.8649 8.48788 6.91439 8.38754 6.9746L8.38141 6.97828L8.38139 6.97829C8.28769 7.03451 8.17704 7.1009 8.06831 7.17339C7.84608 7.32156 7.58057 7.52761 7.37593 7.83461C7.14619 8.17927 7.23935 8.64491 7.58401 8.87466C7.92867 9.1044 8.39432 9.01124 8.62406 8.66658C8.66942 8.59852 8.74766 8.52328 8.90043 8.42142C8.97681 8.3705 9.059 8.32101 9.15933 8.26081L9.16554 8.25708L9.1656 8.25705C9.25926 8.20085 9.36986 8.13449 9.47854 8.06203C9.70075 7.91388 9.96627 7.70786 10.1709 7.40089C10.3846 7.08043 10.5 6.69887 10.5 6.25049C10.5 5.4904 10.1396 4.90207 9.6375 4.52549C9.15542 4.16393 8.55358 4.00049 8 4.00049C7.36876 4.00049 6.84547 4.16045 6.42772 4.43895C6.01467 4.71432 5.74866 5.07611 5.57918 5.41508C5.39393 5.78556 5.5441 6.23607 5.91459 6.42131C6.28507 6.60655 6.73558 6.45638 6.92082 6.0859Z" fill="#6596FF"/>
<path d="M6.92082 6.0859L8.3519 6.80144L8.35192 6.8014L6.92082 6.0859ZM7.25977 5.68703L6.37229 4.35572L6.37227 4.35573L7.25977 5.68703ZM8.7375 5.72549L9.6975 4.44549L9.69749 4.44548L8.7375 5.72549ZM8.92283 6.56884L7.59155 5.68132L7.59146 5.68145L8.92283 6.56884ZM8.64646 6.81398L9.5339 8.14531L9.53408 8.14519L8.64646 6.81398ZM8.38754 6.9746L7.56429 5.60265L7.56408 5.60277L8.38754 6.9746ZM8.38141 6.97828L9.09695 8.40936L9.15205 8.38181L9.20487 8.35011L8.38141 6.97828ZM8.38139 6.97829L7.66585 5.5472L7.61089 5.57468L7.5582 5.6063L8.38139 6.97829ZM8.06831 7.17339L7.18076 5.84213L7.18072 5.84215L8.06831 7.17339ZM7.37593 7.83461L6.0446 6.94717L6.04459 6.94718L7.37593 7.83461ZM7.58401 8.87466L6.69655 10.206L6.69658 10.206L7.58401 8.87466ZM8.62406 8.66658L9.9554 9.55401L9.95546 9.55392L8.62406 8.66658ZM8.90043 8.42142L8.01291 7.09014L8.01283 7.09019L8.90043 8.42142ZM9.15933 8.26081L9.98254 9.63278L9.98321 9.63239L9.15933 8.26081ZM9.16554 8.25708L8.45913 6.82147L8.39906 6.85102L8.34167 6.8855L9.16554 8.25708ZM9.1656 8.25705L9.87201 9.69266L9.93175 9.66327L9.98884 9.62901L9.1656 8.25705ZM9.47854 8.06203L8.59098 6.73078L8.59096 6.73079L9.47854 8.06203ZM10.1709 7.40089L8.83973 6.5132L8.83959 6.51342L10.1709 7.40089ZM9.6375 4.52549L10.5975 3.24549L10.5975 3.24549L9.6375 4.52549ZM6.42772 4.43895L5.5402 3.10767L5.54019 3.10767L6.42772 4.43895ZM5.57918 5.41508L7.01025 6.13065L7.01027 6.1306L5.57918 5.41508ZM5.91459 6.42131L6.63013 4.99022L6.63012 4.99022L5.91459 6.42131ZM8 -0.0995117C3.52649 -0.0995117 -0.1 3.52698 -0.1 8.00049H3.1C3.1 5.29429 5.29381 3.10049 8 3.10049V-0.0995117ZM-0.1 8.00049C-0.1 12.4741 3.5265 16.1005 8 16.1005V12.9005C5.2938 12.9005 3.1 10.7067 3.1 8.00049H-0.1ZM8 16.1005C12.4736 16.1005 16.1 12.474 16.1 8.00049H12.9C12.9 10.7067 10.7062 12.9005 8 12.9005V16.1005ZM16.1 8.00049C16.1 3.52699 12.4736 -0.0995117 8 -0.0995117V3.10049C10.7062 3.10049 12.9 5.29429 12.9 8.00049H16.1ZM1.6 8.00049C1.6 4.46586 4.46538 1.60049 8 1.60049V-1.59951C2.69806 -1.59951 -1.6 2.69855 -1.6 8.00049H1.6ZM8 1.60049C11.5346 1.60049 14.4 4.46586 14.4 8.00049H17.6C17.6 2.69856 13.302 -1.59951 8 -1.59951V1.60049ZM14.4 8.00049C14.4 11.5351 11.5346 14.4005 8 14.4005V17.6005C13.302 17.6005 17.6 13.3024 17.6 8.00049H14.4ZM8 14.4005C4.46537 14.4005 1.6 11.5351 1.6 8.00049H-1.6C-1.6 13.3024 2.69807 17.6005 8 17.6005V14.4005ZM7.4 11.0005C7.4 10.6691 7.66864 10.4005 8 10.4005V13.6005C9.43594 13.6005 10.6 12.4365 10.6 11.0005H7.4ZM8 10.4005C8.33135 10.4005 8.6 10.6691 8.6 11.0005H5.4C5.4 12.4365 6.56409 13.6005 8 13.6005V10.4005ZM8.6 11.0005C8.6 11.3319 8.33135 11.6005 8 11.6005V8.40049C6.56409 8.40049 5.4 9.56451 5.4 11.0005H8.6ZM8 11.6005C7.66864 11.6005 7.4 11.3319 7.4 11.0005H10.6C10.6 9.56452 9.43594 8.40049 8 8.40049V11.6005ZM8.35192 6.8014C8.33707 6.83111 8.27834 6.93095 8.14727 7.01832L6.37227 4.35573C5.9423 4.64237 5.66559 5.01863 5.48972 5.37039L8.35192 6.8014ZM8.14725 7.01834C8.0851 7.05977 8.02746 7.08399 7.9859 7.09588C7.94746 7.10687 7.94659 7.10049 8 7.10049V3.90049C7.35055 3.90049 6.80768 4.06548 6.37229 4.35572L8.14725 7.01834ZM8 7.10049C7.97824 7.10049 7.95766 7.09765 7.93309 7.09007C7.91165 7.08346 7.85446 7.06321 7.77751 7.0055L9.69749 4.44548C9.19648 4.06973 8.57312 3.90049 8 3.90049V7.10049ZM7.7775 7.00549C7.71132 6.95585 7.60112 6.85436 7.51377 6.68794C7.42412 6.51715 7.4 6.35698 7.4 6.25049H10.6C10.6 5.46084 10.2266 4.84229 9.6975 4.44549L7.7775 7.00549ZM7.4 6.25049C7.4 6.21571 7.40404 6.12779 7.43874 6.0085C7.47667 5.87813 7.53477 5.76649 7.59155 5.68132L10.2541 7.45636C10.4789 7.11915 10.6 6.71827 10.6 6.25049H7.4ZM7.59146 5.68145C7.6558 5.58492 7.7182 5.52232 7.75233 5.49149C7.78292 5.46385 7.79226 5.46048 7.75884 5.48276L9.53408 8.14519C9.7591 7.99515 10.0382 7.78026 10.2542 7.45622L7.59146 5.68145ZM7.75902 5.48264C7.71974 5.50883 7.67077 5.53875 7.56429 5.60265L9.21079 8.34655C9.30499 8.29003 9.4204 8.22097 9.5339 8.14531L7.75902 5.48264ZM7.56408 5.60277L7.55795 5.60645L9.20487 8.35011L9.211 8.34643L7.56408 5.60277ZM7.66587 5.54719L7.66585 5.5472L9.09693 8.40937L9.09695 8.40936L7.66587 5.54719ZM7.5582 5.6063C7.46834 5.66021 7.32593 5.74534 7.18076 5.84213L8.95586 8.50465C9.02815 8.45645 9.10704 8.4088 9.20458 8.35028L7.5582 5.6063ZM7.18072 5.84215C6.88375 6.04015 6.41887 6.38568 6.0446 6.94717L8.70726 8.72205C8.74227 8.66953 8.8084 8.60296 8.9559 8.50462L7.18072 5.84215ZM6.04459 6.94718C5.32473 8.02713 5.61665 9.48612 6.69655 10.206L8.47147 7.54334C8.86205 7.80369 8.96765 8.33141 8.70727 8.72204L6.04459 6.94718ZM6.69658 10.206C7.77651 10.9258 9.23554 10.634 9.9554 9.55401L7.29272 7.77915C7.5531 7.38852 8.08083 7.28295 8.47144 7.54332L6.69658 10.206ZM9.95546 9.55392C9.89115 9.65041 9.82878 9.713 9.79462 9.74386C9.76401 9.77152 9.75465 9.7749 9.78803 9.75265L8.01283 7.09019C7.78771 7.24029 7.50862 7.4552 7.29266 7.77924L9.95546 9.55392ZM9.78795 9.7527C9.82716 9.72656 9.87608 9.69666 9.98254 9.63278L8.33612 6.88883C8.24192 6.94535 8.12646 7.01444 8.01291 7.09014L9.78795 9.7527ZM9.98321 9.63239L9.98941 9.62866L8.34167 6.8855L8.33546 6.88923L9.98321 9.63239ZM9.87195 9.69269L9.87201 9.69266L8.45919 6.82144L8.45913 6.82147L9.87195 9.69269ZM9.98884 9.62901C10.0786 9.57514 10.221 9.49003 10.3661 9.39327L8.59096 6.73079C8.51873 6.77895 8.43991 6.82655 8.34236 6.88509L9.98884 9.62901ZM10.3661 9.39328C10.663 9.19536 11.1279 8.84986 11.5022 8.28836L8.83959 6.51342C8.80463 6.56586 8.73853 6.6324 8.59098 6.73078L10.3661 9.39328ZM11.5021 8.28858C11.9052 7.68403 12.1 6.98831 12.1 6.25049H8.9C8.9 6.40943 8.86399 6.47682 8.83973 6.5132L11.5021 8.28858ZM12.1 6.25049C12.1 4.93401 11.4583 3.8911 10.5975 3.24549L8.67749 5.80548C8.75608 5.86443 8.80926 5.92901 8.84252 5.99193C8.87345 6.05043 8.9 6.13081 8.9 6.25049H12.1ZM10.5975 3.24549C9.7977 2.64564 8.84509 2.40049 8 2.40049V5.60049C8.26207 5.60049 8.51314 5.68222 8.6775 5.80549L10.5975 3.24549ZM8 2.40049C7.08911 2.40049 6.24939 2.63488 5.5402 3.10767L7.31524 5.77023C7.44155 5.68602 7.64841 5.60049 8 5.60049V2.40049ZM5.54019 3.10767C4.8457 3.57067 4.4123 4.17112 4.14809 4.69955L7.01027 6.1306C7.08502 5.9811 7.18364 5.85796 7.31525 5.77022L5.54019 3.10767ZM4.14811 4.69951C3.56765 5.86038 4.0382 7.27198 5.19906 7.8524L6.63012 4.99022C7.05 5.20015 7.22021 5.71074 7.01025 6.13065L4.14811 4.69951ZM5.19905 7.85239C6.35989 8.43281 7.77148 7.96229 8.3519 6.80144L5.48974 5.37036C5.69968 4.95047 6.21025 4.78028 6.63013 4.99022L5.19905 7.85239Z" fill="#6596FF" mask="url(#path-1-inside-1_3276_223992)"/>
</g>
<defs>
<clipPath id="clip0_3276_223992">
<rect width="16" height="16" fill="white"/>
</clipPath>
</defs>
</svg>
