<svg  viewBox="0 0 32 32" fill="none" xmlns="http://www.w3.org/2000/svg">
<path fill-rule="evenodd" clip-rule="evenodd" d="M5 7C5 6.73392 5.11626 6.36412 5.5637 5.89868C6.01826 5.4258 6.74788 4.93154 7.76528 4.48388C9.79586 3.59044 12.7061 3 16 3C19.2939 3 22.2042 3.59044 24.2348 4.48388C25.2522 4.93154 25.9818 5.4258 26.4364 5.89868C26.8838 6.36412 27 6.73392 27 7C27 7.26608 26.8838 7.63588 26.4364 8.10132C25.9818 8.5742 25.2522 9.06846 24.2348 9.51612C22.2042 10.4096 19.2939 11 16 11C12.7061 11 9.79586 10.4096 7.76528 9.51612C6.74788 9.06846 6.01826 8.5742 5.5637 8.10132C5.11626 7.63588 5 7.26608 5 7ZM2 7C2 5.7473 2.58328 4.6702 3.40092 3.81964C4.21144 2.97648 5.3124 2.2856 6.55706 1.73794C9.05058 0.640786 12.3904 0 16 0C19.6096 0 22.9494 0.640786 25.443 1.73794C26.6876 2.2856 27.7886 2.97648 28.599 3.81964C29.4168 4.6702 30 5.7473 30 7V25C30 26.2528 29.4168 27.3298 28.599 28.1804C27.7886 29.0236 26.6876 29.7144 25.443 30.262C22.9494 31.3592 19.6096 32 16 32C12.3904 32 9.05058 31.3592 6.55706 30.262C5.3124 29.7144 4.21144 29.0236 3.40092 28.1804C2.58328 27.3298 2 26.2528 2 25V7ZM5 16V11.449C5.4823 11.7486 6.00558 12.0194 6.55706 12.2621C9.05058 13.3592 12.3904 14 16 14C19.6096 14 22.9494 13.3592 25.443 12.2621C25.9944 12.0194 26.5178 11.7486 27 11.449V16C27 16.2661 26.8838 16.6359 26.4364 17.1013C25.9818 17.5742 25.2522 18.0685 24.2348 18.5161C22.2042 19.4096 19.2939 20 16 20C12.7061 20 9.79586 19.4096 7.76528 18.5161C6.74788 18.0685 6.01826 17.5742 5.5637 17.1013C5.11626 16.6359 5 16.2661 5 16ZM5 20.449V25C5 25.266 5.11626 25.6358 5.5637 26.1014C6.01826 26.5742 6.74788 27.0684 7.76528 27.5162C9.79586 28.4096 12.7061 29 16 29C19.2939 29 22.2042 28.4096 24.2348 27.5162C25.2522 27.0684 25.9818 26.5742 26.4364 26.1014C26.8838 25.6358 27 25.266 27 25V20.449C26.5178 20.7486 25.9944 21.0194 25.443 21.262C22.9494 22.3592 19.6096 23 16 23C12.3904 23 9.05058 22.3592 6.55706 21.262C6.00558 21.0194 5.4823 20.7486 5 20.449Z" fill="#0D2839"/>
</svg>
