<svg viewBox="0 0 32 32" fill="none" xmlns="http://www.w3.org/2000/svg">
<path fill-rule="evenodd" clip-rule="evenodd" d="M5.5 4.99902C5.22386 4.99902 5 5.22288 5 5.49902V10.499C5 11.3274 4.32842 11.999 3.5 11.999C2.67158 11.999 2 11.3274 2 10.499V5.49902C2 3.56602 3.567 1.99902 5.5 1.99902H10.5C11.3284 1.99902 12 2.6706 12 3.49902C12 4.32744 11.3284 4.99902 10.5 4.99902H5.5ZM20 3.49902C20 2.6706 20.6716 1.99902 21.5 1.99902H26.5C28.433 1.99902 30 3.56602 30 5.49902V10.499C30 11.3274 29.3284 11.999 28.5 11.999C27.6716 11.999 27 11.3274 27 10.499V5.49902C27 5.22288 26.7762 4.99902 26.5 4.99902H21.5C20.6716 4.99902 20 4.32744 20 3.49902ZM3.5 19.999C4.32842 19.999 5 20.6706 5 21.499V26.499C5 26.7752 5.22386 26.999 5.5 26.999H10.5C11.3284 26.999 12 27.6706 12 28.499C12 29.3274 11.3284 29.999 10.5 29.999H5.5C3.567 29.999 2 28.432 2 26.499V21.499C2 20.6706 2.67158 19.999 3.5 19.999ZM28.5 19.999C29.3284 19.999 30 20.6706 30 21.499V26.499C30 28.432 28.433 29.999 26.5 29.999H21.5C20.6716 29.999 20 29.3274 20 28.499C20 27.6706 20.6716 26.999 21.5 26.999H26.5C26.7762 26.999 27 26.7752 27 26.499V21.499C27 20.6706 27.6716 19.999 28.5 19.999Z" fill="#F7F7F7"/>
</svg>
