<svg viewBox="0 0 32 32" fill="none" xmlns="http://www.w3.org/2000/svg">
<path fill-rule="evenodd" clip-rule="evenodd" d="M14.8556 3.04942C15.2317 3.01672 15.6128 3 15.998 3C16.3833 3 16.7643 3.01672 17.1404 3.04942C17.2114 3.05558 17.3567 3.12298 17.4139 3.34186L17.9921 5.55244C18.2853 6.67352 19.0904 7.48554 19.9866 7.92946C20.3336 8.10134 20.6682 8.29506 20.9884 8.50886C21.8216 9.06522 22.9284 9.35672 24.0466 9.04994L26.2524 8.4447C26.4702 8.38492 26.6014 8.47662 26.6426 8.53516C27.0796 9.15696 27.4632 9.81848 27.7872 10.5131C27.8168 10.5768 27.8314 10.7358 27.6704 10.8949L26.0408 12.5052C25.2178 13.3184 24.9162 14.4202 24.9796 15.4184C24.9918 15.6105 24.998 15.8044 24.998 16C24.998 16.1956 24.9918 16.3895 24.9796 16.5816C24.9162 17.5798 25.2178 18.6816 26.0408 19.4948L27.6704 21.105C27.8314 21.2642 27.8168 21.4232 27.7872 21.487C27.4632 22.1816 27.0796 22.843 26.6426 23.4648C26.6014 23.5234 26.4702 23.615 26.2524 23.5554L24.0466 22.95C22.9284 22.6432 21.8216 22.9348 20.9884 23.4912C20.6682 23.705 20.3336 23.8986 19.9866 24.0706C19.0904 24.5144 18.2853 25.3264 17.9921 26.4476L17.4139 28.6582C17.3567 28.877 17.2114 28.9444 17.1404 28.9506C16.7643 28.9832 16.3833 29 15.998 29C15.6128 29 15.2317 28.9832 14.8556 28.9506C14.7846 28.9444 14.6394 28.877 14.5821 28.6582L14.004 26.4474C13.7108 25.3264 12.9057 24.5144 12.0095 24.0706C11.6625 23.8986 11.328 23.705 11.0078 23.4912C10.1745 22.9348 9.06767 22.6432 7.94959 22.95L5.74361 23.5554C5.52579 23.615 5.39457 23.5234 5.35341 23.4648C4.91647 22.843 4.53281 22.1816 4.20891 21.487C4.17919 21.4232 4.16461 21.2642 4.32559 21.105L5.95535 19.4947C6.77839 18.6815 7.08005 17.5797 7.01653 16.5816C7.00433 16.3895 6.99811 16.1956 6.99811 16C6.99811 15.8044 7.00433 15.6105 7.01653 15.4184C7.08005 14.4203 6.77839 13.3185 5.95535 12.5053L4.32559 10.8949C4.16461 10.7359 4.17919 10.5768 4.20891 10.5131C4.53281 9.81848 4.91647 9.15696 5.35343 8.53516C5.39457 8.47662 5.52579 8.38494 5.74361 8.4447L7.94959 9.04996C9.06767 9.35674 10.1745 9.06524 11.0078 8.50888C11.328 8.2951 11.6625 8.10138 12.0095 7.9295C12.9057 7.48558 13.7108 6.67356 14.004 5.5525L14.5821 3.34186C14.6394 3.12298 14.7846 3.05558 14.8556 3.04942ZM15.998 0C15.5259 0 15.0582 0.02049 14.5958 0.060687C13.1103 0.189829 12.0179 1.29008 11.6798 2.58276L11.1016 4.79342C11.0667 4.92698 10.9438 5.10952 10.6779 5.24122C10.2147 5.47066 9.76857 5.72904 9.34189 6.01394C9.09593 6.17816 8.87671 6.19348 8.74339 6.1569L6.53741 5.55162C5.25093 5.19864 3.75459 5.59258 2.89887 6.8103C2.36141 7.57514 1.88904 8.38946 1.48998 9.24524C0.860045 10.5962 1.26769 12.0909 2.21701 13.0289L3.84677 14.6393C3.94505 14.7364 4.04133 14.9335 4.02259 15.228C4.00635 15.4834 3.99811 15.7409 3.99811 16C3.99811 16.2591 4.00635 16.5166 4.02259 16.772C4.04133 17.0665 3.94505 17.2636 3.84677 17.3607L2.21701 18.9711C1.26769 19.9091 0.860045 21.4038 1.48998 22.7548C1.88904 23.6106 2.36141 24.4248 2.89887 25.1896C3.75459 26.4074 5.25093 26.8014 6.53741 26.4484L8.74339 25.8432C8.87671 25.8066 9.09595 25.8218 9.34189 25.986C9.76857 26.271 10.2147 26.5294 10.6779 26.7588C10.9438 26.8904 11.0667 27.073 11.1016 27.2066L11.6798 29.4172C12.0179 30.71 13.1103 31.8102 14.5958 31.9394C15.0582 31.9796 15.5259 32 15.998 32C16.4702 32 16.9379 31.9796 17.4002 31.9394C18.8858 31.8102 19.9782 30.71 20.3162 29.4172L20.8944 27.2066C20.9294 27.073 21.0522 26.8906 21.3182 26.7588C21.7814 26.5294 22.2276 26.271 22.6542 25.986C22.9002 25.8218 23.1194 25.8066 23.2528 25.8432L25.4586 26.4484C26.7452 26.8014 28.2414 26.4074 29.0972 25.1898C29.6346 24.4248 30.107 23.6106 30.506 22.7548C31.136 21.4038 30.7284 19.9091 29.779 18.9711L28.1494 17.3608C28.051 17.2637 27.9548 17.0666 27.9736 16.7721C27.9898 16.5166 27.998 16.2592 27.998 16C27.998 15.7408 27.9898 15.4834 27.9736 15.2279C27.9548 14.9334 28.051 14.7363 28.1494 14.6392L29.779 13.0289C30.7284 12.0909 31.136 10.5961 30.506 9.24522C30.107 8.38944 29.6346 7.57512 29.0972 6.8103C28.2414 5.59256 26.7452 5.19864 25.4586 5.55162L23.2528 6.15686C23.1194 6.19344 22.9002 6.17814 22.6542 6.01392C22.2276 5.729 21.7814 5.4706 21.3182 5.24114C21.0522 5.10946 20.9294 4.92692 20.8944 4.79334L20.3162 2.58276C19.9782 1.29008 18.8858 0.189825 17.4002 0.0606852C16.9379 0.0204894 16.4702 0 15.998 0ZM18.998 16C18.998 17.6569 17.6549 19 15.998 19C14.3412 19 12.998 17.6569 12.998 16C12.998 14.3431 14.3412 13 15.998 13C17.6549 13 18.998 14.3431 18.998 16ZM21.998 16C21.998 19.3137 19.3117 22 15.998 22C12.6843 22 9.99805 19.3137 9.99805 16C9.99805 12.6863 12.6843 10 15.998 10C19.3117 10 21.998 12.6863 21.998 16Z" fill="#0D2839"/>
</svg>
