<svg viewBox="0 0 32 32" fill="none" xmlns="http://www.w3.org/2000/svg">
<g clip-path="url(#clip0_105_3558)">
<path fill-rule="evenodd" clip-rule="evenodd" d="M16 5.50096C16.0002 5.21402 15.9181 4.93306 15.7634 4.6914C15.6087 4.44972 15.388 4.25748 15.1273 4.13748C14.8667 4.01748 14.5771 3.97476 14.2929 4.01436C14.0087 4.05398 13.7419 4.17426 13.524 4.36096L6.944 10.001H3.5C2.57174 10.001 1.6815 10.3697 1.02513 11.0261C0.368748 11.6825 0 12.5727 0 13.501V18.501C0 20.433 1.568 22.001 3.5 22.001H6.946L13.524 27.641C13.7419 27.8276 14.0087 27.948 14.2929 27.9876C14.5771 28.0272 14.8667 27.9844 15.1273 27.8644C15.388 27.7444 15.6087 27.5522 15.7634 27.3106C15.9181 27.0688 16.0002 26.788 16 26.501V5.50096ZM8.476 12.641L13 8.76096V23.241L8.476 19.361C8.20402 19.1284 7.85786 19.0007 7.5 19.001H3.5C3.3674 19.001 3.24022 18.9483 3.14644 18.8545C3.05268 18.7607 3 18.6336 3 18.501V13.501C3 13.3684 3.05268 13.2412 3.14644 13.1474C3.24022 13.0536 3.3674 13.001 3.5 13.001H7.5C7.85786 13.0012 8.20402 12.8735 8.476 12.641ZM22.56 10.441C22.4226 10.2936 22.257 10.1754 22.073 10.0934C21.889 10.0114 21.6904 9.96734 21.489 9.96378C21.2876 9.96022 21.0876 9.99728 20.9008 10.0727C20.714 10.1482 20.5444 10.2604 20.402 10.4029C20.2594 10.5453 20.1472 10.715 20.0718 10.9018C19.9963 11.0885 19.9593 11.2886 19.9628 11.49C19.9664 11.6914 20.0104 11.89 20.0924 12.074C20.1744 12.258 20.2926 12.4236 20.44 12.561L23.88 16.001L20.44 19.441C20.2926 19.5783 20.1744 19.7439 20.0924 19.9279C20.0104 20.112 19.9664 20.3106 19.9628 20.512C19.9593 20.7134 19.9963 20.9134 20.0718 21.1002C20.1472 21.287 20.2594 21.4566 20.402 21.599C20.5444 21.7416 20.714 21.8538 20.9008 21.9292C21.0876 22.0046 21.2876 22.0418 21.489 22.0382C21.6904 22.0346 21.889 21.9906 22.073 21.9086C22.257 21.8266 22.4226 21.7084 22.56 21.561L26 18.121L29.44 21.561C29.5774 21.7084 29.743 21.8266 29.927 21.9086C30.111 21.9906 30.3096 22.0346 30.511 22.0382C30.7124 22.0418 30.9124 22.0046 31.0992 21.9292C31.286 21.8538 31.4556 21.7416 31.598 21.599C31.7406 21.4566 31.8528 21.287 31.9282 21.1002C32.0036 20.9134 32.0408 20.7134 32.0372 20.512C32.0336 20.3106 31.9896 20.112 31.9076 19.9279C31.8256 19.7439 31.7074 19.5783 31.56 19.441L28.12 16.001L31.56 12.561C31.825 12.2766 31.9692 11.9005 31.9624 11.5119C31.9554 11.1233 31.798 10.7525 31.5232 10.4777C31.2484 10.2029 30.8776 10.0455 30.489 10.0386C30.1004 10.0318 29.7244 10.176 29.44 10.441L26 13.881L22.56 10.441Z" fill="#0D2839"/>
</g>
<defs>
<clipPath id="clip0_105_3558">
<rect width="32" height="32" fill="white"/>
</clipPath>
</defs>
</svg>
