<svg  viewBox="0 0 32 32" fill="none" xmlns="http://www.w3.org/2000/svg">
<path fill-rule="evenodd" clip-rule="evenodd" d="M7.43868 7.43933C7.71992 7.15843 8.10118 7.00065 8.49868 7.00065C8.89618 7.00065 9.27742 7.15843 9.55868 7.43933L15.9987 13.8793L22.4387 7.43933C22.5761 7.29195 22.7417 7.17375 22.9257 7.09177C23.1097 7.00979 23.3083 6.96571 23.5097 6.96215C23.7111 6.95859 23.9111 6.99565 24.0979 7.07109C24.2847 7.14653 24.4543 7.25881 24.5967 7.40125C24.7393 7.54369 24.8515 7.71337 24.9269 7.90013C25.0023 8.08691 25.0395 8.28697 25.0359 8.48837C25.0323 8.68979 24.9883 8.88841 24.9063 9.07241C24.8243 9.25641 24.7061 9.42201 24.5587 9.55933L18.1187 15.9993L24.5587 22.4393C24.7061 22.5767 24.8243 22.7423 24.9063 22.9263C24.9883 23.1103 25.0323 23.3089 25.0359 23.5103C25.0395 23.7117 25.0023 23.9117 24.9269 24.0985C24.8515 24.2853 24.7393 24.4549 24.5967 24.5973C24.4543 24.7399 24.2847 24.8521 24.0979 24.9275C23.9111 25.0029 23.7111 25.0401 23.5097 25.0365C23.3083 25.0329 23.1097 24.9889 22.9257 24.9069C22.7417 24.8249 22.5761 24.7067 22.4387 24.5593L15.9987 18.1193L9.55868 24.5593C9.27432 24.8243 8.89822 24.9685 8.50962 24.9617C8.12102 24.9547 7.75026 24.7973 7.47542 24.5225C7.2006 24.2477 7.04318 23.8769 7.03632 23.4883C7.02946 23.0997 7.17372 22.7237 7.43868 22.4393L13.8787 15.9993L7.43868 9.55933C7.15778 9.27809 7 8.89683 7 8.49933C7 8.10183 7.15778 7.72059 7.43868 7.43933Z" fill="#0D2839"/>
</svg>
