<svg viewBox="0 0 24 25" fill="none" xmlns="http://www.w3.org/2000/svg">
<g clip-path="url(#clip0_3496_122881)">
<path fill-rule="evenodd" clip-rule="evenodd" d="M12 24.5C18.6275 24.5 24 19.1275 24 12.5C24 5.87258 18.6275 0.5 12 0.5C5.37258 0.5 0 5.87258 0 12.5C0 19.1275 5.37258 24.5 12 24.5ZM17.6705 9.9205C18.1098 9.48116 18.1098 8.76884 17.6705 8.3295C17.2311 7.89017 16.5189 7.89017 16.0795 8.3295L10.125 14.284L7.9205 12.0795C7.48116 11.6402 6.76884 11.6402 6.3295 12.0795C5.89017 12.5188 5.89017 13.2312 6.3295 13.6705L9.3295 16.6705C9.76884 17.1098 10.4812 17.1098 10.9205 16.6705L17.6705 9.9205Z" fill="#09D08A"/>
</g>
<defs>
<clipPath id="clip0_3496_122881">
<rect width="24" height="24" fill="white" transform="translate(0 0.5)"/>
</clipPath>
</defs>
</svg>
