<svg  viewBox="0 0 20 20" fill="none" xmlns="http://www.w3.org/2000/svg">
<g clip-path="url(#clip0_3470_35247)">
<path fill-rule="evenodd" clip-rule="evenodd" d="M8.85362 19.9796C10.5279 20.1704 11.7708 18.7524 11.7709 17.2509V16.6251C11.7709 14.9648 12.5793 13.9714 13.4178 13.3586C13.828 13.0588 14.2431 12.8543 14.5659 12.723C14.9448 13.3745 15.6504 13.8125 16.4583 13.8125H17.7083C18.9164 13.8125 19.8958 12.8331 19.8958 11.625V2.25C19.8958 1.04188 18.9164 0.0625003 17.7083 0.0625001L16.4583 0.0625C15.4899 0.0624999 14.6685 0.691744 14.3806 1.56366C13.725 1.47006 13.0465 1.27787 12.2241 1.04493L12.2239 1.04486C12.0344 0.9912 11.8373 0.935375 11.6311 0.878095C10.1887 0.477413 8.45508 0.0626424 6.14585 0.0626421C4.01364 0.062642 2.43378 0.253064 1.4939 1.48666C1.05261 2.06586 0.822646 2.78915 0.657912 3.57676C0.511253 4.27797 0.398181 5.13139 0.267376 6.11866L0.267368 6.11871L0.216577 6.50122C-0.0948347 8.83668 -0.114681 10.6487 0.452338 11.8959C0.757273 12.5668 1.22983 13.0741 1.87298 13.3961C2.49087 13.7054 3.20448 13.8126 3.95835 13.8126H5.73624L5.7174 13.953L5.71739 13.9531C5.63029 14.6009 5.52085 15.4149 5.52085 16.0001C5.52085 17.152 5.70994 18.1484 6.34027 18.8744C6.97948 19.6106 7.89932 19.8709 8.85362 19.9796ZM14.2708 3.43908C13.3891 3.32849 12.5326 3.08394 11.6807 2.8407H11.6807C11.4967 2.78817 11.313 2.73572 11.1293 2.68469C9.75925 2.30412 8.21163 1.93764 6.14585 1.93764C3.90308 1.93764 3.29545 2.21597 2.98534 2.62299C2.80163 2.86411 2.64097 3.2541 2.4932 3.96062C2.36188 4.58851 2.25877 5.36565 2.1251 6.37304L2.07513 6.74905C1.7615 9.10111 1.83837 10.4141 2.15924 11.12C2.29825 11.4258 2.47737 11.6019 2.7122 11.7194C2.97229 11.8496 3.363 11.9376 3.95835 11.9376H6.14632C7.00275 11.9376 7.76454 12.6589 7.65278 13.6075C7.6246 13.8468 7.59145 14.0938 7.5585 14.3394C7.47656 14.9499 7.39585 15.5514 7.39585 16.0001C7.39585 17.0109 7.5763 17.4381 7.7561 17.6451C7.92702 17.842 8.25788 18.0245 9.06592 18.1166C9.44929 18.1604 9.89584 17.8204 9.89585 17.2509V16.6251C9.89585 14.223 11.1187 12.7164 12.3114 11.8448C12.899 11.4154 13.4813 11.1362 13.9148 10.9639C14.0473 10.9112 14.1673 10.868 14.2708 10.8332V3.43908ZM16.4583 11.9375C16.2858 11.9375 16.1458 11.7976 16.1458 11.625V2.56264V2.25C16.1458 2.07741 16.2858 1.9375 16.4583 1.9375H17.7083C17.8809 1.9375 18.0208 2.07741 18.0208 2.25V11.625C18.0208 11.7976 17.8809 11.9375 17.7083 11.9375H16.4583Z" fill="#FC5C5C"/>
</g>
<defs>
<clipPath id="clip0_3470_35247">
<rect width="20" height="20" fill="white"/>
</clipPath>
</defs>
</svg>
