<svg  viewBox="0 0 32 32" fill="none" xmlns="http://www.w3.org/2000/svg">
<path d="M20 19.4995C20 18.6711 20.6716 17.9995 21.5 17.9995H24.5C25.3284 17.9995 26 18.6711 26 19.4995C26 20.3279 25.3284 20.9995 24.5 20.9995H21.5C20.6716 20.9995 20 20.3279 20 19.4995Z" fill="#0D2839"/>
<path fill-rule="evenodd" clip-rule="evenodd" d="M3.5 3.99951C1.567 3.99951 0 5.56651 0 7.49951V24.4995C0 26.4325 1.567 27.9995 3.5 27.9995H28.5C30.433 27.9995 32 26.4325 32 24.4995V7.49951C32 5.56651 30.433 3.99951 28.5 3.99951H3.5ZM29 9.99951V7.49951C29 7.22337 28.7762 6.99951 28.5 6.99951H3.5C3.22386 6.99951 3 7.22337 3 7.49951V9.99951H29ZM3 12.9995H29V24.4995C29 24.7757 28.7762 24.9995 28.5 24.9995H3.5C3.22386 24.9995 3 24.7757 3 24.4995V12.9995Z" fill="#0D2839"/>
</svg>
