<svg  viewBox="0 0 32 32" fill="none" xmlns="http://www.w3.org/2000/svg">
<path fill-rule="evenodd" clip-rule="evenodd" d="M3.5 5.00024C3.22386 5.00024 3 5.2241 3 5.50024V26.5002C3 26.7764 3.22386 27.0002 3.5 27.0002H5.38174C5.40026 26.9796 5.41946 26.9592 5.43934 26.9394L17.5941 14.7846C18.9129 13.4659 21.0342 13.4129 22.4172 14.6641L29 20.62V5.50024C29 5.2241 28.7762 5.00024 28.5 5.00024H3.5ZM28.5 27.0002H9.62112L19.7154 16.906C19.9038 16.7176 20.2068 16.71 20.4044 16.8888L29 24.6656V26.5002C29 26.7764 28.7762 27.0002 28.5 27.0002ZM32 26.5002V24.0062V23.9946V5.50024C32 3.56724 30.433 2.00024 28.5 2.00024H3.5C1.567 2.00024 0 3.56724 0 5.50024V26.5002C0 28.4332 1.567 30.0002 3.5 30.0002H28.5C30.433 30.0002 32 28.4332 32 26.5002ZM11 12.0002C11 12.5525 10.5523 13.0002 10 13.0002C9.44772 13.0002 9 12.5525 9 12.0002C9 11.448 9.44772 11.0002 10 11.0002C10.5523 11.0002 11 11.448 11 12.0002ZM14 12.0002C14 14.2094 12.2091 16.0002 10 16.0002C7.79086 16.0002 6 14.2094 6 12.0002C6 9.7911 7.79086 8.00024 10 8.00024C12.2091 8.00024 14 9.7911 14 12.0002Z" fill="#0D2839"/>
</svg>
