<svg viewBox="0 0 27 26" fill="none" xmlns="http://www.w3.org/2000/svg">
<g clip-path="url(#clip0_14142_44410)">
<path fill-rule="evenodd" clip-rule="evenodd" d="M6.87696 2.66154C4.9737 2.66154 3.43081 4.20443 3.43081 6.10769V19.8923C3.43081 21.7956 4.9737 23.3385 6.87696 23.3385H20.6616C22.5648 23.3385 24.1077 21.7956 24.1077 19.8923V6.10769C24.1077 4.20443 22.5648 2.66154 20.6616 2.66154H6.87696ZM0.846191 6.10769C0.846191 2.77699 3.54626 0.0769234 6.87696 0.0769234H20.6616C23.9923 0.0769234 26.6923 2.77699 26.6923 6.10769V19.8923C26.6923 23.223 23.9923 25.9231 20.6616 25.9231H6.87696C3.54626 25.9231 0.846191 23.223 0.846191 19.8923V6.10769Z" fill="#0D2839"/>
</g>
<defs>
<clipPath id="clip0_14142_44410">
<rect width="25.8462" height="25.8462" fill="white" transform="translate(0.846191 0.0769234)"/>
</clipPath>
</defs>
</svg>
