<svg  viewBox="0 0 32 32" fill="none" xmlns="http://www.w3.org/2000/svg">
<path fill-rule="evenodd" clip-rule="evenodd" d="M15.5504 6.55134C15.2854 6.83568 15.1411 7.21178 15.148 7.60038C15.1549 7.98898 15.3123 8.35974 15.5871 8.63458C15.8619 8.9094 16.2327 9.06682 16.6213 9.07368C17.0099 9.08054 17.386 8.9363 17.6704 8.67134L20.1704 6.17134C20.542 5.7997 20.9832 5.50488 21.4688 5.30376C21.9544 5.10262 22.4748 4.9991 23.0004 4.9991C23.526 4.9991 24.0464 5.10262 24.532 5.30376C25.0176 5.50488 25.4588 5.7997 25.8304 6.17134C26.202 6.54298 26.4968 6.98418 26.698 7.46974C26.899 7.95532 27.0026 8.47576 27.0026 9.00134C27.0026 9.52692 26.899 10.0473 26.698 10.5329C26.4968 11.0185 26.202 11.4597 25.8304 11.8313L20.8304 16.8313C20.4588 17.2032 20.0178 17.4983 19.5321 17.6996C19.0465 17.9009 18.526 18.0045 18.0004 18.0045C17.4747 18.0045 16.9542 17.9009 16.4686 17.6996C15.983 17.4983 15.5418 17.2032 15.1704 16.8313C14.886 16.5664 14.5099 16.4221 14.1213 16.429C13.7327 16.4358 13.3619 16.5933 13.0871 16.8681C12.8123 17.1429 12.6549 17.5137 12.648 17.9023C12.6411 18.2909 12.7854 18.667 13.0504 18.9513C13.7004 19.6014 14.4721 20.1171 15.3214 20.4689C16.1707 20.8207 17.081 21.0017 18.0004 21.0017C18.9197 21.0017 19.83 20.8207 20.6794 20.4689C21.5286 20.1171 22.3004 19.6014 22.9504 18.9513L27.9504 13.9513C29.2632 12.6385 30.0008 10.8579 30.0008 9.00134C30.0008 7.14472 29.2632 5.36416 27.9504 4.05134C26.6376 2.7385 24.857 2.00098 23.0004 2.00098C21.1438 2.00098 19.3632 2.7385 18.0503 4.05134L15.5504 6.55134ZM6.17037 25.8313C5.79845 25.4597 5.50341 25.0187 5.30213 24.5331C5.10083 24.0475 4.99721 23.5269 4.99721 23.0013C4.99721 22.4757 5.10083 21.9551 5.30213 21.4695C5.50341 20.9839 5.79845 20.5427 6.17037 20.1713L11.1704 15.1713C11.5418 14.7994 11.983 14.5044 12.4686 14.3031C12.9542 14.1018 13.4747 13.9982 14.0004 13.9982C14.526 13.9982 15.0465 14.1018 15.5321 14.3031C16.0177 14.5044 16.4589 14.7994 16.8304 15.1713C17.1147 15.4363 17.4908 15.5805 17.8794 15.5737C18.268 15.5668 18.6388 15.4094 18.9136 15.1346C19.1884 14.8597 19.3458 14.489 19.3527 14.1004C19.3596 13.7118 19.2153 13.3357 18.9504 13.0513C18.3003 12.4012 17.5286 11.8856 16.6793 11.5337C15.83 11.1819 14.9197 11.0008 14.0004 11.0008C13.081 11.0008 12.1707 11.1819 11.3214 11.5337C10.4721 11.8856 9.70039 12.4012 9.05037 13.0513L4.05037 18.0513C2.73753 19.3642 2 21.1447 2 23.0013C2 24.8579 2.73753 26.6385 4.05037 27.9513C5.36319 29.2641 7.14375 30.0017 9.00037 30.0017C10.857 30.0017 12.6375 29.2641 13.9504 27.9513L16.4504 25.4513C16.7153 25.1669 16.8596 24.7909 16.8527 24.4023C16.8458 24.0137 16.6884 23.6429 16.4136 23.3681C16.1388 23.0933 15.768 22.9357 15.3794 22.9289C14.9908 22.9221 14.6147 23.0663 14.3304 23.3313L11.8304 25.8313C11.4589 26.2031 11.0177 26.4983 10.5321 26.6995C10.0465 26.9009 9.52603 27.0045 9.00037 27.0045C8.47469 27.0045 7.95419 26.9009 7.46859 26.6995C6.98301 26.4983 6.54185 26.2031 6.17037 25.8313Z" fill="#0D2839"/>
</svg>
